<?xml version="1.0" encoding="utf-8"?>
<svg xmlns="http://www.w3.org/2000/svg" xmlns:xlink="http://www.w3.org/1999/xlink" width="600" height="400" viewBox="0 0 2400 1600">
<defs>
  <clipPath id="clip970">
    <rect x="0" y="0" width="2400" height="1600"/>
  </clipPath>
</defs>
<path clip-path="url(#clip970)" d="
M0 1600 L2400 1600 L2400 0 L0 0  Z
  " fill="#ffffff" fill-rule="evenodd" fill-opacity="1"/>
<defs>
  <clipPath id="clip971">
    <rect x="480" y="0" width="1681" height="1600"/>
  </clipPath>
</defs>
<path clip-path="url(#clip970)" d="
M179.654 1486.45 L2352.76 1486.45 L2352.76 47.2441 L179.654 47.2441  Z
  " fill="#ffffff" fill-rule="evenodd" fill-opacity="1"/>
<defs>
  <clipPath id="clip972">
    <rect x="179" y="47" width="2174" height="1440"/>
  </clipPath>
</defs>
<polyline clip-path="url(#clip972)" style="stroke:#000000; stroke-width:2; stroke-opacity:0.1; fill:none" points="
  240.131,1486.45 240.131,47.2441 
  "/>
<polyline clip-path="url(#clip972)" style="stroke:#000000; stroke-width:2; stroke-opacity:0.1; fill:none" points="
  752.912,1486.45 752.912,47.2441 
  "/>
<polyline clip-path="url(#clip972)" style="stroke:#000000; stroke-width:2; stroke-opacity:0.1; fill:none" points="
  1265.69,1486.45 1265.69,47.2441 
  "/>
<polyline clip-path="url(#clip972)" style="stroke:#000000; stroke-width:2; stroke-opacity:0.1; fill:none" points="
  1778.47,1486.45 1778.47,47.2441 
  "/>
<polyline clip-path="url(#clip972)" style="stroke:#000000; stroke-width:2; stroke-opacity:0.1; fill:none" points="
  2291.25,1486.45 2291.25,47.2441 
  "/>
<polyline clip-path="url(#clip970)" style="stroke:#000000; stroke-width:4; stroke-opacity:1; fill:none" points="
  179.654,1486.45 2352.76,1486.45 
  "/>
<polyline clip-path="url(#clip970)" style="stroke:#000000; stroke-width:4; stroke-opacity:1; fill:none" points="
  240.131,1486.45 240.131,1469.18 
  "/>
<polyline clip-path="url(#clip970)" style="stroke:#000000; stroke-width:4; stroke-opacity:1; fill:none" points="
  752.912,1486.45 752.912,1469.18 
  "/>
<polyline clip-path="url(#clip970)" style="stroke:#000000; stroke-width:4; stroke-opacity:1; fill:none" points="
  1265.69,1486.45 1265.69,1469.18 
  "/>
<polyline clip-path="url(#clip970)" style="stroke:#000000; stroke-width:4; stroke-opacity:1; fill:none" points="
  1778.47,1486.45 1778.47,1469.18 
  "/>
<polyline clip-path="url(#clip970)" style="stroke:#000000; stroke-width:4; stroke-opacity:1; fill:none" points="
  2291.25,1486.45 2291.25,1469.18 
  "/>
<path clip-path="url(#clip970)" d="M 0 0 M240.131 1515.64 Q236.52 1515.64 234.691 1519.2 Q232.886 1522.75 232.886 1529.87 Q232.886 1536.98 234.691 1540.55 Q236.52 1544.09 240.131 1544.09 Q243.765 1544.09 245.571 1540.55 Q247.399 1536.98 247.399 1529.87 Q247.399 1522.75 245.571 1519.2 Q243.765 1515.64 240.131 1515.64 M240.131 1511.93 Q245.941 1511.93 248.997 1516.54 Q252.075 1521.12 252.075 1529.87 Q252.075 1538.6 248.997 1543.21 Q245.941 1547.79 240.131 1547.79 Q234.321 1547.79 231.242 1543.21 Q228.187 1538.6 228.187 1529.87 Q228.187 1521.12 231.242 1516.54 Q234.321 1511.93 240.131 1511.93 Z" fill="#000000" fill-rule="evenodd" fill-opacity="1" /><path clip-path="url(#clip970)" d="M 0 0 M729.787 1543.18 L737.425 1543.18 L737.425 1516.82 L729.115 1518.49 L729.115 1514.23 L737.379 1512.56 L742.055 1512.56 L742.055 1543.18 L749.694 1543.18 L749.694 1547.12 L729.787 1547.12 L729.787 1543.18 Z" fill="#000000" fill-rule="evenodd" fill-opacity="1" /><path clip-path="url(#clip970)" d="M 0 0 M764.763 1515.64 Q761.152 1515.64 759.324 1519.2 Q757.518 1522.75 757.518 1529.87 Q757.518 1536.98 759.324 1540.55 Q761.152 1544.09 764.763 1544.09 Q768.398 1544.09 770.203 1540.55 Q772.032 1536.98 772.032 1529.87 Q772.032 1522.75 770.203 1519.2 Q768.398 1515.64 764.763 1515.64 M764.763 1511.93 Q770.573 1511.93 773.629 1516.54 Q776.708 1521.12 776.708 1529.87 Q776.708 1538.6 773.629 1543.21 Q770.573 1547.79 764.763 1547.79 Q758.953 1547.79 755.874 1543.21 Q752.819 1538.6 752.819 1529.87 Q752.819 1521.12 755.874 1516.54 Q758.953 1511.93 764.763 1511.93 Z" fill="#000000" fill-rule="evenodd" fill-opacity="1" /><path clip-path="url(#clip970)" d="M 0 0 M1246.84 1543.18 L1263.16 1543.18 L1263.16 1547.12 L1241.21 1547.12 L1241.21 1543.18 Q1243.87 1540.43 1248.46 1535.8 Q1253.06 1531.15 1254.25 1529.81 Q1256.49 1527.28 1257.37 1525.55 Q1258.27 1523.79 1258.27 1522.1 Q1258.27 1519.34 1256.33 1517.61 Q1254.41 1515.87 1251.31 1515.87 Q1249.11 1515.87 1246.65 1516.63 Q1244.22 1517.4 1241.44 1518.95 L1241.44 1514.23 Q1244.27 1513.09 1246.72 1512.51 Q1249.18 1511.93 1251.21 1511.93 Q1256.58 1511.93 1259.78 1514.62 Q1262.97 1517.31 1262.97 1521.8 Q1262.97 1523.93 1262.16 1525.85 Q1261.37 1527.74 1259.27 1530.34 Q1258.69 1531.01 1255.59 1534.23 Q1252.49 1537.42 1246.84 1543.18 Z" fill="#000000" fill-rule="evenodd" fill-opacity="1" /><path clip-path="url(#clip970)" d="M 0 0 M1278.23 1515.64 Q1274.62 1515.64 1272.79 1519.2 Q1270.98 1522.75 1270.98 1529.87 Q1270.98 1536.98 1272.79 1540.55 Q1274.62 1544.09 1278.23 1544.09 Q1281.86 1544.09 1283.67 1540.55 Q1285.5 1536.98 1285.5 1529.87 Q1285.5 1522.75 1283.67 1519.2 Q1281.86 1515.64 1278.23 1515.64 M1278.23 1511.93 Q1284.04 1511.93 1287.09 1516.54 Q1290.17 1521.12 1290.17 1529.87 Q1290.17 1538.6 1287.09 1543.21 Q1284.04 1547.79 1278.23 1547.79 Q1272.42 1547.79 1269.34 1543.21 Q1266.28 1538.6 1266.28 1529.87 Q1266.28 1521.12 1269.34 1516.54 Q1272.42 1511.93 1278.23 1511.93 Z" fill="#000000" fill-rule="evenodd" fill-opacity="1" /><path clip-path="url(#clip970)" d="M 0 0 M1769.21 1528.49 Q1772.57 1529.2 1774.44 1531.47 Q1776.34 1533.74 1776.34 1537.07 Q1776.34 1542.19 1772.82 1544.99 Q1769.31 1547.79 1762.82 1547.79 Q1760.65 1547.79 1758.33 1547.35 Q1756.04 1546.93 1753.59 1546.08 L1753.59 1541.56 Q1755.53 1542.7 1757.85 1543.28 Q1760.16 1543.86 1762.69 1543.86 Q1767.08 1543.86 1769.38 1542.12 Q1771.69 1540.38 1771.69 1537.07 Q1771.69 1534.02 1769.54 1532.31 Q1767.41 1530.57 1763.59 1530.57 L1759.56 1530.57 L1759.56 1526.73 L1763.77 1526.73 Q1767.22 1526.73 1769.05 1525.36 Q1770.88 1523.97 1770.88 1521.38 Q1770.88 1518.72 1768.98 1517.31 Q1767.11 1515.87 1763.59 1515.87 Q1761.67 1515.87 1759.47 1516.29 Q1757.27 1516.7 1754.63 1517.58 L1754.63 1513.42 Q1757.29 1512.68 1759.61 1512.31 Q1761.94 1511.93 1764 1511.93 Q1769.33 1511.93 1772.43 1514.37 Q1775.53 1516.77 1775.53 1520.89 Q1775.53 1523.76 1773.89 1525.75 Q1772.25 1527.72 1769.21 1528.49 Z" fill="#000000" fill-rule="evenodd" fill-opacity="1" /><path clip-path="url(#clip970)" d="M 0 0 M1791.41 1515.64 Q1787.8 1515.64 1785.97 1519.2 Q1784.17 1522.75 1784.17 1529.87 Q1784.17 1536.98 1785.97 1540.55 Q1787.8 1544.09 1791.41 1544.09 Q1795.05 1544.09 1796.85 1540.55 Q1798.68 1536.98 1798.68 1529.87 Q1798.68 1522.75 1796.85 1519.2 Q1795.05 1515.64 1791.41 1515.64 M1791.41 1511.93 Q1797.22 1511.93 1800.28 1516.54 Q1803.36 1521.12 1803.36 1529.87 Q1803.36 1538.6 1800.28 1543.21 Q1797.22 1547.79 1791.41 1547.79 Q1785.6 1547.79 1782.52 1543.21 Q1779.47 1538.6 1779.47 1529.87 Q1779.47 1521.12 1782.52 1516.54 Q1785.6 1511.93 1791.41 1511.93 Z" fill="#000000" fill-rule="evenodd" fill-opacity="1" /><path clip-path="url(#clip970)" d="M 0 0 M2280.76 1516.63 L2268.95 1535.08 L2280.76 1535.08 L2280.76 1516.63 M2279.53 1512.56 L2285.41 1512.56 L2285.41 1535.08 L2290.34 1535.08 L2290.34 1538.97 L2285.41 1538.97 L2285.41 1547.12 L2280.76 1547.12 L2280.76 1538.97 L2265.15 1538.97 L2265.15 1534.46 L2279.53 1512.56 Z" fill="#000000" fill-rule="evenodd" fill-opacity="1" /><path clip-path="url(#clip970)" d="M 0 0 M2305.41 1515.64 Q2301.8 1515.64 2299.97 1519.2 Q2298.16 1522.75 2298.16 1529.87 Q2298.16 1536.98 2299.97 1540.55 Q2301.8 1544.09 2305.41 1544.09 Q2309.04 1544.09 2310.85 1540.55 Q2312.68 1536.98 2312.68 1529.87 Q2312.68 1522.75 2310.85 1519.2 Q2309.04 1515.64 2305.41 1515.64 M2305.41 1511.93 Q2311.22 1511.93 2314.27 1516.54 Q2317.35 1521.12 2317.35 1529.87 Q2317.35 1538.6 2314.27 1543.21 Q2311.22 1547.79 2305.41 1547.79 Q2299.6 1547.79 2296.52 1543.21 Q2293.46 1538.6 2293.46 1529.87 Q2293.46 1521.12 2296.52 1516.54 Q2299.6 1511.93 2305.41 1511.93 Z" fill="#000000" fill-rule="evenodd" fill-opacity="1" /><polyline clip-path="url(#clip972)" style="stroke:#000000; stroke-width:2; stroke-opacity:0.1; fill:none" points="
  179.654,1348.93 2352.76,1348.93 
  "/>
<polyline clip-path="url(#clip972)" style="stroke:#000000; stroke-width:2; stroke-opacity:0.1; fill:none" points="
  179.654,1011.27 2352.76,1011.27 
  "/>
<polyline clip-path="url(#clip972)" style="stroke:#000000; stroke-width:2; stroke-opacity:0.1; fill:none" points="
  179.654,673.618 2352.76,673.618 
  "/>
<polyline clip-path="url(#clip972)" style="stroke:#000000; stroke-width:2; stroke-opacity:0.1; fill:none" points="
  179.654,335.963 2352.76,335.963 
  "/>
<polyline clip-path="url(#clip970)" style="stroke:#000000; stroke-width:4; stroke-opacity:1; fill:none" points="
  179.654,1486.45 179.654,47.2441 
  "/>
<polyline clip-path="url(#clip970)" style="stroke:#000000; stroke-width:4; stroke-opacity:1; fill:none" points="
  179.654,1348.93 205.731,1348.93 
  "/>
<polyline clip-path="url(#clip970)" style="stroke:#000000; stroke-width:4; stroke-opacity:1; fill:none" points="
  179.654,1011.27 205.731,1011.27 
  "/>
<polyline clip-path="url(#clip970)" style="stroke:#000000; stroke-width:4; stroke-opacity:1; fill:none" points="
  179.654,673.618 205.731,673.618 
  "/>
<polyline clip-path="url(#clip970)" style="stroke:#000000; stroke-width:4; stroke-opacity:1; fill:none" points="
  179.654,335.963 205.731,335.963 
  "/>
<path clip-path="url(#clip970)" d="M 0 0 M51.8949 1349.38 L81.5707 1349.38 L81.5707 1353.31 L51.8949 1353.31 L51.8949 1349.38 Z" fill="#000000" fill-rule="evenodd" fill-opacity="1" /><path clip-path="url(#clip970)" d="M 0 0 M85.4595 1331.65 L107.682 1331.65 L107.682 1333.64 L95.1354 1366.21 L90.2512 1366.21 L102.057 1335.58 L85.4595 1335.58 L85.4595 1331.65 Z" fill="#000000" fill-rule="evenodd" fill-opacity="1" /><path clip-path="url(#clip970)" d="M 0 0 M112.751 1360.33 L117.635 1360.33 L117.635 1366.21 L112.751 1366.21 L112.751 1360.33 Z" fill="#000000" fill-rule="evenodd" fill-opacity="1" /><path clip-path="url(#clip970)" d="M 0 0 M122.751 1331.65 L141.107 1331.65 L141.107 1335.58 L127.033 1335.58 L127.033 1344.05 Q128.052 1343.71 129.07 1343.55 Q130.089 1343.36 131.107 1343.36 Q136.894 1343.36 140.274 1346.53 Q143.654 1349.7 143.654 1355.12 Q143.654 1360.7 140.181 1363.8 Q136.709 1366.88 130.39 1366.88 Q128.214 1366.88 125.945 1366.51 Q123.7 1366.14 121.293 1365.4 L121.293 1360.7 Q123.376 1361.83 125.598 1362.39 Q127.82 1362.94 130.297 1362.94 Q134.302 1362.94 136.64 1360.84 Q138.978 1358.73 138.978 1355.12 Q138.978 1351.51 136.64 1349.4 Q134.302 1347.3 130.297 1347.3 Q128.422 1347.3 126.547 1347.71 Q124.695 1348.13 122.751 1349.01 L122.751 1331.65 Z" fill="#000000" fill-rule="evenodd" fill-opacity="1" /><path clip-path="url(#clip970)" d="M 0 0 M50.9921 1011.72 L80.6679 1011.72 L80.6679 1015.66 L50.9921 1015.66 L50.9921 1011.72 Z" fill="#000000" fill-rule="evenodd" fill-opacity="1" /><path clip-path="url(#clip970)" d="M 0 0 M85.7836 993.993 L104.14 993.993 L104.14 997.928 L90.066 997.928 L90.066 1006.4 Q91.0845 1006.05 92.103 1005.89 Q93.1215 1005.71 94.14 1005.71 Q99.927 1005.71 103.307 1008.88 Q106.686 1012.05 106.686 1017.46 Q106.686 1023.04 103.214 1026.15 Q99.7419 1029.22 93.4225 1029.22 Q91.2465 1029.22 88.978 1028.85 Q86.7327 1028.48 84.3253 1027.74 L84.3253 1023.04 Q86.4086 1024.18 88.6308 1024.73 Q90.853 1025.29 93.3299 1025.29 Q97.3345 1025.29 99.6724 1023.18 Q102.01 1021.08 102.01 1017.46 Q102.01 1013.85 99.6724 1011.75 Q97.3345 1009.64 93.3299 1009.64 Q91.4549 1009.64 89.5799 1010.06 Q87.728 1010.47 85.7836 1011.35 L85.7836 993.993 Z" fill="#000000" fill-rule="evenodd" fill-opacity="1" /><path clip-path="url(#clip970)" d="M 0 0 M111.756 1022.67 L116.64 1022.67 L116.64 1028.55 L111.756 1028.55 L111.756 1022.67 Z" fill="#000000" fill-rule="evenodd" fill-opacity="1" /><path clip-path="url(#clip970)" d="M 0 0 M131.709 997.071 Q128.098 997.071 126.27 1000.64 Q124.464 1004.18 124.464 1011.31 Q124.464 1018.41 126.27 1021.98 Q128.098 1025.52 131.709 1025.52 Q135.344 1025.52 137.149 1021.98 Q138.978 1018.41 138.978 1011.31 Q138.978 1004.18 137.149 1000.64 Q135.344 997.071 131.709 997.071 M131.709 993.368 Q137.519 993.368 140.575 997.974 Q143.654 1002.56 143.654 1011.31 Q143.654 1020.03 140.575 1024.64 Q137.519 1029.22 131.709 1029.22 Q125.899 1029.22 122.82 1024.64 Q119.765 1020.03 119.765 1011.31 Q119.765 1002.56 122.82 997.974 Q125.899 993.368 131.709 993.368 Z" fill="#000000" fill-rule="evenodd" fill-opacity="1" /><path clip-path="url(#clip970)" d="M 0 0 M52.5893 674.069 L82.2651 674.069 L82.2651 678.004 L52.5893 678.004 L52.5893 674.069 Z" fill="#000000" fill-rule="evenodd" fill-opacity="1" /><path clip-path="url(#clip970)" d="M 0 0 M91.3623 686.963 L107.682 686.963 L107.682 690.898 L85.7373 690.898 L85.7373 686.963 Q88.3993 684.208 92.9826 679.579 Q97.5891 674.926 98.7696 673.583 Q101.015 671.06 101.895 669.324 Q102.797 667.565 102.797 665.875 Q102.797 663.12 100.853 661.384 Q98.9317 659.648 95.8298 659.648 Q93.6308 659.648 91.1771 660.412 Q88.7466 661.176 85.9688 662.727 L85.9688 658.005 Q88.7928 656.87 91.2465 656.292 Q93.7002 655.713 95.7373 655.713 Q101.108 655.713 104.302 658.398 Q107.496 661.083 107.496 665.574 Q107.496 667.704 106.686 669.625 Q105.899 671.523 103.793 674.116 Q103.214 674.787 100.112 678.004 Q97.0104 681.199 91.3623 686.963 Z" fill="#000000" fill-rule="evenodd" fill-opacity="1" /><path clip-path="url(#clip970)" d="M 0 0 M112.751 685.018 L117.635 685.018 L117.635 690.898 L112.751 690.898 L112.751 685.018 Z" fill="#000000" fill-rule="evenodd" fill-opacity="1" /><path clip-path="url(#clip970)" d="M 0 0 M122.751 656.338 L141.107 656.338 L141.107 660.273 L127.033 660.273 L127.033 668.745 Q128.052 668.398 129.07 668.236 Q130.089 668.051 131.107 668.051 Q136.894 668.051 140.274 671.222 Q143.654 674.393 143.654 679.81 Q143.654 685.389 140.181 688.491 Q136.709 691.569 130.39 691.569 Q128.214 691.569 125.945 691.199 Q123.7 690.828 121.293 690.088 L121.293 685.389 Q123.376 686.523 125.598 687.078 Q127.82 687.634 130.297 687.634 Q134.302 687.634 136.64 685.528 Q138.978 683.421 138.978 679.81 Q138.978 676.199 136.64 674.092 Q134.302 671.986 130.297 671.986 Q128.422 671.986 126.547 672.403 Q124.695 672.819 122.751 673.699 L122.751 656.338 Z" fill="#000000" fill-rule="evenodd" fill-opacity="1" /><path clip-path="url(#clip970)" d="M 0 0 M94.7419 321.762 Q91.1308 321.762 89.3021 325.327 Q87.4966 328.868 87.4966 335.998 Q87.4966 343.104 89.3021 346.669 Q91.1308 350.211 94.7419 350.211 Q98.3761 350.211 100.182 346.669 Q102.01 343.104 102.01 335.998 Q102.01 328.868 100.182 325.327 Q98.3761 321.762 94.7419 321.762 M94.7419 318.058 Q100.552 318.058 103.608 322.665 Q106.686 327.248 106.686 335.998 Q106.686 344.725 103.608 349.331 Q100.552 353.914 94.7419 353.914 Q88.9317 353.914 85.8531 349.331 Q82.7975 344.725 82.7975 335.998 Q82.7975 327.248 85.8531 322.665 Q88.9317 318.058 94.7419 318.058 Z" fill="#000000" fill-rule="evenodd" fill-opacity="1" /><path clip-path="url(#clip970)" d="M 0 0 M111.756 347.364 L116.64 347.364 L116.64 353.243 L111.756 353.243 L111.756 347.364 Z" fill="#000000" fill-rule="evenodd" fill-opacity="1" /><path clip-path="url(#clip970)" d="M 0 0 M131.709 321.762 Q128.098 321.762 126.27 325.327 Q124.464 328.868 124.464 335.998 Q124.464 343.104 126.27 346.669 Q128.098 350.211 131.709 350.211 Q135.344 350.211 137.149 346.669 Q138.978 343.104 138.978 335.998 Q138.978 328.868 137.149 325.327 Q135.344 321.762 131.709 321.762 M131.709 318.058 Q137.519 318.058 140.575 322.665 Q143.654 327.248 143.654 335.998 Q143.654 344.725 140.575 349.331 Q137.519 353.914 131.709 353.914 Q125.899 353.914 122.82 349.331 Q119.765 344.725 119.765 335.998 Q119.765 327.248 122.82 322.665 Q125.899 318.058 131.709 318.058 Z" fill="#000000" fill-rule="evenodd" fill-opacity="1" /><polyline clip-path="url(#clip972)" style="stroke:#009af9; stroke-width:4; stroke-opacity:1; fill:none" points="
  241.157,87.9763 242.182,88.1785 243.208,88.5156 244.233,88.9878 245.259,89.5955 246.284,90.3392 247.31,91.2193 248.335,92.2369 249.361,93.3927 250.387,94.6879 
  251.412,96.1236 252.438,97.7011 253.463,99.4216 254.489,101.287 255.514,103.298 256.54,105.456 257.566,107.764 258.591,110.224 259.617,112.838 260.642,115.609 
  261.668,118.538 262.693,121.63 263.719,124.887 264.744,128.313 265.77,131.911 266.796,135.685 267.821,139.64 268.847,143.779 269.872,148.108 270.898,152.631 
  271.923,157.355 272.949,162.285 273.975,167.428 275,172.79 276.026,178.38 277.051,184.206 278.077,190.275 279.102,196.599 280.128,203.187 281.153,210.051 
  282.179,217.203 283.205,224.657 284.23,232.427 285.256,240.531 286.281,248.985 287.307,257.809 288.332,267.025 289.358,276.657 290.383,286.732 291.409,297.281 
  292.435,308.337 293.46,319.939 294.486,332.131 295.511,344.963 296.537,358.49 297.562,372.778 298.588,387.904 299.614,403.956 300.639,421.042 301.665,439.288 
  302.69,458.847 303.716,479.907 304.741,502.702 305.767,527.529 306.792,554.774 307.818,584.944 308.844,618.727 309.869,657.085 310.895,701.433 311.92,753.96 
  312.946,818.315 313.971,901.164 314.997,1016.08 316.023,1186.93 317.048,1255.72 318.074,1075.96 319.099,946.22 320.125,856.756 321.15,789.697 322.176,736.468 
  323.201,692.556 324.227,655.333 325.253,623.148 326.278,594.893 327.304,569.792 328.329,547.282 329.355,526.941 330.38,508.444 331.406,491.54 332.431,476.027 
  333.457,461.741 334.483,448.549 335.508,436.339 336.534,425.016 337.559,414.501 338.585,404.723 339.61,395.622 340.636,387.145 341.662,379.246 342.687,371.887 
  343.713,365.034 344.738,358.655 345.764,352.726 346.789,347.221 347.815,342.121 348.84,337.405 349.866,333.056 350.892,329.059 351.917,325.398 352.943,322.062 
  353.968,319.038 354.994,316.316 356.019,313.888 357.045,311.743 358.071,309.876 359.096,308.278 360.122,306.944 361.147,305.869 362.173,305.046 363.198,304.473 
  364.224,304.145 365.249,304.059 366.275,304.213 367.301,304.605 368.326,305.232 369.352,306.095 370.377,307.191 371.403,308.52 372.428,310.082 373.454,311.877 
  374.479,313.906 375.505,316.17 376.531,318.669 377.556,321.407 378.582,324.385 379.607,327.608 380.633,331.079 381.658,334.802 382.684,338.782 383.71,343.025 
  384.735,347.537 385.761,352.325 386.786,357.396 387.812,362.758 388.837,368.42 389.863,374.393 390.888,380.686 391.914,387.312 392.94,394.283 393.965,401.613 
  394.991,409.32 396.016,417.42 397.042,425.934 398.067,434.885 399.093,444.3 400.119,454.207 401.144,464.64 402.17,475.637 403.195,487.241 404.221,499.503 
  405.246,512.477 406.272,526.229 407.297,540.827 408.323,556.355 409.349,572.913 410.374,590.618 411.4,609.613 412.425,630.075 413.451,652.218 414.476,676.317 
  415.502,702.72 416.527,731.875 417.553,764.377 418.579,801.034 419.604,842.974 420.63,891.863 421.655,950.265 422.681,1022.18 423.706,1113.12 424.732,1221.53 
  425.758,1277 426.783,1196.79 427.809,1093.08 428.834,1009.82 429.86,944.378 430.885,891.444 431.911,847.388 432.936,809.87 433.962,777.345 434.988,748.758 
  436.013,723.36 437.039,700.598 438.064,680.049 439.09,661.383 440.115,644.344 441.141,628.729 442.167,614.371 443.192,601.132 444.218,588.893 445.243,577.553 
  446.269,567.026 447.294,557.243 448.32,548.144 449.345,539.678 450.371,531.802 451.397,524.474 452.422,517.662 453.448,511.335 454.473,505.47 455.499,500.043 
  456.524,495.03 457.55,490.408 458.575,486.157 459.601,482.262 460.627,478.707 461.652,475.481 462.678,472.574 463.703,469.974 464.729,467.672 465.754,465.659 
  466.78,463.93 467.806,462.477 468.831,461.296 469.857,460.38 470.882,459.724 471.908,459.324 472.933,459.176 473.959,459.274 474.984,459.615 476.01,460.195 
  477.036,461.01 478.061,462.057 479.087,463.337 480.112,464.849 481.138,466.594 482.163,468.574 483.189,470.787 484.215,473.235 485.24,475.919 486.266,478.839 
  487.291,481.998 488.317,485.399 489.342,489.044 490.368,492.935 491.393,497.075 492.419,501.466 493.445,506.111 494.47,511.013 495.496,516.178 496.521,521.612 
  497.547,527.324 498.572,533.324 499.598,539.619 500.623,546.219 501.649,553.13 502.675,560.361 503.7,567.925 504.726,575.833 505.751,584.1 506.777,592.737 
  507.802,601.758 508.828,611.18 509.854,621.023 510.879,631.309 511.905,642.065 512.93,653.318 513.956,665.105 514.981,677.465 516.007,690.447 517.032,704.104 
  518.058,718.498 519.084,733.704 520.109,749.81 521.135,766.92 522.16,785.149 523.186,804.636 524.211,825.548 525.237,848.086 526.263,872.492 527.288,899.055 
  528.314,928.133 529.339,960.19 530.365,995.817 531.39,1035.79 532.416,1081.12 533.441,1133.04 534.467,1192.69 535.493,1259.61 536.518,1325.32 537.544,1360.7 
  538.569,1337.17 539.595,1277.82 540.62,1214.77 541.646,1158.77 542.671,1110.89 543.697,1069.96 544.723,1034.62 545.748,1003.75 546.774,976.489 547.799,952.198 
  548.825,930.415 549.85,910.784 550.876,893.006 551.902,876.836 552.927,862.061 553.953,848.506 554.978,836.041 556.004,824.562 557.029,813.985 558.055,804.235 
  559.08,795.243 560.106,786.943 561.132,779.272 562.157,772.179 563.183,765.622 564.208,759.559 565.234,753.961 566.259,748.801 567.285,744.057 568.311,739.711 
  569.336,735.747 570.362,732.146 571.387,728.892 572.413,725.969 573.438,723.36 574.464,721.044 575.489,719.003 576.515,717.221 577.541,715.689 578.566,714.407 
  579.592,713.379 580.617,712.614 581.643,712.104 582.668,711.834 583.694,711.792 584.719,711.973 585.745,712.368 586.771,712.974 587.796,713.791 588.822,714.817 
  589.847,716.052 590.873,717.495 591.898,719.137 592.924,720.969 593.95,722.981 594.975,725.165 596.001,727.514 597.026,730.025 598.052,732.696 599.077,735.528 
  600.103,738.518 601.128,741.667 602.154,744.976 603.18,748.447 604.205,752.077 605.231,755.864 606.256,759.8 607.282,763.876 608.307,768.083 609.333,772.413 
  610.359,776.861 611.384,781.428 612.41,786.118 613.435,790.936 614.461,795.903 615.486,801.044 616.512,806.37 617.537,811.872 618.563,817.538 619.589,823.348 
  620.614,829.294 621.64,835.376 622.665,841.583 623.691,847.893 624.716,854.275 625.742,860.71 626.767,867.196 627.793,873.727 628.819,880.293 629.844,886.893 
  630.87,893.558 631.895,900.341 632.921,907.277 633.946,914.371 634.972,921.574 635.998,928.822 637.023,936.108 638.049,943.474 639.074,950.963 640.1,958.595 
  641.125,966.373 642.151,974.226 643.176,982.066 644.202,989.875 645.228,997.756 646.253,1005.87 647.279,1014.37 648.304,1023.34 649.33,1032.76 650.355,1042.41 
  651.381,1052.05 652.407,1061.5 653.432,1070.75 654.458,1079.87 655.483,1088.95 656.509,1098.11 657.534,1107.48 658.56,1117.12 659.585,1127.12 660.611,1137.51 
  661.637,1148.4 662.662,1159.91 663.688,1171.94 664.713,1184.12 665.739,1195.9 666.764,1206.83 667.79,1216.78 668.815,1226.09 669.841,1235.29 670.867,1244.89 
  671.892,1255.08 672.918,1265.88 673.943,1277.36 674.969,1289.57 675.994,1302.58 677.02,1316.55 678.046,1331.59 679.071,1347.57 680.097,1364.08 681.122,1380.38 
  682.148,1395.63 683.173,1409.46 684.199,1421.87 685.224,1432.69 686.25,1441.08 687.276,1445.72 688.301,1445.54 689.327,1440.27 690.352,1430.18 691.378,1415.75 
  692.403,1397.96 693.429,1378.57 694.455,1358.98 695.48,1339.84 696.506,1321.44 697.531,1303.91 698.557,1287.05 699.582,1270.66 700.608,1254.65 701.633,1238.82 
  702.659,1223.01 703.685,1207.25 704.71,1191.73 705.736,1176.81 706.761,1162.77 707.787,1149.64 708.812,1137.24 709.838,1125.42 710.864,1114.07 711.889,1103.22 
  712.915,1092.94 713.94,1083.2 714.966,1073.89 715.991,1064.85 717.017,1056.02 718.042,1047.37 719.068,1038.93 720.094,1030.72 721.119,1022.75 722.145,1015.01 
  723.17,1007.43 724.196,999.981 725.221,992.634 726.247,985.467 727.272,978.566 728.298,971.964 729.324,965.611 730.349,959.435 731.375,953.361 732.4,947.357 
  733.426,941.448 734.451,935.69 735.477,930.14 736.503,924.826 737.528,919.746 738.554,914.883 739.579,910.219 740.605,905.731 741.63,901.403 742.656,897.232 
  743.681,893.212 744.707,889.336 745.733,885.594 746.758,881.976 747.784,878.487 748.809,875.146 749.835,871.981 750.86,869.025 751.886,866.295 752.912,863.772 
  753.937,861.427 754.963,859.237 755.988,857.192 757.014,855.292 758.039,853.543 759.065,851.942 760.09,850.479 761.116,849.149 762.142,847.963 763.167,846.948 
  764.193,846.133 765.218,845.52 766.244,845.077 767.269,844.763 768.295,844.553 769.32,844.448 770.346,844.475 771.372,844.665 772.397,845.048 773.423,845.658 
  774.448,846.522 775.474,847.638 776.499,848.985 777.525,850.525 778.551,852.229 779.576,854.086 780.602,856.109 781.627,858.327 782.653,860.77 783.678,863.463 
  784.704,866.406 785.729,869.577 786.755,872.958 787.781,876.534 788.806,880.309 789.832,884.295 790.857,888.514 791.883,893.001 792.908,897.79 793.934,902.893 
  794.96,908.309 795.985,914.037 797.011,920.072 798.036,926.392 799.062,932.984 800.087,939.873 801.113,947.126 802.138,954.837 803.164,963.068 804.19,971.798 
  805.215,980.942 806.241,990.424 807.266,1000.23 808.292,1010.43 809.317,1021.1 810.343,1032.33 811.368,1044.2 812.394,1056.8 813.42,1070.23 814.445,1084.56 
  815.471,1099.87 816.496,1116.25 817.522,1133.8 818.547,1152.71 819.573,1173.17 820.599,1195.33 821.624,1219.19 822.65,1244.53 823.675,1271.11 824.701,1298.79 
  825.726,1326.91 826.752,1353.75 827.777,1375.82 828.803,1388.37 829.829,1388.16 830.854,1375.64 831.88,1354.45 832.905,1329.11 833.931,1302.83 834.956,1277.08 
  835.982,1252.36 837.008,1228.8 838.033,1206.31 839.059,1184.79 840.084,1164.2 841.11,1144.53 842.135,1125.91 843.161,1108.44 844.186,1092.12 845.212,1076.9 
  846.238,1062.65 847.263,1049.24 848.289,1036.58 849.314,1024.59 850.34,1013.28 851.365,1002.63 852.391,992.676 853.416,983.398 854.442,974.761 855.468,966.68 
  856.493,959.064 857.519,951.87 858.544,945.087 859.57,938.714 860.595,932.741 861.621,927.15 862.647,921.913 863.672,917.005 864.698,912.4 865.723,908.082 
  866.749,904.043 867.774,900.275 868.8,896.771 869.825,893.531 870.851,890.565 871.877,887.877 872.902,885.457 873.928,883.289 874.953,881.35 875.979,879.614 
  877.004,878.056 878.03,876.664 879.056,875.446 880.081,874.425 881.107,873.623 882.132,873.044 883.158,872.672 884.183,872.487 885.209,872.48 886.234,872.652 
  887.26,873.007 888.286,873.552 889.311,874.294 890.337,875.228 891.362,876.346 892.388,877.648 893.413,879.144 894.439,880.848 895.464,882.762 896.49,884.874 
  897.516,887.158 898.541,889.577 899.567,892.103 900.592,894.751 901.618,897.555 902.643,900.564 903.669,903.813 904.695,907.309 905.72,911.04 906.746,914.984 
  907.771,919.119 908.797,923.43 909.822,927.923 910.848,932.619 911.873,937.526 912.899,942.642 913.925,947.956 914.95,953.44 915.976,959.073 917.001,964.871 
  918.027,970.895 919.052,977.209 920.078,983.845 921.104,990.77 922.129,997.919 923.155,1005.27 924.18,1012.8 925.206,1020.51 926.231,1028.41 927.257,1036.56 
  928.282,1044.98 929.308,1053.73 930.334,1062.79 931.359,1072.1 932.385,1081.61 933.41,1091.27 934.436,1101.07 935.461,1111.07 936.487,1121.42 937.512,1132.18 
  938.538,1143.31 939.564,1154.7 940.589,1166.23 941.615,1177.79 942.64,1189.38 943.666,1200.96 944.691,1212.48 945.717,1224 946.743,1235.69 947.768,1247.63 
  948.794,1259.97 949.819,1273.01 950.845,1287.1 951.87,1302.47 952.896,1319.53 953.921,1338.62 954.947,1359.26 955.973,1380.66 956.998,1401.6 958.024,1419.85 
  959.049,1432.46 960.075,1437.58 961.1,1435.71 962.126,1428.17 963.152,1415.95 964.177,1399.94 965.203,1381.46 966.228,1361.86 967.254,1342.06 968.279,1322.87 
  969.305,1305.08 970.33,1288.89 971.356,1274.09 972.382,1260.56 973.407,1248.3 974.433,1237.33 975.458,1227.68 976.484,1219.29 977.509,1212.06 978.535,1205.79 
  979.56,1200.27 980.586,1195.33 981.612,1190.87 982.637,1186.92 983.663,1183.47 984.688,1180.47 985.714,1177.8 986.739,1175.26 987.765,1172.6 988.791,1169.72 
  989.816,1166.64 990.842,1163.47 991.867,1160.32 992.893,1157.17 993.918,1153.93 994.944,1150.59 995.969,1147.2 996.995,1143.87 998.021,1140.81 999.046,1138.13 
  1000.07,1135.75 1001.1,1133.52 1002.12,1131.32 1003.15,1129.14 1004.17,1127.09 1005.2,1125.23 1006.23,1123.5 1007.25,1121.74 1008.28,1119.88 1009.3,1117.97 
  1010.33,1116.14 1011.35,1114.54 1012.38,1113.21 1013.4,1112.08 1014.43,1111.05 1015.46,1110.09 1016.48,1109.19 1017.51,1108.37 1018.53,1107.61 1019.56,1106.95 
  1020.58,1106.43 1021.61,1106.08 1022.63,1105.88 1023.66,1105.8 1024.69,1105.78 1025.71,1105.75 1026.74,1105.68 1027.76,1105.6 1028.79,1105.58 1029.81,1105.7 
  1030.84,1105.99 1031.86,1106.46 1032.89,1107.03 1033.92,1107.69 1034.94,1108.37 1035.97,1108.97 1036.99,1109.45 1038.02,1109.86 1039.04,1110.31 1040.07,1110.91 
  1041.09,1111.84 1042.12,1113.17 1043.15,1114.82 1044.17,1116.59 1045.2,1118.32 1046.22,1119.96 1047.25,1121.56 1048.27,1123.23 1049.3,1125.11 1050.32,1127.4 
  1051.35,1130.23 1052.38,1133.69 1053.4,1137.76 1054.43,1142.32 1055.45,1147.06 1056.48,1151.48 1057.5,1155.25 1058.53,1158.4 1059.55,1161.27 1060.58,1164.16 
  1061.61,1167.19 1062.63,1170.32 1063.66,1173.4 1064.68,1176.32 1065.71,1179.13 1066.73,1181.87 1067.76,1184.51 1068.78,1186.9 1069.81,1188.81 1070.84,1190.07 
  1071.86,1190.64 1072.89,1190.83 1073.91,1191.08 1074.94,1191.81 1075.96,1193.24 1076.99,1195.3 1078.01,1197.82 1079.04,1200.75 1080.07,1204.26 1081.09,1208.65 
  1082.12,1214.15 1083.14,1220.64 1084.17,1227.66 1085.19,1234.73 1086.22,1241.62 1087.24,1248.33 1088.27,1255.06 1089.3,1261.86 1090.32,1268.55 1091.35,1275.05 
  1092.37,1281.55 1093.4,1288.44 1094.42,1296.16 1095.45,1305.06 1096.47,1315.17 1097.5,1326.27 1098.53,1337.66 1099.55,1348.29 1100.58,1357.32 1101.6,1364.28 
  1102.63,1369.17 1103.65,1372.59 1104.68,1375.72 1105.7,1380.09 1106.73,1386.49 1107.76,1394.01 1108.78,1400.33 1109.81,1403.01 1110.83,1400.6 1111.86,1393.38 
  1112.88,1382.54 1113.91,1369.12 1114.93,1353.68 1115.96,1336.79 1116.99,1319.23 1118.01,1301.91 1119.04,1285.51 1120.06,1270.53 1121.09,1257.02 1122.11,1244.75 
  1123.14,1233.58 1124.16,1223.46 1125.19,1214.32 1126.22,1206.14 1127.24,1198.88 1128.27,1192.41 1129.29,1186.46 1130.32,1180.79 1131.34,1175.12 1132.37,1169.16 
  1133.39,1162.8 1134.42,1156.11 1135.45,1149.25 1136.47,1142.37 1137.5,1135.64 1138.52,1129.14 1139.55,1122.85 1140.57,1116.62 1141.6,1110.29 1142.62,1103.77 
  1143.65,1097.02 1144.68,1090.15 1145.7,1083.35 1146.73,1076.79 1147.75,1070.6 1148.78,1064.91 1149.8,1059.69 1150.83,1054.79 1151.85,1050.03 1152.88,1045.27 
  1153.91,1040.47 1154.93,1035.74 1155.96,1031.23 1156.98,1027.03 1158.01,1023.14 1159.03,1019.5 1160.06,1016.03 1161.08,1012.74 1162.11,1009.65 1163.14,1006.84 
  1164.16,1004.34 1165.19,1002.09 1166.21,999.988 1167.24,997.916 1168.26,995.777 1169.29,993.566 1170.31,991.376 1171.34,989.358 1172.37,987.64 1173.39,986.284 
  1174.42,985.292 1175.44,984.599 1176.47,984.102 1177.49,983.716 1178.52,983.421 1179.54,983.226 1180.57,983.173 1181.6,983.301 1182.62,983.62 1183.65,984.131 
  1184.67,984.823 1185.7,985.682 1186.72,986.707 1187.75,987.919 1188.77,989.355 1189.8,991.033 1190.83,992.94 1191.85,995.037 1192.88,997.283 1193.9,999.654 
  1194.93,1002.16 1195.95,1004.8 1196.98,1007.58 1198,1010.52 1199.03,1013.63 1200.06,1016.95 1201.08,1020.49 1202.11,1024.28 1203.13,1028.28 1204.16,1032.46 
  1205.18,1036.82 1206.21,1041.48 1207.24,1046.6 1208.26,1052.31 1209.29,1058.65 1210.31,1065.59 1211.34,1073.03 1212.36,1080.88 1213.39,1089.06 1214.41,1097.47 
  1215.44,1106 1216.47,1114.58 1217.49,1123.2 1218.52,1131.89 1219.54,1140.72 1220.57,1149.67 1221.59,1158.74 1222.62,1167.96 1223.64,1177.35 1224.67,1186.91 
  1225.7,1196.57 1226.72,1206.03 1227.75,1214.79 1228.77,1222.24 1229.8,1227.91 1230.82,1231.72 1231.85,1233.82 1232.87,1234.52 1233.9,1234.09 1234.93,1232.8 
  1235.95,1230.94 1236.98,1228.6 1238,1225.63 1239.03,1221.88 1240.05,1217.26 1241.08,1211.73 1242.1,1205.34 1243.13,1198.23 1244.16,1190.57 1245.18,1182.47 
  1246.21,1173.95 1247.23,1165.06 1248.26,1155.88 1249.28,1146.47 1250.31,1136.9 1251.33,1127.25 1252.36,1117.61 1253.39,1108.05 1254.41,1098.48 1255.44,1088.88 
  1256.46,1079.3 1257.49,1069.85 1258.51,1060.7 1259.54,1051.94 1260.56,1043.62 1261.59,1035.7 1262.62,1028.07 1263.64,1020.67 1264.67,1013.44 1265.69,1006.4 
  1266.72,999.557 1267.74,992.938 1268.77,986.552 1269.79,980.397 1270.82,974.485 1271.85,968.867 1272.87,963.6 1273.9,958.722 1274.92,954.239 1275.95,950.105 
  1276.97,946.241 1278,942.559 1279.02,939.005 1280.05,935.545 1281.08,932.162 1282.1,928.832 1283.13,925.538 1284.15,922.291 1285.18,919.14 1286.2,916.15 
  1287.23,913.365 1288.25,910.795 1289.28,908.418 1290.31,906.206 1291.33,904.13 1292.36,902.179 1293.38,900.351 1294.41,898.637 1295.43,897.036 1296.46,895.564 
  1297.48,894.245 1298.51,893.087 1299.54,892.102 1300.56,891.31 1301.59,890.73 1302.61,890.366 1303.64,890.223 1304.66,890.292 1305.69,890.552 1306.71,890.984 
  1307.74,891.571 1308.77,892.304 1309.79,893.178 1310.82,894.191 1311.84,895.352 1312.87,896.665 1313.89,898.137 1314.92,899.765 1315.94,901.55 1316.97,903.484 
  1318,905.557 1319.02,907.77 1320.05,910.137 1321.07,912.664 1322.1,915.342 1323.12,918.148 1324.15,921.061 1325.17,924.076 1326.2,927.233 1327.23,930.615 
  1328.25,934.31 1329.28,938.374 1330.3,942.803 1331.33,947.543 1332.35,952.515 1333.38,957.659 1334.4,962.952 1335.43,968.41 1336.46,974.08 1337.48,980.029 
  1338.51,986.319 1339.53,993.003 1340.56,1000.09 1341.58,1007.54 1342.61,1015.3 1343.63,1023.35 1344.66,1031.75 1345.69,1040.59 1346.71,1050 1347.74,1060.05 
  1348.76,1070.7 1349.79,1081.91 1350.81,1093.55 1351.84,1105.48 1352.86,1117.61 1353.89,1129.98 1354.92,1142.82 1355.94,1156.45 1356.97,1171.26 1357.99,1187.51 
  1359.02,1205.29 1360.04,1224.45 1361.07,1244.56 1362.09,1264.91 1363.12,1284.85 1364.15,1303.82 1365.17,1321.69 1366.2,1338.51 1367.22,1353.6 1368.25,1365.76 
  1369.27,1373.4 1370.3,1375.27 1371.32,1371.01 1372.35,1361.13 1373.38,1346.51 1374.4,1328.39 1375.43,1308.25 1376.45,1287.32 1377.48,1266.45 1378.5,1246.09 
  1379.53,1226.52 1380.55,1207.98 1381.58,1190.55 1382.61,1174.25 1383.63,1158.94 1384.66,1144.43 1385.68,1130.51 1386.71,1117.12 1387.73,1104.3 1388.76,1092.09 
  1389.78,1080.5 1390.81,1069.53 1391.84,1059.13 1392.86,1049.27 1393.89,1039.91 1394.91,1031.02 1395.94,1022.6 1396.96,1014.62 1397.99,1007.04 1399.01,999.8 
  1400.04,992.846 1401.07,986.153 1402.09,979.718 1403.12,973.568 1404.14,967.728 1405.17,962.205 1406.19,956.986 1407.22,952.055 1408.24,947.412 1409.27,943.059 
  1410.3,938.982 1411.32,935.15 1412.35,931.558 1413.37,928.211 1414.4,925.113 1415.42,922.283 1416.45,919.718 1417.48,917.387 1418.5,915.245 1419.53,913.252 
  1420.55,911.379 1421.58,909.601 1422.6,907.916 1423.63,906.337 1424.65,904.895 1425.68,903.621 1426.71,902.529 1427.73,901.62 1428.76,900.901 1429.78,900.377 
  1430.81,900.061 1431.83,899.966 1432.86,900.095 1433.88,900.444 1434.91,901.002 1435.94,901.761 1436.96,902.72 1437.99,903.891 1439.01,905.277 1440.04,906.875 
  1441.06,908.683 1442.09,910.689 1443.11,912.88 1444.14,915.259 1445.17,917.839 1446.19,920.628 1447.22,923.648 1448.24,926.938 1449.27,930.55 1450.29,934.523 
  1451.32,938.85 1452.34,943.494 1453.37,948.415 1454.4,953.558 1455.42,958.889 1456.45,964.412 1457.47,970.158 1458.5,976.173 1459.52,982.492 1460.55,989.113 
  1461.57,996.038 1462.6,1003.3 1463.63,1010.94 1464.65,1019.05 1465.68,1027.72 1466.7,1037.03 1467.73,1047 1468.75,1057.66 1469.78,1069.03 1470.8,1081.12 
  1471.83,1094.04 1472.86,1107.86 1473.88,1122.64 1474.91,1138.39 1475.93,1155.01 1476.96,1172.28 1477.98,1189.87 1479.01,1207.49 1480.03,1224.84 1481.06,1241.42 
  1482.09,1256.55 1483.11,1269.47 1484.14,1279.25 1485.16,1285.11 1486.19,1286.38 1487.21,1282.62 1488.24,1274 1489.26,1261.56 1490.29,1246.72 1491.32,1230.8 
  1492.34,1214.67 1493.37,1198.59 1494.39,1182.52 1495.42,1166.3 1496.44,1149.84 1497.47,1133.21 1498.49,1116.65 1499.52,1100.39 1500.55,1084.66 1501.57,1069.61 
  1502.6,1055.26 1503.62,1041.55 1504.65,1028.43 1505.67,1015.83 1506.7,1003.73 1507.72,992.105 1508.75,980.953 1509.78,970.26 1510.8,960.038 1511.83,950.273 
  1512.85,940.92 1513.88,931.928 1514.9,923.262 1515.93,914.919 1516.95,906.93 1517.98,899.327 1519.01,892.116 1520.03,885.267 1521.06,878.724 1522.08,872.433 
  1523.11,866.367 1524.13,860.524 1525.16,854.908 1526.18,849.521 1527.21,844.356 1528.24,839.399 1529.26,834.645 1530.29,830.096 1531.31,825.751 1532.34,821.607 
  1533.36,817.656 1534.39,813.889 1535.41,810.302 1536.44,806.894 1537.47,803.659 1538.49,800.594 1539.52,797.702 1540.54,794.986 1541.57,792.449 1542.59,790.092 
  1543.62,787.909 1544.64,785.891 1545.67,784.02 1546.7,782.28 1547.72,780.662 1548.75,779.17 1549.77,777.814 1550.8,776.604 1551.82,775.547 1552.85,774.646 
  1553.87,773.89 1554.9,773.259 1555.93,772.737 1556.95,772.316 1557.98,772.004 1559,771.821 1560.03,771.791 1561.05,771.93 1562.08,772.239 1563.1,772.711 
  1564.13,773.338 1565.16,774.118 1566.18,775.056 1567.21,776.154 1568.23,777.413 1569.26,778.834 1570.28,780.417 1571.31,782.165 1572.33,784.076 1573.36,786.15 
  1574.39,788.382 1575.41,790.769 1576.44,793.31 1577.46,796 1578.49,798.834 1579.51,801.819 1580.54,804.962 1581.56,808.27 1582.59,811.751 1583.62,815.407 
  1584.64,819.238 1585.67,823.248 1586.69,827.447 1587.72,831.84 1588.74,836.423 1589.77,841.194 1590.79,846.158 1591.82,851.331 1592.85,856.729 1593.87,862.356 
  1594.9,868.198 1595.92,874.243 1596.95,880.505 1597.97,887.025 1599,893.855 1600.02,901.034 1601.05,908.577 1602.08,916.463 1603.1,924.655 1604.13,933.136 
  1605.15,941.942 1606.18,951.141 1607.2,960.802 1608.23,970.979 1609.25,981.709 1610.28,993.033 1611.31,1004.98 1612.33,1017.58 1613.36,1030.89 1614.38,1044.94 
  1615.41,1059.79 1616.43,1075.54 1617.46,1092.29 1618.48,1110.12 1619.51,1129.02 1620.54,1148.99 1621.56,1169.96 1622.59,1191.87 1623.61,1214.57 1624.64,1237.8 
  1625.66,1261.31 1626.69,1284.75 1627.72,1307.22 1628.74,1327.28 1629.77,1342.68 1630.79,1350.31 1631.82,1348.34 1632.84,1337.88 1633.87,1321.79 1634.89,1302.9 
  1635.92,1283.07 1636.95,1263.13 1637.97,1243.15 1639,1223.08 1640.02,1203.09 1641.05,1183.37 1642.07,1164.16 1643.1,1145.75 1644.12,1128.31 1645.15,1111.92 
  1646.18,1096.44 1647.2,1081.72 1648.23,1067.65 1649.25,1054.14 1650.28,1041.16 1651.3,1028.73 1652.33,1016.89 1653.35,1005.66 1654.38,995.08 1655.41,985.122 
  1656.43,975.729 1657.46,966.837 1658.48,958.383 1659.51,950.318 1660.53,942.633 1661.56,935.338 1662.58,928.418 1663.61,921.864 1664.64,915.671 1665.66,909.838 
  1666.69,904.353 1667.71,899.192 1668.74,894.33 1669.76,889.73 1670.79,885.35 1671.81,881.143 1672.84,877.084 1673.87,873.176 1674.89,869.458 1675.92,865.966 
  1676.94,862.711 1677.97,859.686 1678.99,856.862 1680.02,854.198 1681.04,851.666 1682.07,849.254 1683.1,846.973 1684.12,844.844 1685.15,842.888 1686.17,841.12 
  1687.2,839.547 1688.22,838.167 1689.25,836.969 1690.27,835.941 1691.3,835.076 1692.33,834.37 1693.35,833.823 1694.38,833.435 1695.4,833.211 1696.43,833.163 
  1697.45,833.302 1698.48,833.636 1699.5,834.168 1700.53,834.881 1701.56,835.756 1702.58,836.787 1703.61,837.981 1704.63,839.342 1705.66,840.872 1706.68,842.568 
  1707.71,844.427 1708.73,846.454 1709.76,848.658 1710.79,851.046 1711.81,853.616 1712.84,856.366 1713.86,859.295 1714.89,862.401 1715.91,865.678 1716.94,869.122 
  1717.96,872.739 1718.99,876.545 1720.02,880.564 1721.04,884.826 1722.07,889.354 1723.09,894.151 1724.12,899.216 1725.14,904.548 1726.17,910.137 1727.19,915.985 
  1728.22,922.121 1729.25,928.588 1730.27,935.418 1731.3,942.594 1732.32,950.073 1733.35,957.828 1734.37,965.888 1735.4,974.323 1736.42,983.221 1737.45,992.66 
  1738.48,1002.67 1739.5,1013.24 1740.53,1024.33 1741.55,1035.91 1742.58,1047.9 1743.6,1060.27 1744.63,1073 1745.65,1086.06 1746.68,1099.36 1747.71,1112.76 
  1748.73,1126.1 1749.76,1139.22 1750.78,1151.99 1751.81,1164.18 1752.83,1175.38 1753.86,1184.99 1754.88,1192.31 1755.91,1196.78 1756.94,1198.07 1757.96,1196.03 
  1758.99,1190.79 1760.01,1182.7 1761.04,1172.32 1762.06,1160.24 1763.09,1147.01 1764.11,1133.03 1765.14,1118.61 1766.17,1103.96 1767.19,1089.25 1768.22,1074.62 
  1769.24,1060.2 1770.27,1046.13 1771.29,1032.54 1772.32,1019.52 1773.34,1007.1 1774.37,995.232 1775.4,983.811 1776.42,972.737 1777.45,961.984 1778.47,951.576 
  1779.5,941.535 1780.52,931.856 1781.55,922.493 1782.57,913.399 1783.6,904.557 1784.63,895.966 1785.65,887.637 1786.68,879.567 1787.7,871.737 1788.73,864.119 
  1789.75,856.714 1790.78,849.544 1791.8,842.637 1792.83,836.003 1793.86,829.63 1794.88,823.498 1795.91,817.595 1796.93,811.918 1797.96,806.471 1798.98,801.256 
  1800.01,796.269 1801.03,791.504 1802.06,786.949 1803.09,782.588 1804.11,778.405 1805.14,774.385 1806.16,770.522 1807.19,766.815 1808.21,763.262 1809.24,759.863 
  1810.26,756.625 1811.29,753.553 1812.32,750.646 1813.34,747.895 1814.37,745.289 1815.39,742.822 1816.42,740.498 1817.44,738.323 1818.47,736.301 1819.49,734.433 
  1820.52,732.718 1821.55,731.152 1822.57,729.733 1823.6,728.453 1824.62,727.307 1825.65,726.29 1826.67,725.403 1827.7,724.653 1828.72,724.052 1829.75,723.611 
  1830.78,723.338 1831.8,723.232 1832.83,723.289 1833.85,723.505 1834.88,723.868 1835.9,724.369 1836.93,725.001 1837.96,725.76 1838.98,726.647 1840.01,727.67 
  1841.03,728.837 1842.06,730.152 1843.08,731.619 1844.11,733.243 1845.13,735.032 1846.16,736.996 1847.19,739.145 1848.21,741.484 1849.24,744.015 1850.26,746.738 
  1851.29,749.654 1852.31,752.767 1853.34,756.084 1854.36,759.613 1855.39,763.36 1856.42,767.331 1857.44,771.524 1858.47,775.933 1859.49,780.548 1860.52,785.362 
  1861.54,790.374 1862.57,795.596 1863.59,801.046 1864.62,806.743 1865.65,812.705 1866.67,818.939 1867.7,825.454 1868.72,832.256 1869.75,839.358 1870.77,846.771 
  1871.8,854.501 1872.82,862.544 1873.85,870.895 1874.88,879.55 1875.9,888.494 1876.93,897.704 1877.95,907.157 1878.98,916.831 1880,926.698 1881.03,936.732 
  1882.05,946.885 1883.08,957.09 1884.11,967.251 1885.13,977.234 1886.16,986.885 1887.18,996.052 1888.21,1004.59 1889.23,1012.36 1890.26,1019.24 1891.28,1025.11 
  1892.31,1029.82 1893.34,1033.22 1894.36,1035.13 1895.39,1035.42 1896.41,1034.01 1897.44,1030.99 1898.46,1026.49 1899.49,1020.65 1900.51,1013.66 1901.54,1005.7 
  1902.57,996.994 1903.59,987.781 1904.62,978.269 1905.64,968.624 1906.67,958.929 1907.69,949.236 1908.72,939.581 1909.74,929.975 1910.77,920.439 1911.8,911.012 
  1912.82,901.752 1913.85,892.724 1914.87,883.978 1915.9,875.53 1916.92,867.382 1917.95,859.511 1918.97,851.874 1920,844.433 1921.03,837.175 1922.05,830.108 
  1923.08,823.245 1924.1,816.594 1925.13,810.166 1926.15,803.959 1927.18,797.973 1928.2,792.207 1929.23,786.661 1930.26,781.331 1931.28,776.217 1932.31,771.317 
  1933.33,766.625 1934.36,762.131 1935.38,757.826 1936.41,753.702 1937.43,749.753 1938.46,745.976 1939.49,742.373 1940.51,738.944 1941.54,735.683 1942.56,732.584 
  1943.59,729.645 1944.61,726.866 1945.64,724.251 1946.66,721.803 1947.69,719.52 1948.72,717.398 1949.74,715.433 1950.77,713.617 1951.79,711.943 1952.82,710.406 
  1953.84,709 1954.87,707.726 1955.89,706.592 1956.92,705.611 1957.95,704.796 1958.97,704.151 1960,703.672 1961.02,703.354 1962.05,703.191 1963.07,703.184 
  1964.1,703.334 1965.12,703.646 1966.15,704.123 1967.18,704.769 1968.2,705.587 1969.23,706.58 1970.25,707.749 1971.28,709.097 1972.3,710.628 1973.33,712.345 
  1974.35,714.249 1975.38,716.339 1976.41,718.61 1977.43,721.056 1978.46,723.678 1979.48,726.476 1980.51,729.451 1981.53,732.61 1982.56,735.964 1983.58,739.524 
  1984.61,743.301 1985.64,747.303 1986.66,751.524 1987.69,755.95 1988.71,760.567 1989.74,765.373 1990.76,770.371 1991.79,775.569 1992.81,780.975 1993.84,786.598 
  1994.87,792.448 1995.89,798.536 1996.92,804.876 1997.94,811.473 1998.97,818.32 1999.99,825.39 2001.02,832.641 2002.04,840.047 2003.07,847.607 2004.1,855.338 
  2005.12,863.246 2006.15,871.302 2007.17,879.433 2008.2,887.534 2009.22,895.498 2010.25,903.214 2011.27,910.564 2012.3,917.417 2013.33,923.61 2014.35,928.978 
  2015.38,933.37 2016.4,936.668 2017.43,938.789 2018.45,939.684 2019.48,939.329 2020.5,937.72 2021.53,934.894 2022.56,930.947 2023.58,926.023 2024.61,920.287 
  2025.63,913.905 2026.66,907.014 2027.68,899.719 2028.71,892.132 2029.73,884.373 2030.76,876.559 2031.79,868.799 2032.81,861.179 2033.84,853.739 2034.86,846.486 
  2035.89,839.415 2036.91,832.511 2037.94,825.773 2038.97,819.205 2039.99,812.806 2041.02,806.569 2042.04,800.484 2043.07,794.545 2044.09,788.758 2045.12,783.137 
  2046.14,777.691 2047.17,772.42 2048.2,767.311 2049.22,762.348 2050.25,757.52 2051.27,752.815 2052.3,748.222 2053.32,743.724 2054.35,739.307 2055.37,734.964 
  2056.4,730.691 2057.43,726.493 2058.45,722.374 2059.48,718.337 2060.5,714.384 2061.53,710.518 2062.55,706.749 2063.58,703.088 2064.6,699.54 2065.63,696.108 
  2066.66,692.79 2067.68,689.579 2068.71,686.47 2069.73,683.464 2070.76,680.56 2071.78,677.762 2072.81,675.074 2073.83,672.497 2074.86,670.031 2075.89,667.677 
  2076.91,665.436 2077.94,663.312 2078.96,661.308 2079.99,659.428 2081.01,657.667 2082.04,656.027 2083.06,654.508 2084.09,653.117 2085.12,651.859 2086.14,650.736 
  2087.17,649.748 2088.19,648.897 2089.22,648.182 2090.24,647.601 2091.27,647.155 2092.29,646.842 2093.32,646.665 2094.35,646.627 2095.37,646.735 2096.4,646.995 
  2097.42,647.414 2098.45,648 2099.47,648.76 2100.5,649.704 2101.52,650.844 2102.55,652.192 2103.58,653.762 2104.6,655.564 2105.63,657.607 2106.65,659.894 
  2107.68,662.432 2108.7,665.222 2109.73,668.27 2110.75,671.579 2111.78,675.151 2112.81,678.98 2113.83,683.066 2114.86,687.411 2115.88,692.025 2116.91,696.921 
  2117.93,702.111 2118.96,707.607 2119.98,713.427 2121.01,719.584 2122.04,726.095 2123.06,732.971 2124.09,740.227 2125.11,747.87 2126.14,755.916 2127.16,764.392 
  2128.19,773.341 2129.21,782.816 2130.24,792.871 2131.27,803.555 2132.29,814.905 2133.32,826.953 2134.34,839.722 2135.37,853.244 2136.39,867.551 2137.42,882.679 
  2138.44,898.668 2139.47,915.56 2140.5,933.376 2141.52,952.088 2142.55,971.59 2143.57,991.642 2144.6,1011.83 2145.62,1031.51 2146.65,1049.78 2147.67,1065.36 
  2148.7,1076.75 2149.73,1082.48 2150.75,1081.63 2151.78,1074.17 2152.8,1061 2153.83,1043.56 2154.85,1023.41 2155.88,1001.83 2156.9,979.778 2157.93,957.915 
  2158.96,936.671 2159.98,916.302 2161.01,896.931 2162.03,878.581 2163.06,861.212 2164.08,844.755 2165.11,829.14 2166.13,814.307 2167.16,800.202 2168.19,786.779 
  2169.21,774.004 2170.24,761.851 2171.26,750.296 2172.29,739.319 2173.31,728.887 2174.34,718.965 2175.36,709.52 2176.39,700.517 2177.42,691.927 2178.44,683.726 
  2179.47,675.89 2180.49,668.39 2181.52,661.201 2182.54,654.298 2183.57,647.657 2184.59,641.261 2185.62,635.095 2186.65,629.144 2187.67,623.395 2188.7,617.835 
  2189.72,612.454 2190.75,607.24 2191.77,602.186 2192.8,597.282 2193.82,592.521 2194.85,587.898 2195.88,583.416 2196.9,579.075 2197.93,574.877 2198.95,570.821 
  2199.98,566.902 2201,563.113 2202.03,559.453 2203.05,555.916 2204.08,552.503 2205.11,549.211 2206.13,546.039 2207.16,542.984 2208.18,540.048 2209.21,537.23 
  2210.23,534.535 2211.26,531.963 2212.28,529.518 2213.31,527.198 2214.34,525.002 2215.36,522.93 2216.39,520.981 2217.41,519.155 2218.44,517.452 2219.46,515.872 
  2220.49,514.415 2221.51,513.081 2222.54,511.87 2223.57,510.782 2224.59,509.82 2225.62,508.984 2226.64,508.281 2227.67,507.713 2228.69,507.288 2229.72,507.013 
  2230.74,506.896 2231.77,506.943 2232.8,507.16 2233.82,507.55 2234.85,508.114 2235.87,508.856 2236.9,509.776 2237.92,510.876 2238.95,512.162 2239.97,513.635 
  2241,515.296 2242.03,517.146 2243.05,519.186 2244.08,521.418 2245.1,523.844 2246.13,526.469 2247.15,529.296 2248.18,532.329 2249.21,535.571 2250.23,539.025 
  2251.26,542.696 2252.28,546.591 2253.31,550.719 2254.33,555.088 2255.36,559.707 2256.38,564.586 2257.41,569.736 2258.44,575.166 2259.46,580.889 2260.49,586.911 
  2261.51,593.24 2262.54,599.88 2263.56,606.84 2264.59,614.127 2265.61,621.756 2266.64,629.744 2267.67,638.11 2268.69,646.873 2269.72,656.05 2270.74,665.655 
  2271.77,675.703 2272.79,686.209 2273.82,697.185 2274.84,708.631 2275.87,720.544 2276.9,732.914 2277.92,745.728 2278.95,758.977 2279.97,772.651 2281,786.732 
  2282.02,801.201 2283.05,816.026 2284.07,831.151 2285.1,846.481 2286.13,861.884 2287.15,877.183 2288.18,892.149 2289.2,906.477 2290.23,919.76 2291.25,931.475 
  
  "/>
<path clip-path="url(#clip970)" d="
M1987.85 216.178 L2280.32 216.178 L2280.32 95.2176 L1987.85 95.2176  Z
  " fill="#ffffff" fill-rule="evenodd" fill-opacity="1"/>
<polyline clip-path="url(#clip970)" style="stroke:#000000; stroke-width:4; stroke-opacity:1; fill:none" points="
  1987.85,216.178 2280.32,216.178 2280.32,95.2176 1987.85,95.2176 1987.85,216.178 
  "/>
<polyline clip-path="url(#clip970)" style="stroke:#009af9; stroke-width:4; stroke-opacity:1; fill:none" points="
  2011.99,155.698 2156.86,155.698 
  "/>
<path clip-path="url(#clip970)" d="M 0 0 M2194.85 175.385 Q2193.05 180.015 2191.33 181.427 Q2189.62 182.839 2186.75 182.839 L2183.35 182.839 L2183.35 179.274 L2185.85 179.274 Q2187.61 179.274 2188.58 178.44 Q2189.55 177.607 2190.73 174.505 L2191.5 172.561 L2181.01 147.052 L2185.52 147.052 L2193.63 167.329 L2201.73 147.052 L2206.24 147.052 L2194.85 175.385 Z" fill="#000000" fill-rule="evenodd" fill-opacity="1" /><path clip-path="url(#clip970)" d="M 0 0 M2212.12 169.042 L2219.76 169.042 L2219.76 142.677 L2211.45 144.343 L2211.45 140.084 L2219.71 138.418 L2224.39 138.418 L2224.39 169.042 L2232.03 169.042 L2232.03 172.978 L2212.12 172.978 L2212.12 169.042 Z" fill="#000000" fill-rule="evenodd" fill-opacity="1" /></svg>
