<?xml version="1.0" encoding="utf-8"?>
<svg xmlns="http://www.w3.org/2000/svg" xmlns:xlink="http://www.w3.org/1999/xlink" width="600" height="400" viewBox="0 0 2400 1600">
<defs>
  <clipPath id="clip6200">
    <rect x="0" y="0" width="2400" height="1600"/>
  </clipPath>
</defs>
<path clip-path="url(#clip6200)" d="
M0 1600 L2400 1600 L2400 0 L0 0  Z
  " fill="#ffffff" fill-rule="evenodd" fill-opacity="1"/>
<defs>
  <clipPath id="clip6201">
    <rect x="480" y="0" width="1681" height="1600"/>
  </clipPath>
</defs>
<path clip-path="url(#clip6200)" d="
M162.455 1486.45 L2352.76 1486.45 L2352.76 47.2441 L162.455 47.2441  Z
  " fill="#ffffff" fill-rule="evenodd" fill-opacity="1"/>
<defs>
  <clipPath id="clip6202">
    <rect x="162" y="47" width="2191" height="1440"/>
  </clipPath>
</defs>
<polyline clip-path="url(#clip6202)" style="stroke:#000000; stroke-width:2; stroke-opacity:0.1; fill:none" points="
  223.411,1486.45 223.411,47.2441 
  "/>
<polyline clip-path="url(#clip6202)" style="stroke:#000000; stroke-width:2; stroke-opacity:0.1; fill:none" points="
  740.25,1486.45 740.25,47.2441 
  "/>
<polyline clip-path="url(#clip6202)" style="stroke:#000000; stroke-width:2; stroke-opacity:0.1; fill:none" points="
  1257.09,1486.45 1257.09,47.2441 
  "/>
<polyline clip-path="url(#clip6202)" style="stroke:#000000; stroke-width:2; stroke-opacity:0.1; fill:none" points="
  1773.93,1486.45 1773.93,47.2441 
  "/>
<polyline clip-path="url(#clip6202)" style="stroke:#000000; stroke-width:2; stroke-opacity:0.1; fill:none" points="
  2290.77,1486.45 2290.77,47.2441 
  "/>
<polyline clip-path="url(#clip6202)" style="stroke:#000000; stroke-width:2; stroke-opacity:0.1; fill:none" points="
  162.455,1331.1 2352.76,1331.1 
  "/>
<polyline clip-path="url(#clip6202)" style="stroke:#000000; stroke-width:2; stroke-opacity:0.1; fill:none" points="
  162.455,998.222 2352.76,998.222 
  "/>
<polyline clip-path="url(#clip6202)" style="stroke:#000000; stroke-width:2; stroke-opacity:0.1; fill:none" points="
  162.455,665.34 2352.76,665.34 
  "/>
<polyline clip-path="url(#clip6202)" style="stroke:#000000; stroke-width:2; stroke-opacity:0.1; fill:none" points="
  162.455,332.458 2352.76,332.458 
  "/>
<polyline clip-path="url(#clip6200)" style="stroke:#000000; stroke-width:4; stroke-opacity:1; fill:none" points="
  162.455,1486.45 2352.76,1486.45 
  "/>
<polyline clip-path="url(#clip6200)" style="stroke:#000000; stroke-width:4; stroke-opacity:1; fill:none" points="
  162.455,1486.45 162.455,47.2441 
  "/>
<polyline clip-path="url(#clip6200)" style="stroke:#000000; stroke-width:4; stroke-opacity:1; fill:none" points="
  223.411,1486.45 223.411,1469.18 
  "/>
<polyline clip-path="url(#clip6200)" style="stroke:#000000; stroke-width:4; stroke-opacity:1; fill:none" points="
  740.25,1486.45 740.25,1469.18 
  "/>
<polyline clip-path="url(#clip6200)" style="stroke:#000000; stroke-width:4; stroke-opacity:1; fill:none" points="
  1257.09,1486.45 1257.09,1469.18 
  "/>
<polyline clip-path="url(#clip6200)" style="stroke:#000000; stroke-width:4; stroke-opacity:1; fill:none" points="
  1773.93,1486.45 1773.93,1469.18 
  "/>
<polyline clip-path="url(#clip6200)" style="stroke:#000000; stroke-width:4; stroke-opacity:1; fill:none" points="
  2290.77,1486.45 2290.77,1469.18 
  "/>
<polyline clip-path="url(#clip6200)" style="stroke:#000000; stroke-width:4; stroke-opacity:1; fill:none" points="
  162.455,1331.1 188.738,1331.1 
  "/>
<polyline clip-path="url(#clip6200)" style="stroke:#000000; stroke-width:4; stroke-opacity:1; fill:none" points="
  162.455,998.222 188.738,998.222 
  "/>
<polyline clip-path="url(#clip6200)" style="stroke:#000000; stroke-width:4; stroke-opacity:1; fill:none" points="
  162.455,665.34 188.738,665.34 
  "/>
<polyline clip-path="url(#clip6200)" style="stroke:#000000; stroke-width:4; stroke-opacity:1; fill:none" points="
  162.455,332.458 188.738,332.458 
  "/>
<path clip-path="url(#clip6200)" d="M 0 0 M223.411 1508.44 Q219.8 1508.44 217.971 1512 Q216.165 1515.55 216.165 1522.67 Q216.165 1529.78 217.971 1533.35 Q219.8 1536.89 223.411 1536.89 Q227.045 1536.89 228.85 1533.35 Q230.679 1529.78 230.679 1522.67 Q230.679 1515.55 228.85 1512 Q227.045 1508.44 223.411 1508.44 M223.411 1504.73 Q229.221 1504.73 232.276 1509.34 Q235.355 1513.92 235.355 1522.67 Q235.355 1531.4 232.276 1536.01 Q229.221 1540.59 223.411 1540.59 Q217.601 1540.59 214.522 1536.01 Q211.466 1531.4 211.466 1522.67 Q211.466 1513.92 214.522 1509.34 Q217.601 1504.73 223.411 1504.73 Z" fill="#000000" fill-rule="evenodd" fill-opacity="1" /><path clip-path="url(#clip6200)" d="M 0 0 M717.125 1535.98 L724.764 1535.98 L724.764 1509.62 L716.453 1511.29 L716.453 1507.03 L724.717 1505.36 L729.393 1505.36 L729.393 1535.98 L737.032 1535.98 L737.032 1539.92 L717.125 1539.92 L717.125 1535.98 Z" fill="#000000" fill-rule="evenodd" fill-opacity="1" /><path clip-path="url(#clip6200)" d="M 0 0 M752.101 1508.44 Q748.49 1508.44 746.662 1512 Q744.856 1515.55 744.856 1522.67 Q744.856 1529.78 746.662 1533.35 Q748.49 1536.89 752.101 1536.89 Q755.736 1536.89 757.541 1533.35 Q759.37 1529.78 759.37 1522.67 Q759.37 1515.55 757.541 1512 Q755.736 1508.44 752.101 1508.44 M752.101 1504.73 Q757.912 1504.73 760.967 1509.34 Q764.046 1513.92 764.046 1522.67 Q764.046 1531.4 760.967 1536.01 Q757.912 1540.59 752.101 1540.59 Q746.291 1540.59 743.213 1536.01 Q740.157 1531.4 740.157 1522.67 Q740.157 1513.92 743.213 1509.34 Q746.291 1504.73 752.101 1504.73 Z" fill="#000000" fill-rule="evenodd" fill-opacity="1" /><path clip-path="url(#clip6200)" d="M 0 0 M1238.23 1535.98 L1254.55 1535.98 L1254.55 1539.92 L1232.61 1539.92 L1232.61 1535.98 Q1235.27 1533.23 1239.85 1528.6 Q1244.46 1523.95 1245.64 1522.61 Q1247.89 1520.08 1248.77 1518.35 Q1249.67 1516.59 1249.67 1514.9 Q1249.67 1512.14 1247.73 1510.41 Q1245.8 1508.67 1242.7 1508.67 Q1240.5 1508.67 1238.05 1509.43 Q1235.62 1510.2 1232.84 1511.75 L1232.84 1507.03 Q1235.66 1505.89 1238.12 1505.31 Q1240.57 1504.73 1242.61 1504.73 Q1247.98 1504.73 1251.17 1507.42 Q1254.37 1510.11 1254.37 1514.6 Q1254.37 1516.73 1253.56 1518.65 Q1252.77 1520.54 1250.66 1523.14 Q1250.09 1523.81 1246.98 1527.03 Q1243.88 1530.22 1238.23 1535.98 Z" fill="#000000" fill-rule="evenodd" fill-opacity="1" /><path clip-path="url(#clip6200)" d="M 0 0 M1269.62 1508.44 Q1266.01 1508.44 1264.18 1512 Q1262.38 1515.55 1262.38 1522.67 Q1262.38 1529.78 1264.18 1533.35 Q1266.01 1536.89 1269.62 1536.89 Q1273.26 1536.89 1275.06 1533.35 Q1276.89 1529.78 1276.89 1522.67 Q1276.89 1515.55 1275.06 1512 Q1273.26 1508.44 1269.62 1508.44 M1269.62 1504.73 Q1275.43 1504.73 1278.49 1509.34 Q1281.57 1513.92 1281.57 1522.67 Q1281.57 1531.4 1278.49 1536.01 Q1275.43 1540.59 1269.62 1540.59 Q1263.81 1540.59 1260.73 1536.01 Q1257.68 1531.4 1257.68 1522.67 Q1257.68 1513.92 1260.73 1509.34 Q1263.81 1504.73 1269.62 1504.73 Z" fill="#000000" fill-rule="evenodd" fill-opacity="1" /><path clip-path="url(#clip6200)" d="M 0 0 M1764.67 1521.29 Q1768.02 1522 1769.9 1524.27 Q1771.8 1526.54 1771.8 1529.87 Q1771.8 1534.99 1768.28 1537.79 Q1764.76 1540.59 1758.28 1540.59 Q1756.1 1540.59 1753.79 1540.15 Q1751.5 1539.73 1749.04 1538.88 L1749.04 1534.36 Q1750.99 1535.5 1753.3 1536.08 Q1755.62 1536.66 1758.14 1536.66 Q1762.54 1536.66 1764.83 1534.92 Q1767.14 1533.18 1767.14 1529.87 Q1767.14 1526.82 1764.99 1525.11 Q1762.86 1523.37 1759.04 1523.37 L1755.02 1523.37 L1755.02 1519.53 L1759.23 1519.53 Q1762.68 1519.53 1764.51 1518.16 Q1766.33 1516.77 1766.33 1514.18 Q1766.33 1511.52 1764.44 1510.11 Q1762.56 1508.67 1759.04 1508.67 Q1757.12 1508.67 1754.92 1509.09 Q1752.72 1509.5 1750.08 1510.38 L1750.08 1506.22 Q1752.75 1505.48 1755.06 1505.11 Q1757.4 1504.73 1759.46 1504.73 Q1764.78 1504.73 1767.89 1507.17 Q1770.99 1509.57 1770.99 1513.69 Q1770.99 1516.56 1769.34 1518.55 Q1767.7 1520.52 1764.67 1521.29 Z" fill="#000000" fill-rule="evenodd" fill-opacity="1" /><path clip-path="url(#clip6200)" d="M 0 0 M1786.87 1508.44 Q1783.26 1508.44 1781.43 1512 Q1779.62 1515.55 1779.62 1522.67 Q1779.62 1529.78 1781.43 1533.35 Q1783.26 1536.89 1786.87 1536.89 Q1790.5 1536.89 1792.31 1533.35 Q1794.14 1529.78 1794.14 1522.67 Q1794.14 1515.55 1792.31 1512 Q1790.5 1508.44 1786.87 1508.44 M1786.87 1504.73 Q1792.68 1504.73 1795.73 1509.34 Q1798.81 1513.92 1798.81 1522.67 Q1798.81 1531.4 1795.73 1536.01 Q1792.68 1540.59 1786.87 1540.59 Q1781.06 1540.59 1777.98 1536.01 Q1774.92 1531.4 1774.92 1522.67 Q1774.92 1513.92 1777.98 1509.34 Q1781.06 1504.73 1786.87 1504.73 Z" fill="#000000" fill-rule="evenodd" fill-opacity="1" /><path clip-path="url(#clip6200)" d="M 0 0 M2280.27 1509.43 L2268.46 1527.88 L2280.27 1527.88 L2280.27 1509.43 M2279.04 1505.36 L2284.92 1505.36 L2284.92 1527.88 L2289.85 1527.88 L2289.85 1531.77 L2284.92 1531.77 L2284.92 1539.92 L2280.27 1539.92 L2280.27 1531.77 L2264.67 1531.77 L2264.67 1527.26 L2279.04 1505.36 Z" fill="#000000" fill-rule="evenodd" fill-opacity="1" /><path clip-path="url(#clip6200)" d="M 0 0 M2304.92 1508.44 Q2301.31 1508.44 2299.48 1512 Q2297.68 1515.55 2297.68 1522.67 Q2297.68 1529.78 2299.48 1533.35 Q2301.31 1536.89 2304.92 1536.89 Q2308.56 1536.89 2310.36 1533.35 Q2312.19 1529.78 2312.19 1522.67 Q2312.19 1515.55 2310.36 1512 Q2308.56 1508.44 2304.92 1508.44 M2304.92 1504.73 Q2310.73 1504.73 2313.79 1509.34 Q2316.87 1513.92 2316.87 1522.67 Q2316.87 1531.4 2313.79 1536.01 Q2310.73 1540.59 2304.92 1540.59 Q2299.11 1540.59 2296.03 1536.01 Q2292.98 1531.4 2292.98 1522.67 Q2292.98 1513.92 2296.03 1509.34 Q2299.11 1504.73 2304.92 1504.73 Z" fill="#000000" fill-rule="evenodd" fill-opacity="1" /><path clip-path="url(#clip6200)" d="M 0 0 M63.8949 1333.5 L76.3717 1333.5 L76.3717 1337.3 L63.8949 1337.3 L63.8949 1333.5 Z" fill="#000000" fill-rule="evenodd" fill-opacity="1" /><path clip-path="url(#clip6200)" d="M 0 0 M80.2606 1313.82 L102.483 1313.82 L102.483 1315.81 L89.9364 1348.38 L85.0522 1348.38 L96.8577 1317.76 L80.2606 1317.76 L80.2606 1313.82 Z" fill="#000000" fill-rule="evenodd" fill-opacity="1" /><path clip-path="url(#clip6200)" d="M 0 0 M107.552 1342.5 L112.436 1342.5 L112.436 1348.38 L107.552 1348.38 L107.552 1342.5 Z" fill="#000000" fill-rule="evenodd" fill-opacity="1" /><path clip-path="url(#clip6200)" d="M 0 0 M117.552 1313.82 L135.908 1313.82 L135.908 1317.76 L121.834 1317.76 L121.834 1326.23 Q122.853 1325.88 123.871 1325.72 Q124.89 1325.54 125.908 1325.54 Q131.695 1325.54 135.075 1328.71 Q138.455 1331.88 138.455 1337.3 Q138.455 1342.87 134.982 1345.98 Q131.51 1349.05 125.191 1349.05 Q123.015 1349.05 120.746 1348.68 Q118.501 1348.31 116.094 1347.57 L116.094 1342.87 Q118.177 1344.01 120.399 1344.56 Q122.621 1345.12 125.098 1345.12 Q129.103 1345.12 131.441 1343.01 Q133.779 1340.91 133.779 1337.3 Q133.779 1333.68 131.441 1331.58 Q129.103 1329.47 125.098 1329.47 Q123.223 1329.47 121.348 1329.89 Q119.496 1330.3 117.552 1331.18 L117.552 1313.82 Z" fill="#000000" fill-rule="evenodd" fill-opacity="1" /><path clip-path="url(#clip6200)" d="M 0 0 M62.9921 1000.62 L75.4689 1000.62 L75.4689 1004.41 L62.9921 1004.41 L62.9921 1000.62 Z" fill="#000000" fill-rule="evenodd" fill-opacity="1" /><path clip-path="url(#clip6200)" d="M 0 0 M80.5846 980.942 L98.941 980.942 L98.941 984.877 L84.867 984.877 L84.867 993.349 Q85.8855 993.002 86.904 992.84 Q87.9225 992.655 88.9411 992.655 Q94.7281 992.655 98.1077 995.826 Q101.487 998.997 101.487 1004.41 Q101.487 1009.99 98.0151 1013.09 Q94.5429 1016.17 88.2235 1016.17 Q86.0476 1016.17 83.7791 1015.8 Q81.5337 1015.43 79.1263 1014.69 L79.1263 1009.99 Q81.2096 1011.13 83.4318 1011.68 Q85.654 1012.24 88.1309 1012.24 Q92.1355 1012.24 94.4734 1010.13 Q96.8114 1008.02 96.8114 1004.41 Q96.8114 1000.8 94.4734 998.696 Q92.1355 996.59 88.1309 996.59 Q86.2559 996.59 84.3809 997.006 Q82.5291 997.423 80.5846 998.303 L80.5846 980.942 Z" fill="#000000" fill-rule="evenodd" fill-opacity="1" /><path clip-path="url(#clip6200)" d="M 0 0 M106.557 1009.62 L111.441 1009.62 L111.441 1015.5 L106.557 1015.5 L106.557 1009.62 Z" fill="#000000" fill-rule="evenodd" fill-opacity="1" /><path clip-path="url(#clip6200)" d="M 0 0 M126.51 984.02 Q122.899 984.02 121.071 987.585 Q119.265 991.127 119.265 998.256 Q119.265 1005.36 121.071 1008.93 Q122.899 1012.47 126.51 1012.47 Q130.145 1012.47 131.95 1008.93 Q133.779 1005.36 133.779 998.256 Q133.779 991.127 131.95 987.585 Q130.145 984.02 126.51 984.02 M126.51 980.317 Q132.32 980.317 135.376 984.923 Q138.455 989.506 138.455 998.256 Q138.455 1006.98 135.376 1011.59 Q132.32 1016.17 126.51 1016.17 Q120.7 1016.17 117.621 1011.59 Q114.566 1006.98 114.566 998.256 Q114.566 989.506 117.621 984.923 Q120.7 980.317 126.51 980.317 Z" fill="#000000" fill-rule="evenodd" fill-opacity="1" /><path clip-path="url(#clip6200)" d="M 0 0 M64.5893 667.736 L77.0661 667.736 L77.0661 671.532 L64.5893 671.532 L64.5893 667.736 Z" fill="#000000" fill-rule="evenodd" fill-opacity="1" /><path clip-path="url(#clip6200)" d="M 0 0 M86.1633 678.685 L102.483 678.685 L102.483 682.62 L80.5383 682.62 L80.5383 678.685 Q83.2004 675.93 87.7837 671.3 Q92.3901 666.648 93.5707 665.305 Q95.816 662.782 96.6956 661.046 Q97.5984 659.287 97.5984 657.597 Q97.5984 654.842 95.654 653.106 Q93.7327 651.37 90.6309 651.37 Q88.4318 651.37 85.9781 652.134 Q83.5476 652.898 80.7698 654.449 L80.7698 649.726 Q83.5939 648.592 86.0476 648.014 Q88.5012 647.435 90.5383 647.435 Q95.9086 647.435 99.103 650.12 Q102.297 652.805 102.297 657.296 Q102.297 659.426 101.487 661.347 Q100.7 663.245 98.5938 665.838 Q98.0151 666.509 94.9133 669.726 Q91.8114 672.921 86.1633 678.685 Z" fill="#000000" fill-rule="evenodd" fill-opacity="1" /><path clip-path="url(#clip6200)" d="M 0 0 M107.552 676.74 L112.436 676.74 L112.436 682.62 L107.552 682.62 L107.552 676.74 Z" fill="#000000" fill-rule="evenodd" fill-opacity="1" /><path clip-path="url(#clip6200)" d="M 0 0 M117.552 648.06 L135.908 648.06 L135.908 651.995 L121.834 651.995 L121.834 660.467 Q122.853 660.12 123.871 659.958 Q124.89 659.773 125.908 659.773 Q131.695 659.773 135.075 662.944 Q138.455 666.115 138.455 671.532 Q138.455 677.111 134.982 680.212 Q131.51 683.291 125.191 683.291 Q123.015 683.291 120.746 682.921 Q118.501 682.55 116.094 681.81 L116.094 677.111 Q118.177 678.245 120.399 678.8 Q122.621 679.356 125.098 679.356 Q129.103 679.356 131.441 677.249 Q133.779 675.143 133.779 671.532 Q133.779 667.921 131.441 665.814 Q129.103 663.708 125.098 663.708 Q123.223 663.708 121.348 664.125 Q119.496 664.541 117.552 665.421 L117.552 648.06 Z" fill="#000000" fill-rule="evenodd" fill-opacity="1" /><path clip-path="url(#clip6200)" d="M 0 0 M89.5429 318.257 Q85.9318 318.257 84.1031 321.821 Q82.2976 325.363 82.2976 332.493 Q82.2976 339.599 84.1031 343.164 Q85.9318 346.706 89.5429 346.706 Q93.1771 346.706 94.9827 343.164 Q96.8114 339.599 96.8114 332.493 Q96.8114 325.363 94.9827 321.821 Q93.1771 318.257 89.5429 318.257 M89.5429 314.553 Q95.3531 314.553 98.4086 319.159 Q101.487 323.743 101.487 332.493 Q101.487 341.219 98.4086 345.826 Q95.3531 350.409 89.5429 350.409 Q83.7328 350.409 80.6541 345.826 Q77.5985 341.219 77.5985 332.493 Q77.5985 323.743 80.6541 319.159 Q83.7328 314.553 89.5429 314.553 Z" fill="#000000" fill-rule="evenodd" fill-opacity="1" /><path clip-path="url(#clip6200)" d="M 0 0 M106.557 343.858 L111.441 343.858 L111.441 349.738 L106.557 349.738 L106.557 343.858 Z" fill="#000000" fill-rule="evenodd" fill-opacity="1" /><path clip-path="url(#clip6200)" d="M 0 0 M126.51 318.257 Q122.899 318.257 121.071 321.821 Q119.265 325.363 119.265 332.493 Q119.265 339.599 121.071 343.164 Q122.899 346.706 126.51 346.706 Q130.145 346.706 131.95 343.164 Q133.779 339.599 133.779 332.493 Q133.779 325.363 131.95 321.821 Q130.145 318.257 126.51 318.257 M126.51 314.553 Q132.32 314.553 135.376 319.159 Q138.455 323.743 138.455 332.493 Q138.455 341.219 135.376 345.826 Q132.32 350.409 126.51 350.409 Q120.7 350.409 117.621 345.826 Q114.566 341.219 114.566 332.493 Q114.566 323.743 117.621 319.159 Q120.7 314.553 126.51 314.553 Z" fill="#000000" fill-rule="evenodd" fill-opacity="1" /><polyline clip-path="url(#clip6202)" style="stroke:#009af9; stroke-width:4; stroke-opacity:1; fill:none" points="
  224.444,87.9763 225.478,88.1751 226.512,88.5065 227.545,88.9709 228.579,89.5687 229.613,90.3002 230.646,91.1661 231.68,92.167 232.714,93.3039 233.747,94.5777 
  234.781,95.9893 235.815,97.5402 236.848,99.2314 237.882,101.065 238.916,103.041 239.95,105.163 240.983,107.432 242.017,109.85 243.051,112.42 244.084,115.144 
  245.118,118.024 246.152,121.064 247.185,124.266 248.219,127.634 249.253,131.171 250.286,134.881 251.32,138.767 252.354,142.835 253.387,147.089 254.421,151.533 
  255.455,156.174 256.488,161.018 257.522,166.07 258.556,171.337 259.589,176.826 260.623,182.546 261.657,188.505 262.69,194.711 263.724,201.177 264.758,207.911 
  265.791,214.927 266.825,222.236 267.859,229.855 268.892,237.797 269.926,246.08 270.96,254.723 271.994,263.745 273.027,273.172 274.061,283.027 275.095,293.341 
  276.128,304.145 277.162,315.476 278.196,327.375 279.229,339.888 280.263,353.07 281.297,366.981 282.33,381.694 283.364,397.292 284.398,413.874 285.431,431.558 
  286.465,450.484 287.499,470.825 288.532,492.793 289.566,516.655 290.6,542.75 291.633,571.521 292.667,603.561 293.701,639.689 294.734,681.071 295.768,729.447 
  296.802,787.537 297.835,859.814 298.869,953.639 299.903,1075.42 300.936,1159.79 301.97,1068.44 303.004,951.692 304.038,863.072 305.071,795.319 306.105,741.329 
  307.139,696.802 308.172,659.109 309.206,626.564 310.24,598.03 311.273,572.712 312.307,550.033 313.341,529.562 314.374,510.968 315.408,493.993 316.442,478.427 
  317.475,464.102 318.509,450.877 319.543,438.639 320.576,427.289 321.61,416.748 322.644,406.944 323.677,397.817 324.711,389.316 325.745,381.394 326.778,374.011 
  327.812,367.133 328.846,360.729 329.879,354.771 330.913,349.235 331.947,344.097 332.981,339.339 334.014,334.943 335.048,330.893 336.082,327.175 337.115,323.777 
  338.149,320.688 339.183,317.896 340.216,315.392 341.25,313.168 342.284,311.216 343.317,309.528 344.351,308.098 345.385,306.922 346.418,305.994 347.452,305.311 
  348.486,304.866 349.519,304.657 350.553,304.681 351.587,304.934 352.62,305.415 353.654,306.122 354.688,307.055 355.721,308.213 356.755,309.598 357.789,311.209 
  358.822,313.047 359.856,315.113 360.89,317.408 361.923,319.935 362.957,322.696 363.991,325.693 365.025,328.93 366.058,332.41 367.092,336.138 368.126,340.117 
  369.159,344.354 370.193,348.854 371.227,353.623 372.26,358.668 373.294,363.998 374.328,369.621 375.361,375.548 376.395,381.788 377.429,388.353 378.462,395.257 
  379.496,402.514 380.53,410.14 381.563,418.154 382.597,426.576 383.631,435.43 384.664,444.742 385.698,454.539 386.732,464.852 387.765,475.716 388.799,487.169 
  389.833,499.255 390.866,512.024 391.9,525.536 392.934,539.858 393.967,555.072 395.001,571.27 396.035,588.567 397.069,607.105 398.102,627.055 399.136,648.629 
  400.17,672.092 401.203,697.781 402.237,726.133 403.271,757.725 404.304,793.35 405.338,834.133 406.372,881.724 407.405,938.657 408.439,1008.98 409.473,1098.96 
  410.506,1212.68 411.54,1294.51 412.574,1220.66 413.607,1109.41 414.641,1021.69 415.675,953.946 416.708,899.799 417.742,855.105 418.776,817.27 419.809,784.598 
  420.843,755.949 421.877,730.533 422.91,707.784 423.944,687.28 424.978,668.69 426.012,651.752 427.045,636.253 428.079,622.019 429.113,608.907 430.146,596.798 
  431.18,585.596 432.214,575.221 433.247,565.604 434.281,556.683 435.315,548.405 436.348,540.721 437.382,533.586 438.416,526.963 439.449,520.818 440.483,515.123 
  441.517,509.857 442.55,505.003 443.584,500.546 444.618,496.469 445.651,492.756 446.685,489.388 447.719,486.349 448.752,483.626 449.786,481.205 450.82,479.079 
  451.853,477.24 452.887,475.684 453.921,474.406 454.954,473.399 455.988,472.658 457.022,472.177 458.056,471.952 459.089,471.977 460.123,472.247 461.157,472.757 
  462.19,473.503 463.224,474.484 464.258,475.698 465.291,477.145 466.325,478.826 467.359,480.739 468.392,482.881 469.426,485.25 470.46,487.847 471.493,490.673 
  472.527,493.732 473.561,497.029 474.594,500.568 475.628,504.352 476.662,508.383 477.695,512.662 478.729,517.193 479.763,521.978 480.796,527.02 481.83,532.321 
  482.864,537.886 483.897,543.719 484.931,549.829 485.965,556.222 486.999,562.91 488.032,569.903 489.066,577.213 490.1,584.858 491.133,592.855 492.167,601.225 
  493.201,609.992 494.234,619.179 495.268,628.809 496.302,638.908 497.335,649.5 498.369,660.611 499.403,672.272 500.436,684.516 501.47,697.388 502.504,710.941 
  503.537,725.235 504.571,740.345 505.605,756.354 506.638,773.342 507.672,791.393 508.706,810.612 509.739,831.132 510.773,853.127 511.807,876.812 512.84,902.458 
  513.874,930.405 514.908,961.091 515.941,995.092 516.975,1033.15 518.009,1076.27 519.043,1125.77 520.076,1183.41 521.11,1250.71 522.144,1325.41 523.177,1387.21 
  524.211,1388.93 525.245,1330.44 526.278,1259.3 527.312,1195.96 528.346,1142.67 529.379,1097.86 530.413,1059.75 531.447,1026.9 532.48,998.27 533.514,973.085 
  534.548,950.769 535.581,930.842 536.615,912.911 537.649,896.665 538.682,881.871 539.716,868.361 540.75,856.018 541.783,844.747 542.817,834.464 543.851,825.089 
  544.884,816.534 545.918,808.716 546.952,801.568 547.985,795.019 549.019,789.008 550.053,783.49 551.087,778.438 552.12,773.827 553.154,769.629 554.188,765.805 
  555.221,762.326 556.255,759.175 557.289,756.355 558.322,753.875 559.356,751.743 560.39,749.961 561.423,748.525 562.457,747.42 563.491,746.629 564.524,746.13 
  565.558,745.907 566.592,745.951 567.625,746.254 568.659,746.809 569.693,747.608 570.726,748.644 571.76,749.908 572.794,751.4 573.827,753.126 574.861,755.083 
  575.895,757.267 576.928,759.667 577.962,762.269 578.996,765.063 580.03,768.042 581.063,771.199 582.097,774.535 583.131,778.054 584.164,781.767 585.198,785.677 
  586.232,789.781 587.265,794.066 588.299,798.513 589.333,803.111 590.366,807.849 591.4,812.715 592.434,817.697 593.467,822.793 594.501,828.006 595.535,833.347 
  596.568,838.829 597.602,844.474 598.636,850.289 599.669,856.269 600.703,862.402 601.737,868.678 602.77,875.091 603.804,881.644 604.838,888.342 605.871,895.194 
  606.905,902.197 607.939,909.354 608.972,916.688 610.006,924.22 611.04,931.935 612.074,939.796 613.107,947.741 614.141,955.697 615.175,963.625 616.208,971.542 
  617.242,979.489 618.276,987.5 619.309,995.583 620.343,1003.7 621.377,1011.83 622.41,1019.98 623.444,1028.11 624.478,1036.24 625.511,1044.37 626.545,1052.54 
  627.579,1060.75 628.612,1068.97 629.646,1077.18 630.68,1085.46 631.713,1093.88 632.747,1102.45 633.781,1111.09 634.814,1119.53 635.848,1127.38 636.882,1134.3 
  637.915,1140.27 638.949,1145.62 639.983,1150.69 641.016,1155.67 642.05,1160.62 643.084,1165.52 644.118,1170.18 645.151,1174.34 646.185,1177.94 647.219,1181.07 
  648.252,1183.72 649.286,1186.09 650.32,1188.5 651.353,1191.19 652.387,1194.14 653.421,1197.25 654.454,1200.37 655.488,1203.4 656.522,1206.33 657.555,1209.45 
  658.589,1213.19 659.623,1217.99 660.656,1224.34 661.69,1232.57 662.724,1242.51 663.757,1253.76 664.791,1265.93 665.825,1278.58 666.858,1291.16 667.892,1303.13 
  668.926,1314.38 669.959,1325.15 670.993,1335.49 672.027,1345.01 673.061,1353.61 674.094,1361.6 675.128,1369.88 676.162,1379.87 677.195,1392.54 678.229,1407.75 
  679.263,1424.14 680.296,1438.34 681.33,1445.72 682.364,1443.69 683.397,1434.38 684.431,1422.66 685.465,1413.05 686.498,1407.22 687.532,1404.36 688.566,1403.35 
  689.599,1402.94 690.633,1401.72 691.667,1398.94 692.7,1394.56 693.734,1388.72 694.768,1382.1 695.801,1375.47 696.835,1369.04 697.869,1362.28 698.902,1354.4 
  699.936,1344.59 700.97,1332.62 702.003,1318.84 703.037,1303.88 704.071,1288.46 705.105,1273.4 706.138,1259.22 707.172,1246.16 708.206,1234.22 709.239,1223.13 
  710.273,1212.47 711.307,1202.06 712.34,1191.89 713.374,1181.95 714.408,1172.21 715.441,1162.65 716.475,1153.24 717.509,1144.01 718.542,1134.93 719.576,1125.96 
  720.61,1117.05 721.643,1108.19 722.677,1099.49 723.711,1091.06 724.744,1083.03 725.778,1075.45 726.812,1068.27 727.845,1061.45 728.879,1054.94 729.913,1048.71 
  730.946,1042.71 731.98,1036.89 733.014,1031.21 734.047,1025.69 735.081,1020.39 736.115,1015.32 737.149,1010.41 738.182,1005.59 739.216,1000.78 740.25,995.977 
  741.283,991.232 742.317,986.677 743.351,982.433 744.384,978.561 745.418,975.061 746.452,971.881 747.485,968.946 748.519,966.205 749.553,963.62 750.586,961.167 
  751.62,958.863 752.654,956.739 753.687,954.812 754.721,953.099 755.755,951.615 756.788,950.363 757.822,949.31 758.856,948.413 759.889,947.653 760.923,947.021 
  761.957,946.507 762.99,946.104 764.024,945.831 765.058,945.707 766.092,945.726 767.125,945.873 768.159,946.159 769.193,946.64 770.226,947.401 771.26,948.512 
  772.294,950.012 773.327,951.88 774.361,954.054 775.395,956.458 776.428,959.077 777.462,961.943 778.496,965.071 779.529,968.466 780.563,972.143 781.597,976.094 
  782.63,980.276 783.664,984.684 784.698,989.364 785.731,994.382 786.765,999.778 787.799,1005.57 788.832,1011.73 789.866,1018.22 790.9,1024.95 791.933,1031.88 
  792.967,1039.06 794.001,1046.54 795.034,1054.26 796.068,1062.07 797.102,1069.83 798.136,1077.44 799.169,1084.92 800.203,1092.37 801.237,1099.85 802.27,1107.37 
  803.304,1114.89 804.338,1122.32 805.371,1129.5 806.405,1136.3 807.439,1142.65 808.472,1148.52 809.506,1153.87 810.54,1158.67 811.573,1162.83 812.607,1166.17 
  813.641,1168.47 814.674,1169.66 815.708,1169.73 816.742,1168.67 817.775,1166.45 818.809,1163.01 819.843,1158.37 820.876,1152.56 821.91,1145.67 822.944,1137.93 
  823.977,1129.6 825.011,1120.99 826.045,1112.52 827.078,1104.5 828.112,1097.05 829.146,1090.1 830.18,1083.5 831.213,1077.2 832.247,1071.25 833.281,1065.69 
  834.314,1060.5 835.348,1055.6 836.382,1050.84 837.415,1046.14 838.449,1041.48 839.483,1036.9 840.516,1032.49 841.55,1028.29 842.584,1024.26 843.617,1020.35 
  844.651,1016.52 845.685,1012.76 846.718,1009.06 847.752,1005.43 848.786,1001.86 849.819,998.36 850.853,994.912 851.887,991.512 852.92,988.171 853.954,984.927 
  854.988,981.832 856.021,978.905 857.055,976.169 858.089,973.665 859.123,971.421 860.156,969.457 861.19,967.795 862.224,966.455 863.257,965.417 864.291,964.631 
  865.325,964.045 866.358,963.611 867.392,963.286 868.426,963.033 869.459,962.818 870.493,962.627 871.527,962.465 872.56,962.335 873.594,962.244 874.628,962.232 
  875.661,962.367 876.695,962.712 877.729,963.327 878.762,964.248 879.796,965.469 880.83,966.945 881.863,968.625 882.897,970.454 883.931,972.379 884.964,974.371 
  885.998,976.418 887.032,978.518 888.065,980.676 889.099,982.908 890.133,985.241 891.167,987.699 892.2,990.311 893.234,993.092 894.268,996.025 895.301,999.069 
  896.335,1002.19 897.369,1005.39 898.402,1008.7 899.436,1012.21 900.47,1016 901.503,1020.12 902.537,1024.58 903.571,1029.35 904.604,1034.41 905.638,1039.77 
  906.672,1045.43 907.705,1051.4 908.739,1057.67 909.773,1064.24 910.806,1071.05 911.84,1078.02 912.874,1085.1 913.907,1092.25 914.941,1099.47 915.975,1106.72 
  917.008,1113.97 918.042,1121.22 919.076,1128.47 920.109,1135.68 921.143,1142.79 922.177,1149.73 923.211,1156.5 924.244,1163.32 925.278,1170.33 926.312,1177.66 
  927.345,1185.27 928.379,1193.07 929.413,1200.95 930.446,1208.86 931.48,1216.74 932.514,1224.31 933.547,1231.12 934.581,1236.84 935.615,1241.53 936.648,1245.47 
  937.682,1248.9 938.716,1251.93 939.749,1254.68 940.783,1257.28 941.817,1259.86 942.85,1262.51 943.884,1265.2 944.918,1267.68 945.951,1269.55 946.985,1270.36 
  948.019,1269.91 949.052,1268.4 950.086,1266.33 951.12,1264.4 952.154,1263.46 953.187,1264.01 954.221,1266.15 955.255,1269.55 956.288,1273.31 957.322,1276.44 
  958.356,1277.98 959.389,1277.35 960.423,1274.45 961.457,1269.5 962.49,1262.99 963.524,1255.53 964.558,1247.58 965.591,1239.34 966.625,1230.96 967.659,1222.6 
  968.692,1214.53 969.726,1206.94 970.76,1199.84 971.793,1193.05 972.827,1186.4 973.861,1179.76 974.894,1173.09 975.928,1166.37 976.962,1159.71 977.995,1153.25 
  979.029,1147.15 980.063,1141.57 981.096,1136.53 982.13,1131.95 983.164,1127.72 984.198,1123.77 985.231,1120.08 986.265,1116.65 987.299,1113.44 988.332,1110.39 
  989.366,1107.42 990.4,1104.52 991.433,1101.7 992.467,1098.99 993.501,1096.39 994.534,1093.88 995.568,1091.49 996.602,1089.26 997.635,1087.09 998.669,1084.85 
  999.703,1082.31 1000.74,1079.34 1001.77,1075.86 1002.8,1071.98 1003.84,1067.96 1004.87,1064.1 1005.9,1060.67 1006.94,1057.8 1007.97,1055.52 1009.01,1053.73 
  1010.04,1052.33 1011.07,1051.32 1012.11,1050.78 1013.14,1050.75 1014.17,1051.17 1015.21,1051.99 1016.24,1053.21 1017.28,1054.89 1018.31,1057.04 1019.34,1059.56 
  1020.38,1062.26 1021.41,1065.06 1022.44,1067.91 1023.48,1070.77 1024.51,1073.47 1025.54,1075.69 1026.58,1077.21 1027.61,1078.14 1028.65,1078.9 1029.68,1079.93 
  1030.71,1081.53 1031.75,1083.59 1032.78,1085.86 1033.81,1088.11 1034.85,1090.22 1035.88,1092.16 1036.92,1093.97 1037.95,1095.78 1038.98,1097.76 1040.02,1100.02 
  1041.05,1102.54 1042.08,1105.11 1043.12,1107.59 1044.15,1109.99 1045.18,1112.36 1046.22,1114.79 1047.25,1117.4 1048.29,1120.35 1049.32,1123.74 1050.35,1127.51 
  1051.39,1131.56 1052.42,1135.82 1053.45,1140.27 1054.49,1144.94 1055.52,1149.84 1056.55,1154.96 1057.59,1160.27 1058.62,1165.74 1059.66,1171.28 1060.69,1176.68 
  1061.72,1181.69 1062.76,1186.16 1063.79,1190.06 1064.82,1193.41 1065.86,1196.33 1066.89,1199.05 1067.93,1201.81 1068.96,1204.83 1069.99,1208.21 1071.03,1211.94 
  1072.06,1215.79 1073.09,1219.51 1074.13,1222.99 1075.16,1226.33 1076.19,1229.74 1077.23,1233.43 1078.26,1237.54 1079.3,1242.14 1080.33,1246.97 1081.36,1251.59 
  1082.4,1255.26 1083.43,1257.1 1084.46,1256.44 1085.5,1253.19 1086.53,1248.17 1087.57,1242.87 1088.6,1238.5 1089.63,1235.52 1090.67,1233.71 1091.7,1232.31 
  1092.73,1230.48 1093.77,1227.64 1094.8,1223.68 1095.83,1218.62 1096.87,1212.46 1097.9,1205.28 1098.94,1197.42 1099.97,1189.31 1101,1181.36 1102.04,1173.72 
  1103.07,1166.33 1104.1,1159.1 1105.14,1152.06 1106.17,1145.21 1107.21,1138.51 1108.24,1131.91 1109.27,1125.3 1110.31,1118.61 1111.34,1111.79 1112.37,1104.9 
  1113.41,1097.99 1114.44,1091.2 1115.47,1084.63 1116.51,1078.32 1117.54,1072.28 1118.58,1066.47 1119.61,1060.79 1120.64,1055.17 1121.68,1049.59 1122.71,1044.09 
  1123.74,1038.71 1124.78,1033.51 1125.81,1028.53 1126.85,1023.78 1127.88,1019.34 1128.91,1015.26 1129.95,1011.56 1130.98,1008.16 1132.01,1004.94 1133.05,1001.78 
  1134.08,998.586 1135.11,995.378 1136.15,992.239 1137.18,989.221 1138.22,986.348 1139.25,983.632 1140.28,981.071 1141.32,978.662 1142.35,976.388 1143.38,974.232 
  1144.42,972.177 1145.45,970.232 1146.48,968.441 1147.52,966.876 1148.55,965.583 1149.59,964.605 1150.62,963.991 1151.65,963.762 1152.69,963.872 1153.72,964.215 
  1154.75,964.662 1155.79,965.121 1156.82,965.561 1157.86,966 1158.89,966.479 1159.92,967.036 1160.96,967.702 1161.99,968.511 1163.02,969.51 1164.06,970.735 
  1165.09,972.198 1166.12,973.891 1167.16,975.805 1168.19,977.905 1169.23,980.148 1170.26,982.524 1171.29,985.059 1172.33,987.806 1173.36,990.841 1174.39,994.195 
  1175.43,997.835 1176.46,1001.71 1177.5,1005.8 1178.53,1010.09 1179.56,1014.59 1180.6,1019.3 1181.63,1024.25 1182.66,1029.46 1183.7,1034.99 1184.73,1040.84 
  1185.76,1046.97 1186.8,1053.34 1187.83,1059.89 1188.87,1066.61 1189.9,1073.5 1190.93,1080.6 1191.97,1088.01 1193,1095.77 1194.03,1103.9 1195.07,1112.39 
  1196.1,1121.32 1197.14,1130.83 1198.17,1141.08 1199.2,1152.14 1200.24,1164 1201.27,1176.55 1202.3,1189.5 1203.34,1202.31 1204.37,1214.28 1205.4,1224.71 
  1206.44,1233.24 1207.47,1239.86 1208.51,1244.87 1209.54,1248.3 1210.57,1249.86 1211.61,1249.41 1212.64,1247.39 1213.67,1244.46 1214.71,1241.14 1215.74,1237.75 
  1216.78,1234.51 1217.81,1231.51 1218.84,1228.69 1219.88,1225.77 1220.91,1222.09 1221.94,1216.86 1222.98,1209.57 1224.01,1200.36 1225.04,1189.81 1226.08,1178.61 
  1227.11,1167.31 1228.15,1156.18 1229.18,1145.28 1230.21,1134.63 1231.25,1124.22 1232.28,1114.04 1233.31,1104.12 1234.35,1094.48 1235.38,1085.16 1236.41,1076.25 
  1237.45,1067.75 1238.48,1059.63 1239.52,1051.85 1240.55,1044.36 1241.58,1037.08 1242.62,1029.99 1243.65,1023.06 1244.68,1016.31 1245.72,1009.76 1246.75,1003.46 
  1247.79,997.523 1248.82,992.059 1249.85,987.095 1250.89,982.596 1251.92,978.497 1252.95,974.706 1253.99,971.141 1255.02,967.775 1256.05,964.602 1257.09,961.621 
  1258.12,958.815 1259.16,956.175 1260.19,953.707 1261.22,951.434 1262.26,949.368 1263.29,947.483 1264.32,945.725 1265.36,944.066 1266.39,942.512 1267.43,941.08 
  1268.46,939.779 1269.49,938.618 1270.53,937.597 1271.56,936.73 1272.59,936.041 1273.63,935.56 1274.66,935.31 1275.69,935.31 1276.73,935.555 1277.76,936.028 
  1278.8,936.699 1279.83,937.515 1280.86,938.445 1281.9,939.499 1282.93,940.697 1283.96,942.062 1285,943.619 1286.03,945.38 1287.07,947.35 1288.1,949.542 
  1289.13,951.955 1290.17,954.553 1291.2,957.304 1292.23,960.201 1293.27,963.226 1294.3,966.323 1295.33,969.413 1296.37,972.422 1297.4,975.316 1298.44,978.134 
  1299.47,980.974 1300.5,983.919 1301.54,987.017 1302.57,990.302 1303.6,993.82 1304.64,997.585 1305.67,1001.57 1306.7,1005.75 1307.74,1010.09 1308.77,1014.54 
  1309.81,1019.03 1310.84,1023.53 1311.87,1028.01 1312.91,1032.45 1313.94,1036.83 1314.97,1041.16 1316.01,1045.53 1317.04,1050.12 1318.08,1055.11 1319.11,1060.57 
  1320.14,1066.44 1321.18,1072.55 1322.21,1078.68 1323.24,1084.75 1324.28,1090.81 1325.31,1096.99 1326.34,1103.41 1327.38,1110.15 1328.41,1117.14 1329.45,1124.23 
  1330.48,1131.29 1331.51,1138.23 1332.55,1145 1333.58,1151.51 1334.61,1157.67 1335.65,1163.39 1336.68,1168.66 1337.72,1173.58 1338.75,1178.35 1339.78,1183.2 
  1340.82,1188.33 1341.85,1193.91 1342.88,1200.07 1343.92,1206.9 1344.95,1214.23 1345.98,1221.72 1347.02,1228.84 1348.05,1235.17 1349.09,1240.37 1350.12,1244.15 
  1351.15,1246.3 1352.19,1246.67 1353.22,1245.4 1354.25,1242.97 1355.29,1240 1356.32,1236.83 1357.36,1233.66 1358.39,1230.62 1359.42,1227.71 1360.46,1224.94 
  1361.49,1222.49 1362.52,1220.68 1363.56,1219.8 1364.59,1219.96 1365.62,1221.11 1366.66,1222.91 1367.69,1224.88 1368.73,1226.61 1369.76,1227.86 1370.79,1228.4 
  1371.83,1228.14 1372.86,1227.16 1373.89,1225.67 1374.93,1223.81 1375.96,1221.54 1377,1218.78 1378.03,1215.41 1379.06,1211.44 1380.1,1206.89 1381.13,1201.77 
  1382.16,1195.99 1383.2,1189.71 1384.23,1183.44 1385.26,1177.64 1386.3,1172.49 1387.33,1168.02 1388.37,1164.04 1389.4,1160.25 1390.43,1156.38 1391.47,1152.45 
  1392.5,1148.49 1393.53,1144.45 1394.57,1140.23 1395.6,1135.84 1396.63,1131.38 1397.67,1126.95 1398.7,1122.63 1399.74,1118.4 1400.77,1114.2 1401.8,1110.02 
  1402.84,1105.85 1403.87,1101.72 1404.9,1097.69 1405.94,1093.8 1406.97,1090.09 1408.01,1086.51 1409.04,1083.01 1410.07,1079.56 1411.11,1076.13 1412.14,1072.65 
  1413.17,1069.06 1414.21,1065.31 1415.24,1061.44 1416.27,1057.62 1417.31,1054.02 1418.34,1050.83 1419.38,1048 1420.41,1045.36 1421.44,1042.61 1422.48,1039.57 
  1423.51,1036.26 1424.54,1032.85 1425.58,1029.5 1426.61,1026.31 1427.65,1023.26 1428.68,1020.32 1429.71,1017.48 1430.75,1014.72 1431.78,1012 1432.81,1009.28 
  1433.85,1006.49 1434.88,1003.61 1435.91,1000.62 1436.95,997.557 1437.98,994.515 1439.02,991.629 1440.05,989.034 1441.08,986.814 1442.12,984.965 1443.15,983.42 
  1444.18,982.086 1445.22,980.885 1446.25,979.769 1447.29,978.698 1448.32,977.621 1449.35,976.488 1450.39,975.284 1451.42,974.035 1452.45,972.787 1453.49,971.577 
  1454.52,970.421 1455.55,969.316 1456.59,968.264 1457.62,967.288 1458.66,966.425 1459.69,965.698 1460.72,965.097 1461.76,964.617 1462.79,964.254 1463.82,963.996 
  1464.86,963.832 1465.89,963.786 1466.93,963.927 1467.96,964.307 1468.99,964.947 1470.03,965.827 1471.06,966.898 1472.09,968.103 1473.13,969.401 1474.16,970.781 
  1475.19,972.251 1476.23,973.827 1477.26,975.557 1478.3,977.518 1479.33,979.76 1480.36,982.271 1481.4,984.993 1482.43,987.85 1483.46,990.773 1484.5,993.745 
  1485.53,996.794 1486.56,999.934 1487.6,1003.15 1488.63,1006.46 1489.67,1009.87 1490.7,1013.4 1491.73,1017.04 1492.77,1020.78 1493.8,1024.58 1494.83,1028.42 
  1495.87,1032.33 1496.9,1036.35 1497.94,1040.51 1498.97,1044.8 1500,1049.17 1501.04,1053.46 1502.07,1057.5 1503.1,1061.18 1504.14,1064.46 1505.17,1067.37 
  1506.2,1070.01 1507.24,1072.44 1508.27,1074.76 1509.31,1076.97 1510.34,1078.98 1511.37,1080.65 1512.41,1081.84 1513.44,1082.49 1514.47,1082.73 1515.51,1082.76 
  1516.54,1082.71 1517.58,1082.64 1518.61,1082.31 1519.64,1081.42 1520.68,1079.78 1521.71,1077.36 1522.74,1074.3 1523.78,1070.78 1524.81,1067.01 1525.84,1063.15 
  1526.88,1059.3 1527.91,1055.5 1528.95,1051.68 1529.98,1047.72 1531.01,1043.55 1532.05,1039.14 1533.08,1034.54 1534.11,1029.85 1535.15,1025.19 1536.18,1020.64 
  1537.22,1016.22 1538.25,1011.9 1539.28,1007.6 1540.32,1003.27 1541.35,998.887 1542.38,994.431 1543.42,989.947 1544.45,985.501 1545.48,981.165 1546.52,976.992 
  1547.55,973.031 1548.59,969.3 1549.62,965.777 1550.65,962.444 1551.69,959.287 1552.72,956.274 1553.75,953.391 1554.79,950.634 1555.82,947.998 1556.86,945.468 
  1557.89,943.016 1558.92,940.631 1559.96,938.322 1560.99,936.131 1562.02,934.125 1563.06,932.373 1564.09,930.914 1565.12,929.736 1566.16,928.763 1567.19,927.893 
  1568.23,927.081 1569.26,926.346 1570.29,925.761 1571.33,925.392 1572.36,925.246 1573.39,925.253 1574.43,925.333 1575.46,925.452 1576.49,925.635 1577.53,925.927 
  1578.56,926.348 1579.6,926.887 1580.63,927.523 1581.66,928.264 1582.7,929.159 1583.73,930.275 1584.76,931.659 1585.8,933.328 1586.83,935.266 1587.87,937.448 
  1588.9,939.875 1589.93,942.555 1590.97,945.479 1592,948.636 1593.03,952.022 1594.07,955.641 1595.1,959.522 1596.13,963.712 1597.17,968.236 1598.2,973.086 
  1599.24,978.23 1600.27,983.646 1601.3,989.344 1602.34,995.374 1603.37,1001.78 1604.4,1008.6 1605.44,1015.88 1606.47,1023.65 1607.51,1031.9 1608.54,1040.61 
  1609.57,1049.73 1610.61,1059.19 1611.64,1068.91 1612.67,1078.85 1613.71,1089 1614.74,1099.42 1615.77,1110.22 1616.81,1121.5 1617.84,1133.31 1618.88,1145.63 
  1619.91,1158.47 1620.94,1171.83 1621.98,1185.69 1623.01,1199.99 1624.04,1214.71 1625.08,1229.83 1626.11,1245.25 1627.15,1260.72 1628.18,1275.81 1629.21,1289.79 
  1630.25,1301.54 1631.28,1309.64 1632.31,1312.97 1633.35,1311.46 1634.38,1306.02 1635.41,1297.85 1636.45,1287.71 1637.48,1275.6 1638.52,1261.6 1639.55,1246.11 
  1640.58,1229.8 1641.62,1213.41 1642.65,1197.41 1643.68,1182.02 1644.72,1167.2 1645.75,1152.88 1646.78,1139.03 1647.82,1125.55 1648.85,1112.4 1649.89,1099.6 
  1650.92,1087.23 1651.95,1075.45 1652.99,1064.37 1654.02,1054.1 1655.05,1044.62 1656.09,1035.78 1657.12,1027.38 1658.16,1019.27 1659.19,1011.42 1660.22,1003.85 
  1661.26,996.591 1662.29,989.655 1663.32,983.03 1664.36,976.667 1665.39,970.494 1666.42,964.482 1667.46,958.659 1668.49,953.061 1669.53,947.742 1670.56,942.788 
  1671.59,938.292 1672.63,934.285 1673.66,930.73 1674.69,927.552 1675.73,924.674 1676.76,922.02 1677.8,919.547 1678.83,917.239 1679.86,915.072 1680.9,913.02 
  1681.93,911.069 1682.96,909.209 1684,907.45 1685.03,905.811 1686.06,904.307 1687.1,902.94 1688.13,901.716 1689.17,900.634 1690.2,899.694 1691.23,898.891 
  1692.27,898.2 1693.3,897.608 1694.33,897.115 1695.37,896.737 1696.4,896.482 1697.44,896.352 1698.47,896.356 1699.5,896.513 1700.54,896.849 1701.57,897.392 
  1702.6,898.161 1703.64,899.155 1704.67,900.346 1705.7,901.696 1706.74,903.185 1707.77,904.805 1708.81,906.554 1709.84,908.425 1710.87,910.416 1711.91,912.521 
  1712.94,914.744 1713.97,917.092 1715.01,919.571 1716.04,922.186 1717.08,924.936 1718.11,927.815 1719.14,930.835 1720.18,934.036 1721.21,937.475 1722.24,941.202 
  1723.28,945.22 1724.31,949.498 1725.34,953.978 1726.38,958.596 1727.41,963.312 1728.45,968.118 1729.48,973.027 1730.51,978.045 1731.55,983.171 1732.58,988.374 
  1733.61,993.611 1734.65,998.845 1735.68,1004.06 1736.71,1009.28 1737.75,1014.61 1738.78,1020.16 1739.82,1026.05 1740.85,1032.38 1741.88,1039.16 1742.92,1046.31 
  1743.95,1053.74 1744.98,1061.32 1746.02,1069 1747.05,1076.84 1748.09,1084.96 1749.12,1093.47 1750.15,1102.36 1751.19,1111.56 1752.22,1120.99 1753.25,1130.58 
  1754.29,1140.29 1755.32,1150.12 1756.35,1160.06 1757.39,1170.11 1758.42,1180.19 1759.46,1190.06 1760.49,1199.28 1761.52,1207.3 1762.56,1213.72 1763.59,1218.32 
  1764.62,1220.99 1765.66,1221.73 1766.69,1220.59 1767.73,1217.61 1768.76,1212.93 1769.79,1206.75 1770.83,1199.32 1771.86,1190.92 1772.89,1181.89 1773.93,1172.58 
  1774.96,1163.37 1775.99,1154.52 1777.03,1146.15 1778.06,1138.23 1779.1,1130.65 1780.13,1123.4 1781.16,1116.55 1782.2,1110.09 1783.23,1103.98 1784.26,1098.21 
  1785.3,1092.75 1786.33,1087.46 1787.37,1082.21 1788.4,1076.92 1789.43,1071.55 1790.47,1066.08 1791.5,1060.54 1792.53,1054.95 1793.57,1049.34 1794.6,1043.76 
  1795.63,1038.27 1796.67,1032.95 1797.7,1027.84 1798.74,1022.97 1799.77,1018.3 1800.8,1013.78 1801.84,1009.35 1802.87,1005.03 1803.9,1000.89 1804.94,996.993 
  1805.97,993.362 1807.01,990.005 1808.04,986.891 1809.07,983.958 1810.11,981.162 1811.14,978.492 1812.17,975.94 1813.21,973.507 1814.24,971.183 1815.27,968.935 
  1816.31,966.725 1817.34,964.537 1818.38,962.383 1819.41,960.299 1820.44,958.343 1821.48,956.578 1822.51,955.052 1823.54,953.791 1824.58,952.786 1825.61,952.012 
  1826.64,951.446 1827.68,951.079 1828.71,950.915 1829.75,950.96 1830.78,951.208 1831.81,951.64 1832.85,952.234 1833.88,952.98 1834.91,953.888 1835.95,954.981 
  1836.98,956.265 1838.02,957.717 1839.05,959.283 1840.08,960.897 1841.12,962.523 1842.15,964.187 1843.18,965.952 1844.22,967.868 1845.25,969.978 1846.28,972.308 
  1847.32,974.849 1848.35,977.603 1849.39,980.552 1850.42,983.665 1851.45,986.916 1852.49,990.318 1853.52,993.904 1854.55,997.718 1855.59,1001.8 1856.62,1006.2 
  1857.66,1010.95 1858.69,1016.03 1859.72,1021.39 1860.76,1026.98 1861.79,1032.77 1862.82,1038.79 1863.86,1045.03 1864.89,1051.47 1865.92,1058.03 1866.96,1064.66 
  1867.99,1071.33 1869.03,1078.17 1870.06,1085.35 1871.09,1093.1 1872.13,1101.55 1873.16,1110.78 1874.19,1120.73 1875.23,1131.28 1876.26,1142.35 1877.3,1153.96 
  1878.33,1166.11 1879.36,1178.74 1880.4,1191.75 1881.43,1205.01 1882.46,1218.38 1883.5,1231.65 1884.53,1244.5 1885.56,1256.27 1886.6,1265.96 1887.63,1272.43 
  1888.67,1274.76 1889.7,1272.68 1890.73,1266.63 1891.77,1257.49 1892.8,1246.19 1893.83,1233.55 1894.87,1220.03 1895.9,1205.84 1896.94,1191.16 1897.97,1176.23 
  1899,1161.14 1900.04,1146.01 1901.07,1131 1902.1,1116.24 1903.14,1101.84 1904.17,1087.92 1905.2,1074.52 1906.24,1061.66 1907.27,1049.36 1908.31,1037.66 
  1909.34,1026.62 1910.37,1016.3 1911.41,1006.71 1912.44,997.841 1913.47,989.601 1914.51,981.882 1915.54,974.538 1916.57,967.427 1917.61,960.442 1918.64,953.562 
  1919.68,946.804 1920.71,940.191 1921.74,933.76 1922.78,927.525 1923.81,921.477 1924.84,915.61 1925.88,909.924 1926.91,904.41 1927.95,899.059 1928.98,893.861 
  1930.01,888.816 1931.05,883.92 1932.08,879.173 1933.11,874.561 1934.15,870.06 1935.18,865.645 1936.21,861.302 1937.25,857.031 1938.28,852.842 1939.32,848.75 
  1940.35,844.768 1941.38,840.905 1942.42,837.172 1943.45,833.572 1944.48,830.109 1945.52,826.789 1946.55,823.615 1947.59,820.59 1948.62,817.724 1949.65,815.019 
  1950.69,812.468 1951.72,810.058 1952.75,807.768 1953.79,805.594 1954.82,803.544 1955.85,801.632 1956.89,799.876 1957.92,798.291 1958.96,796.88 1959.99,795.633 
  1961.02,794.538 1962.06,793.585 1963.09,792.767 1964.12,792.089 1965.16,791.556 1966.19,791.168 1967.23,790.911 1968.26,790.763 1969.29,790.706 1970.33,790.725 
  1971.36,790.823 1972.39,791.021 1973.43,791.351 1974.46,791.847 1975.49,792.533 1976.53,793.401 1977.56,794.426 1978.6,795.581 1979.63,796.852 1980.66,798.256 
  1981.7,799.822 1982.73,801.572 1983.76,803.504 1984.8,805.607 1985.83,807.869 1986.86,810.284 1987.9,812.859 1988.93,815.606 1989.97,818.534 1991,821.656 
  1992.03,824.989 1993.07,828.54 1994.1,832.298 1995.13,836.241 1996.17,840.357 1997.2,844.66 1998.24,849.194 1999.27,854.003 2000.3,859.108 2001.34,864.507 
  2002.37,870.199 2003.4,876.197 2004.44,882.521 2005.47,889.192 2006.5,896.219 2007.54,903.602 2008.57,911.347 2009.61,919.463 2010.64,927.959 2011.67,936.846 
  2012.71,946.145 2013.74,955.904 2014.77,966.205 2015.81,977.139 2016.84,988.76 2017.88,1001.07 2018.91,1014.07 2019.94,1027.77 2020.98,1042.26 2022.01,1057.61 
  2023.04,1073.86 2024.08,1090.99 2025.11,1108.89 2026.14,1127.39 2027.18,1146.21 2028.21,1164.99 2029.25,1183.12 2030.28,1199.78 2031.31,1214.04 2032.35,1224.9 
  2033.38,1231.53 2034.41,1233.29 2035.45,1229.86 2036.48,1221.62 2037.52,1209.53 2038.55,1194.76 2039.58,1178.41 2040.62,1161.29 2041.65,1143.94 2042.68,1126.65 
  2043.72,1109.64 2044.75,1093.04 2045.78,1076.84 2046.82,1060.97 2047.85,1045.38 2048.89,1030.14 2049.92,1015.33 2050.95,1001 2051.99,987.227 2053.02,974.078 
  2054.05,961.622 2055.09,949.89 2056.12,938.863 2057.16,928.476 2058.19,918.634 2059.22,909.24 2060.26,900.228 2061.29,891.564 2062.32,883.222 2063.36,875.187 
  2064.39,867.452 2065.42,860.021 2066.46,852.892 2067.49,846.064 2068.53,839.529 2069.56,833.275 2070.59,827.29 2071.63,821.561 2072.66,816.067 2073.69,810.781 
  2074.73,805.678 2075.76,800.744 2076.79,795.969 2077.83,791.357 2078.86,786.922 2079.9,782.67 2080.93,778.604 2081.96,774.721 2083,771.011 2084.03,767.46 
  2085.06,764.054 2086.1,760.786 2087.13,757.649 2088.17,754.644 2089.2,751.775 2090.23,749.049 2091.27,746.476 2092.3,744.07 2093.33,741.839 2094.37,739.789 
  2095.4,737.913 2096.43,736.198 2097.47,734.635 2098.5,733.225 2099.54,731.975 2100.57,730.896 2101.6,729.989 2102.64,729.25 2103.67,728.675 2104.7,728.262 
  2105.74,728.013 2106.77,727.931 2107.81,728.022 2108.84,728.288 2109.87,728.731 2110.91,729.35 2111.94,730.146 2112.97,731.12 2114.01,732.273 2115.04,733.608 
  2116.07,735.137 2117.11,736.87 2118.14,738.819 2119.18,740.99 2120.21,743.394 2121.24,746.041 2122.28,748.939 2123.31,752.095 2124.34,755.509 2125.38,759.174 
  2126.41,763.086 2127.45,767.25 2128.48,771.681 2129.51,776.396 2130.55,781.41 2131.58,786.73 2132.61,792.364 2133.65,798.32 2134.68,804.616 2135.71,811.278 
  2136.75,818.33 2137.78,825.792 2138.82,833.68 2139.85,842.004 2140.88,850.787 2141.92,860.059 2142.95,869.855 2143.98,880.207 2145.02,891.147 2146.05,902.707 
  2147.09,914.928 2148.12,927.872 2149.15,941.624 2150.19,956.285 2151.22,971.942 2152.25,988.659 2153.29,1006.47 2154.32,1025.4 2155.35,1045.43 2156.39,1066.5 
  2157.42,1088.61 2158.46,1111.8 2159.49,1136.06 2160.52,1161.19 2161.56,1186.38 2162.59,1209.93 2163.62,1228.98 2164.66,1240.25 2165.69,1241.51 2166.72,1232.91 
  2167.76,1216.68 2168.79,1195.78 2169.83,1172.64 2170.86,1148.74 2171.89,1124.91 2172.93,1101.57 2173.96,1078.93 2174.99,1057.25 2176.03,1036.72 2177.06,1017.46 
  2178.1,999.475 2179.13,982.671 2180.16,966.897 2181.2,952.022 2182.23,937.953 2183.26,924.646 2184.3,912.081 2185.33,900.22 2186.36,889.014 2187.4,878.41 
  2188.43,868.364 2189.47,858.836 2190.5,849.783 2191.53,841.165 2192.57,832.946 2193.6,825.101 2194.63,817.61 2195.67,810.457 2196.7,803.622 2197.74,797.079 
  2198.77,790.801 2199.8,784.764 2200.84,778.954 2201.87,773.363 2202.9,767.987 2203.94,762.82 2204.97,757.857 2206,753.09 2207.04,748.51 2208.07,744.113 
  2209.11,739.894 2210.14,735.853 2211.17,731.99 2212.21,728.306 2213.24,724.795 2214.27,721.451 2215.31,718.269 2216.34,715.242 2217.38,712.362 2218.41,709.618 
  2219.44,707.003 2220.48,704.512 2221.51,702.147 2222.54,699.918 2223.58,697.836 2224.61,695.914 2225.64,694.165 2226.68,692.597 2227.71,691.21 2228.75,690 
  2229.78,688.964 2230.81,688.097 2231.85,687.397 2232.88,686.862 2233.91,686.495 2234.95,686.292 2235.98,686.256 2237.02,686.386 2238.05,686.685 2239.08,687.158 
  2240.12,687.816 2241.15,688.663 2242.18,689.705 2243.22,690.945 2244.25,692.385 2245.28,694.029 2246.32,695.878 2247.35,697.933 2248.39,700.196 2249.42,702.676 
  2250.45,705.38 2251.49,708.313 2252.52,711.476 2253.55,714.871 2254.59,718.502 2255.62,722.377 2256.65,726.518 2257.69,730.943 2258.72,735.674 2259.76,740.728 
  2260.79,746.123 2261.82,751.876 2262.86,758 2263.89,764.499 2264.92,771.384 2265.96,778.671 2266.99,786.379 2268.03,794.533 2269.06,803.168 2270.09,812.313 
  2271.13,822 2272.16,832.268 2273.19,843.149 2274.23,854.679 2275.26,866.917 2276.29,879.94 2277.33,893.826 2278.36,908.634 2279.4,924.428 2280.43,941.268 
  2281.46,959.2 2282.5,978.257 2283.53,998.442 2284.56,1019.67 2285.6,1041.73 2286.63,1064.18 2287.67,1086.27 2288.7,1106.9 2289.73,1124.48 2290.77,1137.07 
  
  "/>
<path clip-path="url(#clip6200)" d="
M1989.74 251.724 L2280.76 251.724 L2280.76 130.764 L1989.74 130.764  Z
  " fill="#ffffff" fill-rule="evenodd" fill-opacity="1"/>
<polyline clip-path="url(#clip6200)" style="stroke:#000000; stroke-width:4; stroke-opacity:1; fill:none" points="
  1989.74,251.724 2280.76,251.724 2280.76,130.764 1989.74,130.764 1989.74,251.724 
  "/>
<polyline clip-path="url(#clip6200)" style="stroke:#009af9; stroke-width:4; stroke-opacity:1; fill:none" points="
  2013.74,191.244 2157.74,191.244 
  "/>
<path clip-path="url(#clip6200)" d="M 0 0 M2195.58 210.931 Q2193.77 215.561 2192.06 216.973 Q2190.35 218.385 2187.48 218.385 L2184.08 218.385 L2184.08 214.82 L2186.58 214.82 Q2188.33 214.82 2189.31 213.987 Q2190.28 213.154 2191.46 210.052 L2192.22 208.107 L2181.74 182.598 L2186.25 182.598 L2194.35 202.876 L2202.46 182.598 L2206.97 182.598 L2195.58 210.931 Z" fill="#000000" fill-rule="evenodd" fill-opacity="1" /><path clip-path="url(#clip6200)" d="M 0 0 M2212.85 204.589 L2220.49 204.589 L2220.49 178.223 L2212.18 179.89 L2212.18 175.631 L2220.44 173.964 L2225.12 173.964 L2225.12 204.589 L2232.76 204.589 L2232.76 208.524 L2212.85 208.524 L2212.85 204.589 Z" fill="#000000" fill-rule="evenodd" fill-opacity="1" /></svg>
