<?xml version="1.0" encoding="utf-8"?>
<svg xmlns="http://www.w3.org/2000/svg" xmlns:xlink="http://www.w3.org/1999/xlink" width="600" height="400" viewBox="0 0 2400 1600">
<defs>
  <clipPath id="clip7300">
    <rect x="0" y="0" width="2400" height="1600"/>
  </clipPath>
</defs>
<path clip-path="url(#clip7300)" d="
M0 1600 L2400 1600 L2400 0 L0 0  Z
  " fill="#ffffff" fill-rule="evenodd" fill-opacity="1"/>
<defs>
  <clipPath id="clip7301">
    <rect x="480" y="0" width="1681" height="1600"/>
  </clipPath>
</defs>
<path clip-path="url(#clip7300)" d="
M162.455 1486.45 L2352.76 1486.45 L2352.76 47.2441 L162.455 47.2441  Z
  " fill="#ffffff" fill-rule="evenodd" fill-opacity="1"/>
<defs>
  <clipPath id="clip7302">
    <rect x="162" y="47" width="2191" height="1440"/>
  </clipPath>
</defs>
<polyline clip-path="url(#clip7302)" style="stroke:#000000; stroke-width:2; stroke-opacity:0.1; fill:none" points="
  223.411,1486.45 223.411,47.2441 
  "/>
<polyline clip-path="url(#clip7302)" style="stroke:#000000; stroke-width:2; stroke-opacity:0.1; fill:none" points="
  740.25,1486.45 740.25,47.2441 
  "/>
<polyline clip-path="url(#clip7302)" style="stroke:#000000; stroke-width:2; stroke-opacity:0.1; fill:none" points="
  1257.09,1486.45 1257.09,47.2441 
  "/>
<polyline clip-path="url(#clip7302)" style="stroke:#000000; stroke-width:2; stroke-opacity:0.1; fill:none" points="
  1773.93,1486.45 1773.93,47.2441 
  "/>
<polyline clip-path="url(#clip7302)" style="stroke:#000000; stroke-width:2; stroke-opacity:0.1; fill:none" points="
  2290.77,1486.45 2290.77,47.2441 
  "/>
<polyline clip-path="url(#clip7302)" style="stroke:#000000; stroke-width:2; stroke-opacity:0.1; fill:none" points="
  162.455,1307.87 2352.76,1307.87 
  "/>
<polyline clip-path="url(#clip7302)" style="stroke:#000000; stroke-width:2; stroke-opacity:0.1; fill:none" points="
  162.455,981.209 2352.76,981.209 
  "/>
<polyline clip-path="url(#clip7302)" style="stroke:#000000; stroke-width:2; stroke-opacity:0.1; fill:none" points="
  162.455,654.549 2352.76,654.549 
  "/>
<polyline clip-path="url(#clip7302)" style="stroke:#000000; stroke-width:2; stroke-opacity:0.1; fill:none" points="
  162.455,327.888 2352.76,327.888 
  "/>
<polyline clip-path="url(#clip7300)" style="stroke:#000000; stroke-width:4; stroke-opacity:1; fill:none" points="
  162.455,1486.45 2352.76,1486.45 
  "/>
<polyline clip-path="url(#clip7300)" style="stroke:#000000; stroke-width:4; stroke-opacity:1; fill:none" points="
  162.455,1486.45 162.455,47.2441 
  "/>
<polyline clip-path="url(#clip7300)" style="stroke:#000000; stroke-width:4; stroke-opacity:1; fill:none" points="
  223.411,1486.45 223.411,1469.18 
  "/>
<polyline clip-path="url(#clip7300)" style="stroke:#000000; stroke-width:4; stroke-opacity:1; fill:none" points="
  740.25,1486.45 740.25,1469.18 
  "/>
<polyline clip-path="url(#clip7300)" style="stroke:#000000; stroke-width:4; stroke-opacity:1; fill:none" points="
  1257.09,1486.45 1257.09,1469.18 
  "/>
<polyline clip-path="url(#clip7300)" style="stroke:#000000; stroke-width:4; stroke-opacity:1; fill:none" points="
  1773.93,1486.45 1773.93,1469.18 
  "/>
<polyline clip-path="url(#clip7300)" style="stroke:#000000; stroke-width:4; stroke-opacity:1; fill:none" points="
  2290.77,1486.45 2290.77,1469.18 
  "/>
<polyline clip-path="url(#clip7300)" style="stroke:#000000; stroke-width:4; stroke-opacity:1; fill:none" points="
  162.455,1307.87 188.738,1307.87 
  "/>
<polyline clip-path="url(#clip7300)" style="stroke:#000000; stroke-width:4; stroke-opacity:1; fill:none" points="
  162.455,981.209 188.738,981.209 
  "/>
<polyline clip-path="url(#clip7300)" style="stroke:#000000; stroke-width:4; stroke-opacity:1; fill:none" points="
  162.455,654.549 188.738,654.549 
  "/>
<polyline clip-path="url(#clip7300)" style="stroke:#000000; stroke-width:4; stroke-opacity:1; fill:none" points="
  162.455,327.888 188.738,327.888 
  "/>
<path clip-path="url(#clip7300)" d="M 0 0 M223.411 1508.44 Q219.8 1508.44 217.971 1512 Q216.165 1515.55 216.165 1522.67 Q216.165 1529.78 217.971 1533.35 Q219.8 1536.89 223.411 1536.89 Q227.045 1536.89 228.85 1533.35 Q230.679 1529.78 230.679 1522.67 Q230.679 1515.55 228.85 1512 Q227.045 1508.44 223.411 1508.44 M223.411 1504.73 Q229.221 1504.73 232.276 1509.34 Q235.355 1513.92 235.355 1522.67 Q235.355 1531.4 232.276 1536.01 Q229.221 1540.59 223.411 1540.59 Q217.601 1540.59 214.522 1536.01 Q211.466 1531.4 211.466 1522.67 Q211.466 1513.92 214.522 1509.34 Q217.601 1504.73 223.411 1504.73 Z" fill="#000000" fill-rule="evenodd" fill-opacity="1" /><path clip-path="url(#clip7300)" d="M 0 0 M717.125 1535.98 L724.764 1535.98 L724.764 1509.62 L716.453 1511.29 L716.453 1507.03 L724.717 1505.36 L729.393 1505.36 L729.393 1535.98 L737.032 1535.98 L737.032 1539.92 L717.125 1539.92 L717.125 1535.98 Z" fill="#000000" fill-rule="evenodd" fill-opacity="1" /><path clip-path="url(#clip7300)" d="M 0 0 M752.101 1508.44 Q748.49 1508.44 746.662 1512 Q744.856 1515.55 744.856 1522.67 Q744.856 1529.78 746.662 1533.35 Q748.49 1536.89 752.101 1536.89 Q755.736 1536.89 757.541 1533.35 Q759.37 1529.78 759.37 1522.67 Q759.37 1515.55 757.541 1512 Q755.736 1508.44 752.101 1508.44 M752.101 1504.73 Q757.912 1504.73 760.967 1509.34 Q764.046 1513.92 764.046 1522.67 Q764.046 1531.4 760.967 1536.01 Q757.912 1540.59 752.101 1540.59 Q746.291 1540.59 743.213 1536.01 Q740.157 1531.4 740.157 1522.67 Q740.157 1513.92 743.213 1509.34 Q746.291 1504.73 752.101 1504.73 Z" fill="#000000" fill-rule="evenodd" fill-opacity="1" /><path clip-path="url(#clip7300)" d="M 0 0 M1238.23 1535.98 L1254.55 1535.98 L1254.55 1539.92 L1232.61 1539.92 L1232.61 1535.98 Q1235.27 1533.23 1239.85 1528.6 Q1244.46 1523.95 1245.64 1522.61 Q1247.89 1520.08 1248.77 1518.35 Q1249.67 1516.59 1249.67 1514.9 Q1249.67 1512.14 1247.73 1510.41 Q1245.8 1508.67 1242.7 1508.67 Q1240.5 1508.67 1238.05 1509.43 Q1235.62 1510.2 1232.84 1511.75 L1232.84 1507.03 Q1235.66 1505.89 1238.12 1505.31 Q1240.57 1504.73 1242.61 1504.73 Q1247.98 1504.73 1251.17 1507.42 Q1254.37 1510.11 1254.37 1514.6 Q1254.37 1516.73 1253.56 1518.65 Q1252.77 1520.54 1250.66 1523.14 Q1250.09 1523.81 1246.98 1527.03 Q1243.88 1530.22 1238.23 1535.98 Z" fill="#000000" fill-rule="evenodd" fill-opacity="1" /><path clip-path="url(#clip7300)" d="M 0 0 M1269.62 1508.44 Q1266.01 1508.44 1264.18 1512 Q1262.38 1515.55 1262.38 1522.67 Q1262.38 1529.78 1264.18 1533.35 Q1266.01 1536.89 1269.62 1536.89 Q1273.26 1536.89 1275.06 1533.35 Q1276.89 1529.78 1276.89 1522.67 Q1276.89 1515.55 1275.06 1512 Q1273.26 1508.44 1269.62 1508.44 M1269.62 1504.73 Q1275.43 1504.73 1278.49 1509.34 Q1281.57 1513.92 1281.57 1522.67 Q1281.57 1531.4 1278.49 1536.01 Q1275.43 1540.59 1269.62 1540.59 Q1263.81 1540.59 1260.73 1536.01 Q1257.68 1531.4 1257.68 1522.67 Q1257.68 1513.92 1260.73 1509.34 Q1263.81 1504.73 1269.62 1504.73 Z" fill="#000000" fill-rule="evenodd" fill-opacity="1" /><path clip-path="url(#clip7300)" d="M 0 0 M1764.67 1521.29 Q1768.02 1522 1769.9 1524.27 Q1771.8 1526.54 1771.8 1529.87 Q1771.8 1534.99 1768.28 1537.79 Q1764.76 1540.59 1758.28 1540.59 Q1756.1 1540.59 1753.79 1540.15 Q1751.5 1539.73 1749.04 1538.88 L1749.04 1534.36 Q1750.99 1535.5 1753.3 1536.08 Q1755.62 1536.66 1758.14 1536.66 Q1762.54 1536.66 1764.83 1534.92 Q1767.14 1533.18 1767.14 1529.87 Q1767.14 1526.82 1764.99 1525.11 Q1762.86 1523.37 1759.04 1523.37 L1755.02 1523.37 L1755.02 1519.53 L1759.23 1519.53 Q1762.68 1519.53 1764.51 1518.16 Q1766.33 1516.77 1766.33 1514.18 Q1766.33 1511.52 1764.44 1510.11 Q1762.56 1508.67 1759.04 1508.67 Q1757.12 1508.67 1754.92 1509.09 Q1752.72 1509.5 1750.08 1510.38 L1750.08 1506.22 Q1752.75 1505.48 1755.06 1505.11 Q1757.4 1504.73 1759.46 1504.73 Q1764.78 1504.73 1767.89 1507.17 Q1770.99 1509.57 1770.99 1513.69 Q1770.99 1516.56 1769.34 1518.55 Q1767.7 1520.52 1764.67 1521.29 Z" fill="#000000" fill-rule="evenodd" fill-opacity="1" /><path clip-path="url(#clip7300)" d="M 0 0 M1786.87 1508.44 Q1783.26 1508.44 1781.43 1512 Q1779.62 1515.55 1779.62 1522.67 Q1779.62 1529.78 1781.43 1533.35 Q1783.26 1536.89 1786.87 1536.89 Q1790.5 1536.89 1792.31 1533.35 Q1794.14 1529.78 1794.14 1522.67 Q1794.14 1515.55 1792.31 1512 Q1790.5 1508.44 1786.87 1508.44 M1786.87 1504.73 Q1792.68 1504.73 1795.73 1509.34 Q1798.81 1513.92 1798.81 1522.67 Q1798.81 1531.4 1795.73 1536.01 Q1792.68 1540.59 1786.87 1540.59 Q1781.06 1540.59 1777.98 1536.01 Q1774.92 1531.4 1774.92 1522.67 Q1774.92 1513.92 1777.98 1509.34 Q1781.06 1504.73 1786.87 1504.73 Z" fill="#000000" fill-rule="evenodd" fill-opacity="1" /><path clip-path="url(#clip7300)" d="M 0 0 M2280.27 1509.43 L2268.46 1527.88 L2280.27 1527.88 L2280.27 1509.43 M2279.04 1505.36 L2284.92 1505.36 L2284.92 1527.88 L2289.85 1527.88 L2289.85 1531.77 L2284.92 1531.77 L2284.92 1539.92 L2280.27 1539.92 L2280.27 1531.77 L2264.67 1531.77 L2264.67 1527.26 L2279.04 1505.36 Z" fill="#000000" fill-rule="evenodd" fill-opacity="1" /><path clip-path="url(#clip7300)" d="M 0 0 M2304.92 1508.44 Q2301.31 1508.44 2299.48 1512 Q2297.68 1515.55 2297.68 1522.67 Q2297.68 1529.78 2299.48 1533.35 Q2301.31 1536.89 2304.92 1536.89 Q2308.56 1536.89 2310.36 1533.35 Q2312.19 1529.78 2312.19 1522.67 Q2312.19 1515.55 2310.36 1512 Q2308.56 1508.44 2304.92 1508.44 M2304.92 1504.73 Q2310.73 1504.73 2313.79 1509.34 Q2316.87 1513.92 2316.87 1522.67 Q2316.87 1531.4 2313.79 1536.01 Q2310.73 1540.59 2304.92 1540.59 Q2299.11 1540.59 2296.03 1536.01 Q2292.98 1531.4 2292.98 1522.67 Q2292.98 1513.92 2296.03 1509.34 Q2299.11 1504.73 2304.92 1504.73 Z" fill="#000000" fill-rule="evenodd" fill-opacity="1" /><path clip-path="url(#clip7300)" d="M 0 0 M63.8949 1310.27 L76.3717 1310.27 L76.3717 1314.06 L63.8949 1314.06 L63.8949 1310.27 Z" fill="#000000" fill-rule="evenodd" fill-opacity="1" /><path clip-path="url(#clip7300)" d="M 0 0 M80.2606 1290.59 L102.483 1290.59 L102.483 1292.58 L89.9364 1325.15 L85.0522 1325.15 L96.8577 1294.52 L80.2606 1294.52 L80.2606 1290.59 Z" fill="#000000" fill-rule="evenodd" fill-opacity="1" /><path clip-path="url(#clip7300)" d="M 0 0 M107.552 1319.27 L112.436 1319.27 L112.436 1325.15 L107.552 1325.15 L107.552 1319.27 Z" fill="#000000" fill-rule="evenodd" fill-opacity="1" /><path clip-path="url(#clip7300)" d="M 0 0 M117.552 1290.59 L135.908 1290.59 L135.908 1294.52 L121.834 1294.52 L121.834 1303 Q122.853 1302.65 123.871 1302.49 Q124.89 1302.3 125.908 1302.3 Q131.695 1302.3 135.075 1305.47 Q138.455 1308.65 138.455 1314.06 Q138.455 1319.64 134.982 1322.74 Q131.51 1325.82 125.191 1325.82 Q123.015 1325.82 120.746 1325.45 Q118.501 1325.08 116.094 1324.34 L116.094 1319.64 Q118.177 1320.77 120.399 1321.33 Q122.621 1321.89 125.098 1321.89 Q129.103 1321.89 131.441 1319.78 Q133.779 1317.67 133.779 1314.06 Q133.779 1310.45 131.441 1308.34 Q129.103 1306.24 125.098 1306.24 Q123.223 1306.24 121.348 1306.65 Q119.496 1307.07 117.552 1307.95 L117.552 1290.59 Z" fill="#000000" fill-rule="evenodd" fill-opacity="1" /><path clip-path="url(#clip7300)" d="M 0 0 M62.9921 983.605 L75.4689 983.605 L75.4689 987.401 L62.9921 987.401 L62.9921 983.605 Z" fill="#000000" fill-rule="evenodd" fill-opacity="1" /><path clip-path="url(#clip7300)" d="M 0 0 M80.5846 963.929 L98.941 963.929 L98.941 967.864 L84.867 967.864 L84.867 976.337 Q85.8855 975.989 86.904 975.827 Q87.9225 975.642 88.9411 975.642 Q94.7281 975.642 98.1077 978.813 Q101.487 981.985 101.487 987.401 Q101.487 992.98 98.0151 996.082 Q94.5429 999.16 88.2235 999.16 Q86.0476 999.16 83.7791 998.79 Q81.5337 998.42 79.1263 997.679 L79.1263 992.98 Q81.2096 994.114 83.4318 994.67 Q85.654 995.225 88.1309 995.225 Q92.1355 995.225 94.4734 993.119 Q96.8114 991.012 96.8114 987.401 Q96.8114 983.79 94.4734 981.684 Q92.1355 979.577 88.1309 979.577 Q86.2559 979.577 84.3809 979.994 Q82.5291 980.411 80.5846 981.29 L80.5846 963.929 Z" fill="#000000" fill-rule="evenodd" fill-opacity="1" /><path clip-path="url(#clip7300)" d="M 0 0 M106.557 992.61 L111.441 992.61 L111.441 998.489 L106.557 998.489 L106.557 992.61 Z" fill="#000000" fill-rule="evenodd" fill-opacity="1" /><path clip-path="url(#clip7300)" d="M 0 0 M126.51 967.008 Q122.899 967.008 121.071 970.573 Q119.265 974.114 119.265 981.244 Q119.265 988.35 121.071 991.915 Q122.899 995.457 126.51 995.457 Q130.145 995.457 131.95 991.915 Q133.779 988.35 133.779 981.244 Q133.779 974.114 131.95 970.573 Q130.145 967.008 126.51 967.008 M126.51 963.304 Q132.32 963.304 135.376 967.911 Q138.455 972.494 138.455 981.244 Q138.455 989.971 135.376 994.577 Q132.32 999.16 126.51 999.16 Q120.7 999.16 117.621 994.577 Q114.566 989.971 114.566 981.244 Q114.566 972.494 117.621 967.911 Q120.7 963.304 126.51 963.304 Z" fill="#000000" fill-rule="evenodd" fill-opacity="1" /><path clip-path="url(#clip7300)" d="M 0 0 M64.5893 656.945 L77.0661 656.945 L77.0661 660.741 L64.5893 660.741 L64.5893 656.945 Z" fill="#000000" fill-rule="evenodd" fill-opacity="1" /><path clip-path="url(#clip7300)" d="M 0 0 M86.1633 667.894 L102.483 667.894 L102.483 671.829 L80.5383 671.829 L80.5383 667.894 Q83.2004 665.139 87.7837 660.509 Q92.3901 655.857 93.5707 654.514 Q95.816 651.991 96.6956 650.255 Q97.5984 648.496 97.5984 646.806 Q97.5984 644.051 95.654 642.315 Q93.7327 640.579 90.6309 640.579 Q88.4318 640.579 85.9781 641.343 Q83.5476 642.107 80.7698 643.658 L80.7698 638.935 Q83.5939 637.801 86.0476 637.223 Q88.5012 636.644 90.5383 636.644 Q95.9086 636.644 99.103 639.329 Q102.297 642.014 102.297 646.505 Q102.297 648.634 101.487 650.556 Q100.7 652.454 98.5938 655.046 Q98.0151 655.718 94.9133 658.935 Q91.8114 662.13 86.1633 667.894 Z" fill="#000000" fill-rule="evenodd" fill-opacity="1" /><path clip-path="url(#clip7300)" d="M 0 0 M107.552 665.949 L112.436 665.949 L112.436 671.829 L107.552 671.829 L107.552 665.949 Z" fill="#000000" fill-rule="evenodd" fill-opacity="1" /><path clip-path="url(#clip7300)" d="M 0 0 M117.552 637.269 L135.908 637.269 L135.908 641.204 L121.834 641.204 L121.834 649.676 Q122.853 649.329 123.871 649.167 Q124.89 648.982 125.908 648.982 Q131.695 648.982 135.075 652.153 Q138.455 655.324 138.455 660.741 Q138.455 666.32 134.982 669.421 Q131.51 672.5 125.191 672.5 Q123.015 672.5 120.746 672.13 Q118.501 671.759 116.094 671.019 L116.094 666.32 Q118.177 667.454 120.399 668.009 Q122.621 668.565 125.098 668.565 Q129.103 668.565 131.441 666.458 Q133.779 664.352 133.779 660.741 Q133.779 657.13 131.441 655.023 Q129.103 652.917 125.098 652.917 Q123.223 652.917 121.348 653.334 Q119.496 653.75 117.552 654.63 L117.552 637.269 Z" fill="#000000" fill-rule="evenodd" fill-opacity="1" /><path clip-path="url(#clip7300)" d="M 0 0 M89.5429 313.687 Q85.9318 313.687 84.1031 317.252 Q82.2976 320.794 82.2976 327.923 Q82.2976 335.03 84.1031 338.594 Q85.9318 342.136 89.5429 342.136 Q93.1771 342.136 94.9827 338.594 Q96.8114 335.03 96.8114 327.923 Q96.8114 320.794 94.9827 317.252 Q93.1771 313.687 89.5429 313.687 M89.5429 309.983 Q95.3531 309.983 98.4086 314.59 Q101.487 319.173 101.487 327.923 Q101.487 336.65 98.4086 341.256 Q95.3531 345.84 89.5429 345.84 Q83.7328 345.84 80.6541 341.256 Q77.5985 336.65 77.5985 327.923 Q77.5985 319.173 80.6541 314.59 Q83.7328 309.983 89.5429 309.983 Z" fill="#000000" fill-rule="evenodd" fill-opacity="1" /><path clip-path="url(#clip7300)" d="M 0 0 M106.557 339.289 L111.441 339.289 L111.441 345.168 L106.557 345.168 L106.557 339.289 Z" fill="#000000" fill-rule="evenodd" fill-opacity="1" /><path clip-path="url(#clip7300)" d="M 0 0 M126.51 313.687 Q122.899 313.687 121.071 317.252 Q119.265 320.794 119.265 327.923 Q119.265 335.03 121.071 338.594 Q122.899 342.136 126.51 342.136 Q130.145 342.136 131.95 338.594 Q133.779 335.03 133.779 327.923 Q133.779 320.794 131.95 317.252 Q130.145 313.687 126.51 313.687 M126.51 309.983 Q132.32 309.983 135.376 314.59 Q138.455 319.173 138.455 327.923 Q138.455 336.65 135.376 341.256 Q132.32 345.84 126.51 345.84 Q120.7 345.84 117.621 341.256 Q114.566 336.65 114.566 327.923 Q114.566 319.173 117.621 314.59 Q120.7 309.983 126.51 309.983 Z" fill="#000000" fill-rule="evenodd" fill-opacity="1" /><polyline clip-path="url(#clip7302)" style="stroke:#009af9; stroke-width:4; stroke-opacity:1; fill:none" points="
  224.444,87.9763 225.478,88.1721 226.512,88.4985 227.545,88.9559 228.579,89.5446 229.613,90.2651 230.646,91.118 231.68,92.1039 232.714,93.2237 233.747,94.4784 
  234.781,95.8688 235.815,97.3962 236.848,99.0618 237.882,100.867 238.916,102.814 239.95,104.903 240.983,107.138 242.017,109.519 243.051,112.049 244.084,114.732 
  245.118,117.568 246.152,120.562 247.185,123.716 248.219,127.034 249.253,130.518 250.286,134.172 251.32,138.002 252.354,142.01 253.387,146.203 254.421,150.584 
  255.455,155.161 256.488,159.937 257.522,164.92 258.556,170.116 259.589,175.533 260.623,181.178 261.657,187.06 262.69,193.187 263.724,199.571 264.758,206.222 
  265.791,213.152 266.825,220.374 267.859,227.902 268.892,235.752 269.926,243.941 270.96,252.488 271.994,261.415 273.027,270.743 274.061,280.5 275.095,290.713 
  276.128,301.415 277.162,312.643 278.196,324.438 279.229,336.846 280.263,349.923 281.297,363.73 282.33,378.341 283.364,393.839 284.398,410.324 285.431,427.915 
  286.465,446.756 287.499,467.022 288.532,488.931 289.566,512.757 290.6,538.847 291.633,567.652 292.667,599.774 293.701,636.038 294.734,677.617 295.768,726.229 
  296.802,784.462 297.835,856.174 298.869,945.741 299.903,1044.66 300.936,1072.97 301.97,990.432 303.004,897.164 304.038,821.89 305.071,761.947 306.105,712.988 
  307.139,671.963 308.172,636.858 309.206,606.315 310.24,579.389 311.273,555.404 312.307,533.856 313.341,514.363 314.374,496.627 315.408,480.409 316.442,465.519 
  317.475,451.801 318.509,439.124 319.543,427.383 320.576,416.486 321.61,406.357 322.644,396.93 323.677,388.148 324.711,379.962 325.745,372.331 326.778,365.216 
  327.812,358.586 328.846,352.411 329.879,346.664 330.913,341.323 331.947,336.366 332.981,331.775 334.014,327.534 335.048,323.629 336.082,320.044 337.115,316.769 
  338.149,313.791 339.183,311.1 340.216,308.687 341.25,306.545 342.284,304.667 343.317,303.045 344.351,301.675 345.385,300.55 346.418,299.665 347.452,299.015 
  348.486,298.597 349.519,298.408 350.553,298.445 351.587,298.706 352.62,299.189 353.654,299.892 354.688,300.816 355.721,301.958 356.755,303.32 357.789,304.901 
  358.822,306.701 359.856,308.722 360.89,310.965 361.923,313.431 362.957,316.123 363.991,319.043 365.025,322.195 366.058,325.581 367.092,329.207 368.126,333.077 
  369.159,337.195 370.193,341.568 371.227,346.202 372.26,351.104 373.294,356.281 374.328,361.743 375.361,367.497 376.395,373.556 377.429,379.93 378.462,386.633 
  379.496,393.679 380.53,401.084 381.563,408.863 382.597,417.036 383.631,425.619 384.664,434.636 385.698,444.113 386.732,454.079 387.765,464.568 388.799,475.621 
  389.833,487.281 390.866,499.597 391.9,512.624 392.934,526.424 393.967,541.07 395.001,556.65 396.035,573.268 397.069,591.05 398.102,610.148 399.136,630.755 
  400.17,653.106 401.203,677.495 402.237,704.296 403.271,734.004 404.304,767.291 405.338,805.1 406.372,848.82 407.405,900.575 408.439,963.792 409.473,1044.31 
  410.506,1151.48 411.54,1280.13 412.574,1280.59 413.607,1154.71 414.641,1050.78 415.675,973.528 416.708,913.638 417.742,865.303 418.776,825.094 419.809,790.862 
  420.843,761.186 421.877,735.089 422.91,711.875 423.944,691.04 424.978,672.209 426.012,655.097 427.045,639.478 428.079,625.168 429.113,612.017 430.146,599.9 
  431.18,588.712 432.214,578.367 433.247,568.788 434.281,559.912 435.315,551.683 436.348,544.051 437.382,536.975 438.416,530.421 439.449,524.358 440.483,518.758 
  441.517,513.595 442.55,508.844 443.584,504.486 444.618,500.504 445.651,496.883 446.685,493.612 447.719,490.675 448.752,488.061 449.786,485.755 450.82,483.746 
  451.853,482.024 452.887,480.582 453.921,479.414 454.954,478.515 455.988,477.879 457.022,477.501 458.056,477.375 459.089,477.495 460.123,477.859 461.157,478.466 
  462.19,479.314 463.224,480.407 464.258,481.745 465.291,483.328 466.325,485.156 467.359,487.228 468.392,489.543 469.426,492.1 470.46,494.897 471.493,497.934 
  472.527,501.211 473.561,504.732 474.594,508.499 475.628,512.518 476.662,516.793 477.695,521.333 478.729,526.141 479.763,531.222 480.796,536.582 481.83,542.226 
  482.864,548.162 483.897,554.398 484.931,560.941 485.965,567.804 486.999,574.999 488.032,582.541 489.066,590.444 490.1,598.726 491.133,607.401 492.167,616.488 
  493.201,626.007 494.234,635.978 495.268,646.427 496.302,657.38 497.335,668.866 498.369,680.92 499.403,693.58 500.436,706.892 501.47,720.914 502.504,735.714 
  503.537,751.363 504.571,767.938 505.605,785.522 506.638,804.223 507.672,824.179 508.706,845.576 509.739,868.639 510.773,893.642 511.807,920.91 512.84,950.846 
  513.874,983.944 514.908,1020.77 515.941,1061.99 516.975,1108.27 518.009,1159.82 519.043,1214.77 520.076,1264.81 521.11,1290.65 522.144,1276.64 523.177,1234.37 
  524.211,1184.27 525.245,1136.6 526.278,1094.12 527.312,1056.87 528.346,1024.23 529.379,995.519 530.413,970.163 531.447,947.648 532.48,927.536 533.514,909.461 
  534.548,893.141 535.581,878.351 536.615,864.894 537.649,852.598 538.682,841.32 539.716,830.94 540.75,821.365 541.783,812.527 542.817,804.38 543.851,796.889 
  544.884,790.018 545.918,783.727 546.952,777.971 547.985,772.702 549.019,767.875 550.053,763.458 551.087,759.432 552.12,755.792 553.154,752.535 554.188,749.653 
  555.221,747.131 556.255,744.95 557.289,743.092 558.322,741.546 559.356,740.305 560.39,739.363 561.423,738.709 562.457,738.329 563.491,738.211 564.524,738.342 
  565.558,738.713 566.592,739.319 567.625,740.16 568.659,741.239 569.693,742.557 570.726,744.121 571.76,745.935 572.794,748.003 573.827,750.328 574.861,752.909 
  575.895,755.742 576.928,758.823 577.962,762.142 578.996,765.688 580.03,769.452 581.063,773.428 582.097,777.618 583.131,782.021 584.164,786.636 585.198,791.463 
  586.232,796.496 587.265,801.729 588.299,807.153 589.333,812.765 590.366,818.563 591.4,824.55 592.434,830.715 593.467,837.042 594.501,843.511 595.535,850.112 
  596.568,856.835 597.602,863.679 598.636,870.645 599.669,877.749 600.703,885.016 601.737,892.464 602.77,900.098 603.804,907.908 604.838,915.877 605.871,923.983 
  606.905,932.217 607.939,940.572 608.972,949.044 610.006,957.625 611.04,966.308 612.074,975.108 613.107,984.037 614.141,993.084 615.175,1002.2 616.208,1011.34 
  617.242,1020.44 618.276,1029.52 619.309,1038.58 620.343,1047.66 621.377,1056.76 622.41,1065.87 623.444,1074.88 624.478,1083.72 625.511,1092.33 626.545,1100.73 
  627.579,1108.93 628.612,1117.02 629.646,1125.1 630.68,1133.23 631.713,1141.45 632.747,1149.66 633.781,1157.72 634.814,1165.47 635.848,1172.65 636.882,1179.02 
  637.915,1184.44 638.949,1188.95 639.983,1192.71 641.016,1196.13 642.05,1199.73 643.084,1203.96 644.118,1209.02 645.151,1214.89 646.185,1221.28 647.219,1227.73 
  648.252,1233.79 649.286,1239.1 650.32,1243.56 651.353,1247.32 652.387,1250.76 653.421,1254.22 654.454,1257.91 655.488,1261.98 656.522,1266.53 657.555,1271.71 
  658.589,1277.75 659.623,1284.96 660.656,1293.45 661.69,1303.02 662.724,1313 663.757,1322.36 664.791,1330.08 665.825,1335.74 666.858,1339.56 667.892,1341.83 
  668.926,1342.46 669.959,1340.76 670.993,1336.01 672.027,1328.08 673.061,1318.03 674.094,1307.57 675.128,1298.49 676.162,1292.14 677.195,1289.39 678.229,1290.45 
  679.263,1294.92 680.296,1302.22 681.33,1311.8 682.364,1322.71 683.397,1333.68 684.431,1343.62 685.465,1351.64 686.498,1357.44 687.532,1361.38 688.566,1363.96 
  689.599,1366.09 690.633,1368.79 691.667,1372.26 692.7,1376.29 693.734,1381.12 694.768,1386.95 695.801,1394.13 696.835,1402.22 697.869,1409.23 698.902,1412.75 
  699.936,1410.7 700.97,1401.99 702.003,1387.69 703.037,1370.23 704.071,1351.73 705.105,1333.63 706.138,1316.59 707.172,1301 708.206,1287.13 709.239,1274.85 
  710.273,1263.76 711.307,1253.37 712.34,1243.19 713.374,1232.73 714.408,1221.64 715.441,1209.82 716.475,1197.41 717.509,1184.7 718.542,1171.94 719.576,1159.25 
  720.61,1146.59 721.643,1133.9 722.677,1121.24 723.711,1108.77 724.744,1096.63 725.778,1084.86 726.812,1073.49 727.845,1062.48 728.879,1051.8 729.913,1041.38 
  730.946,1031.22 731.98,1021.33 733.014,1011.81 734.047,1002.73 735.081,994.114 736.115,985.996 737.149,978.341 738.182,971.083 739.216,964.176 740.25,957.608 
  741.283,951.352 742.317,945.369 743.351,939.63 744.384,934.108 745.418,928.789 746.452,923.703 747.485,918.897 748.519,914.407 749.553,910.218 750.586,906.257 
  751.62,902.43 752.654,898.684 753.687,895.024 754.721,891.502 755.755,888.179 756.788,885.101 757.822,882.284 758.856,879.724 759.889,877.423 760.923,875.37 
  761.957,873.515 762.99,871.789 764.024,870.151 765.058,868.603 766.092,867.198 767.125,866.014 768.159,865.115 769.193,864.517 770.226,864.196 771.26,864.105 
  772.294,864.189 773.327,864.407 774.361,864.744 775.395,865.199 776.428,865.779 777.462,866.495 778.496,867.365 779.529,868.41 780.563,869.662 781.597,871.157 
  782.63,872.929 783.664,874.995 784.698,877.34 785.731,879.921 786.765,882.692 787.799,885.632 788.832,888.734 789.866,892.013 790.9,895.493 791.933,899.203 
  792.967,903.154 794.001,907.355 795.034,911.822 796.068,916.56 797.102,921.578 798.136,926.894 799.169,932.517 800.203,938.452 801.237,944.717 802.27,951.332 
  803.304,958.325 804.338,965.734 805.371,973.598 806.405,981.961 807.439,990.833 808.472,1000.21 809.506,1010.12 810.54,1020.61 811.573,1031.71 812.607,1043.51 
  813.641,1056.04 814.674,1069.38 815.708,1083.57 816.742,1098.75 817.775,1115.05 818.809,1132.59 819.843,1151.37 820.876,1171.16 821.91,1191.7 822.944,1213.03 
  823.977,1235.59 825.011,1259.89 826.045,1286.25 827.078,1314.75 828.112,1345.1 829.146,1376.17 830.18,1405.84 831.213,1430.76 832.247,1445.72 833.281,1445.51 
  834.314,1429.17 835.348,1402.05 836.382,1370.7 837.415,1339.63 838.449,1311.12 839.483,1285.37 840.516,1261.61 841.55,1238.96 842.584,1217.1 843.617,1196.24 
  844.651,1176.7 845.685,1158.6 846.718,1141.81 847.752,1126.24 848.786,1111.94 849.819,1099.06 850.853,1087.81 851.887,1078.09 852.92,1069.66 853.954,1062.16 
  854.988,1055.26 856.021,1048.72 857.055,1042.45 858.089,1036.44 859.123,1030.68 860.156,1025.2 861.19,1020.02 862.224,1015.18 863.257,1010.69 864.291,1006.52 
  865.325,1002.56 866.358,998.728 867.392,994.968 868.426,991.296 869.459,987.763 870.493,984.441 871.527,981.383 872.56,978.63 873.594,976.209 874.628,974.132 
  875.661,972.398 876.695,970.985 877.729,969.872 878.762,969.044 879.796,968.512 880.83,968.313 881.863,968.493 882.897,969.075 883.931,970.055 884.964,971.438 
  885.998,973.231 887.032,975.416 888.065,977.935 889.099,980.724 890.133,983.753 891.167,987.003 892.2,990.478 893.234,994.192 894.268,998.161 895.301,1002.43 
  896.335,1007.02 897.369,1011.9 898.402,1017.03 899.436,1022.35 900.47,1027.81 901.503,1033.42 902.537,1039.27 903.571,1045.39 904.604,1051.78 905.638,1058.42 
  906.672,1065.28 907.705,1072.38 908.739,1079.7 909.773,1087.13 910.806,1094.54 911.84,1101.95 912.874,1109.54 913.907,1117.38 914.941,1125.37 915.975,1133.42 
  917.008,1141.43 918.042,1149.35 919.076,1157.2 920.109,1165.03 921.143,1172.88 922.177,1180.74 923.211,1188.59 924.244,1196.58 925.278,1204.99 926.312,1213.83 
  927.345,1222.99 928.379,1232.08 929.413,1240.81 930.446,1248.97 931.48,1256.18 932.514,1261.85 933.547,1265.23 934.581,1265.9 935.615,1264.2 936.648,1261.14 
  937.682,1257.88 938.716,1255.23 939.749,1253.5 940.783,1252.63 941.817,1252.17 942.85,1251.61 943.884,1250.64 944.918,1249.04 945.951,1246.71 946.985,1243.69 
  948.019,1239.95 949.052,1235.48 950.086,1230.35 951.12,1224.53 952.154,1218.06 953.187,1211.16 954.221,1204.03 955.255,1196.74 956.288,1189.1 957.322,1180.86 
  958.356,1172.01 959.389,1162.85 960.423,1153.94 961.457,1145.77 962.49,1138.5 963.524,1132.05 964.558,1126.26 965.591,1121.09 966.625,1116.48 967.659,1112.37 
  968.692,1108.75 969.726,1105.6 970.76,1102.85 971.793,1100.42 972.827,1098.28 973.861,1096.39 974.894,1094.73 975.928,1093.32 976.962,1092.2 977.995,1091.38 
  979.029,1090.83 980.063,1090.49 981.096,1090.29 982.13,1090.07 983.164,1089.62 984.198,1088.88 985.231,1087.93 986.265,1086.96 987.299,1086.1 988.332,1085.39 
  989.366,1084.79 990.4,1084.26 991.433,1083.84 992.467,1083.75 993.501,1084.2 994.534,1085.27 995.568,1086.91 996.602,1088.91 997.635,1091 998.669,1092.92 
  999.703,1094.51 1000.74,1095.69 1001.77,1096.49 1002.8,1096.97 1003.84,1097.2 1004.87,1097.2 1005.9,1097.01 1006.94,1096.78 1007.97,1096.81 1009.01,1097.35 
  1010.04,1098.46 1011.07,1100.02 1012.11,1101.84 1013.14,1103.69 1014.17,1105.38 1015.21,1106.83 1016.24,1108.04 1017.28,1109.05 1018.31,1109.9 1019.34,1110.66 
  1020.38,1111.35 1021.41,1112.06 1022.44,1112.84 1023.48,1113.74 1024.51,1114.76 1025.54,1115.83 1026.58,1116.68 1027.61,1117.1 1028.65,1117.02 1029.68,1116.52 
  1030.71,1115.84 1031.75,1115.24 1032.78,1114.92 1033.81,1115.07 1034.85,1115.77 1035.88,1117.03 1036.92,1118.74 1037.95,1120.66 1038.98,1122.58 1040.02,1124.4 
  1041.05,1126.12 1042.08,1127.79 1043.12,1129.36 1044.15,1130.79 1045.18,1132.14 1046.22,1133.56 1047.25,1135.24 1048.29,1137.25 1049.32,1139.58 1050.35,1142.22 
  1051.39,1145.15 1052.42,1148.41 1053.45,1151.94 1054.49,1155.53 1055.52,1158.85 1056.55,1161.78 1057.59,1164.35 1058.62,1166.67 1059.66,1168.82 1060.69,1170.79 
  1061.72,1172.55 1062.76,1174.11 1063.79,1175.51 1064.82,1176.78 1065.86,1178.02 1066.89,1179.24 1067.93,1180.38 1068.96,1181.29 1069.99,1181.78 1071.03,1181.74 
  1072.06,1181.25 1073.09,1180.6 1074.13,1180.07 1075.16,1179.77 1076.19,1179.73 1077.23,1179.87 1078.26,1180.1 1079.3,1180.48 1080.33,1181.14 1081.36,1182.2 
  1082.4,1183.67 1083.43,1185.58 1084.46,1187.93 1085.5,1190.83 1086.53,1194.28 1087.57,1198.23 1088.6,1202.62 1089.63,1207.27 1090.67,1212.02 1091.7,1216.74 
  1092.73,1221.38 1093.77,1225.99 1094.8,1230.82 1095.83,1236.33 1096.87,1243.15 1097.9,1251.54 1098.94,1261.27 1099.97,1271.81 1101,1282.64 1102.04,1293.37 
  1103.07,1303.88 1104.1,1313.95 1105.14,1322.97 1106.17,1329.95 1107.21,1333.82 1108.24,1334.19 1109.27,1331.07 1110.31,1324.56 1111.34,1314.88 1112.37,1302.53 
  1113.41,1288.21 1114.44,1272.78 1115.47,1257.09 1116.51,1241.82 1117.54,1227.54 1118.58,1214.6 1119.61,1203.11 1120.64,1192.84 1121.68,1183.52 1122.71,1174.74 
  1123.74,1166.15 1124.78,1157.53 1125.81,1148.72 1126.85,1139.59 1127.88,1130.1 1128.91,1120.36 1129.95,1110.57 1130.98,1100.95 1132.01,1091.58 1133.05,1082.47 
  1134.08,1073.62 1135.11,1065.13 1136.15,1057.15 1137.18,1049.76 1138.22,1042.93 1139.25,1036.5 1140.28,1030.26 1141.32,1024.07 1142.35,1017.85 1143.38,1011.57 
  1144.42,1005.24 1145.45,998.968 1146.48,992.832 1147.52,986.918 1148.55,981.285 1149.59,975.96 1150.62,970.934 1151.65,966.175 1152.69,961.636 1153.72,957.278 
  1154.75,953.078 1155.79,949.038 1156.82,945.163 1157.86,941.44 1158.89,937.841 1159.92,934.338 1160.96,930.908 1161.99,927.55 1163.02,924.292 1164.06,921.185 
  1165.09,918.279 1166.12,915.61 1167.16,913.182 1168.19,910.99 1169.23,909.042 1170.26,907.35 1171.29,905.915 1172.33,904.735 1173.36,903.804 1174.39,903.099 
  1175.43,902.593 1176.46,902.24 1177.5,901.99 1178.53,901.809 1179.56,901.69 1180.6,901.642 1181.63,901.682 1182.66,901.819 1183.7,902.054 1184.73,902.371 
  1185.76,902.744 1186.8,903.148 1187.83,903.57 1188.87,904.024 1189.9,904.558 1190.93,905.222 1191.97,906.051 1193,907.049 1194.03,908.197 1195.07,909.47 
  1196.1,910.876 1197.14,912.452 1198.17,914.236 1199.2,916.259 1200.24,918.529 1201.27,921.027 1202.3,923.731 1203.34,926.658 1204.37,929.832 1205.4,933.272 
  1206.44,936.981 1207.47,940.936 1208.51,945.103 1209.54,949.458 1210.57,954.003 1211.61,958.741 1212.64,963.682 1213.67,968.835 1214.71,974.207 1215.74,979.823 
  1216.78,985.712 1217.81,991.882 1218.84,998.346 1219.88,1005.13 1220.91,1012.26 1221.94,1019.77 1222.98,1027.65 1224.01,1035.85 1225.04,1044.4 1226.08,1053.35 
  1227.11,1062.79 1228.15,1072.76 1229.18,1083.27 1230.21,1094.23 1231.25,1105.58 1232.28,1117.26 1233.31,1129.22 1234.35,1141.48 1235.38,1154.14 1236.41,1167.39 
  1237.45,1181.41 1238.48,1196.29 1239.52,1211.92 1240.55,1227.96 1241.58,1243.9 1242.62,1259.18 1243.65,1273.3 1244.68,1285.8 1245.72,1296.31 1246.75,1304.53 
  1247.79,1310.17 1248.82,1313.07 1249.85,1313.33 1250.89,1311.27 1251.92,1307.09 1252.95,1300.73 1253.99,1292.2 1255.02,1281.55 1256.05,1269.05 1257.09,1255.25 
  1258.12,1240.95 1259.16,1226.86 1260.19,1213.58 1261.22,1201.46 1262.26,1190.59 1263.29,1180.88 1264.32,1172.2 1265.36,1164.42 1266.39,1157.32 1267.43,1150.73 
  1268.46,1144.52 1269.49,1138.58 1270.53,1132.75 1271.56,1126.91 1272.59,1121.03 1273.63,1115.2 1274.66,1109.59 1275.69,1104.29 1276.73,1099.31 1277.76,1094.63 
  1278.8,1090.24 1279.83,1086.2 1280.86,1082.55 1281.9,1079.32 1282.93,1076.45 1283.96,1073.82 1285,1071.27 1286.03,1068.72 1287.07,1066.16 1288.1,1063.68 
  1289.13,1061.36 1290.17,1059.3 1291.2,1057.57 1292.23,1056.2 1293.27,1055.18 1294.3,1054.51 1295.33,1054.24 1296.37,1054.38 1297.4,1054.91 1298.44,1055.79 
  1299.47,1056.89 1300.5,1058.11 1301.54,1059.39 1302.57,1060.8 1303.6,1062.44 1304.64,1064.44 1305.67,1066.92 1306.7,1069.92 1307.74,1073.41 1308.77,1077.31 
  1309.81,1081.44 1310.84,1085.66 1311.87,1089.89 1312.91,1094.09 1313.94,1098.18 1314.97,1102.12 1316.01,1105.87 1317.04,1109.4 1318.08,1112.7 1319.11,1115.79 
  1320.14,1118.79 1321.18,1121.87 1322.21,1125.26 1323.24,1129.15 1324.28,1133.49 1325.31,1138.04 1326.34,1142.49 1327.38,1146.68 1328.41,1150.66 1329.45,1154.71 
  1330.48,1159.22 1331.51,1164.34 1332.55,1170.12 1333.58,1176.56 1334.61,1183.51 1335.65,1190.79 1336.68,1198.26 1337.72,1205.93 1338.75,1213.95 1339.78,1222.36 
  1340.82,1231.11 1341.85,1240.1 1342.88,1249.02 1343.92,1257.57 1344.95,1265.43 1345.98,1272.08 1347.02,1276.97 1348.05,1279.75 1349.09,1280.6 1350.12,1280.17 
  1351.15,1279.22 1352.19,1278.31 1353.22,1277.8 1354.25,1277.82 1355.29,1278.22 1356.32,1278.77 1357.36,1279.05 1358.39,1278.65 1359.42,1277.14 1360.46,1274.2 
  1361.49,1269.86 1362.52,1264.37 1363.56,1258.1 1364.59,1251.39 1365.62,1244.53 1366.66,1237.75 1367.69,1231.2 1368.73,1224.93 1369.76,1218.97 1370.79,1213.45 
  1371.83,1208.49 1372.86,1204.02 1373.89,1199.81 1374.93,1195.61 1375.96,1191.19 1377,1186.49 1378.03,1181.71 1379.06,1177.14 1380.1,1172.85 1381.13,1168.86 
  1382.16,1165.12 1383.2,1161.64 1384.23,1158.54 1385.26,1156.04 1386.3,1154.44 1387.33,1153.84 1388.37,1153.97 1389.4,1154.38 1390.43,1154.57 1391.47,1154.2 
  1392.5,1153.18 1393.53,1151.74 1394.57,1150.13 1395.6,1148.56 1396.63,1147.05 1397.67,1145.6 1398.7,1144.11 1399.74,1142.37 1400.77,1140.26 1401.8,1137.84 
  1402.84,1135.21 1403.87,1132.55 1404.9,1130.01 1405.94,1127.66 1406.97,1125.7 1408.01,1124.39 1409.04,1123.93 1410.07,1124.24 1411.11,1125.08 1412.14,1126.16 
  1413.17,1127.11 1414.21,1127.61 1415.24,1127.61 1416.27,1127.19 1417.31,1126.4 1418.34,1125.23 1419.38,1123.77 1420.41,1122.19 1421.44,1120.61 1422.48,1119.16 
  1423.51,1117.97 1424.54,1116.95 1425.58,1115.9 1426.61,1114.62 1427.65,1113.07 1428.68,1111.32 1429.71,1109.61 1430.75,1108.08 1431.78,1106.78 1432.81,1105.74 
  1433.85,1104.92 1434.88,1104.21 1435.91,1103.58 1436.95,1103.03 1437.98,1102.64 1439.02,1102.44 1440.05,1102.3 1441.08,1102.06 1442.12,1101.62 1443.15,1100.99 
  1444.18,1100.23 1445.22,1099.4 1446.25,1098.49 1447.29,1097.51 1448.32,1096.61 1449.35,1096.01 1450.39,1095.88 1451.42,1096.18 1452.45,1096.62 1453.49,1096.94 
  1454.52,1097.06 1455.55,1096.99 1456.59,1096.71 1457.62,1096.13 1458.66,1095.18 1459.69,1093.93 1460.72,1092.61 1461.76,1091.5 1462.79,1090.76 1463.82,1090.42 
  1464.86,1090.44 1465.89,1090.78 1466.93,1091.43 1467.96,1092.39 1468.99,1093.55 1470.03,1094.83 1471.06,1096.09 1472.09,1097.23 1473.13,1098.2 1474.16,1099.11 
  1475.19,1100.21 1476.23,1101.82 1477.26,1104.14 1478.3,1107.24 1479.33,1110.97 1480.36,1115.06 1481.4,1119.15 1482.43,1123 1483.46,1126.47 1484.5,1129.62 
  1485.53,1132.74 1486.56,1136.11 1487.6,1139.82 1488.63,1143.69 1489.67,1147.36 1490.7,1150.49 1491.73,1153.12 1492.77,1155.58 1493.8,1158.22 1494.83,1161.39 
  1495.87,1165.34 1496.9,1169.84 1497.94,1174.21 1498.97,1177.69 1500,1179.82 1501.04,1180.56 1502.07,1180.22 1503.1,1179.36 1504.14,1178.38 1505.17,1177.35 
  1506.2,1176.17 1507.24,1174.66 1508.27,1172.65 1509.31,1170.05 1510.34,1166.94 1511.37,1163.38 1512.41,1159.44 1513.44,1155.1 1514.47,1150.25 1515.51,1144.77 
  1516.54,1138.6 1517.58,1131.77 1518.61,1124.38 1519.64,1116.58 1520.68,1108.46 1521.71,1100.15 1522.74,1091.78 1523.78,1083.47 1524.81,1075.3 1525.84,1067.29 
  1526.88,1059.48 1527.91,1051.88 1528.95,1044.55 1529.98,1037.56 1531.01,1030.95 1532.05,1024.7 1533.08,1018.7 1534.11,1012.78 1535.15,1006.92 1536.18,1001.14 
  1537.22,995.54 1538.25,990.151 1539.28,984.989 1540.32,980.048 1541.35,975.322 1542.38,970.779 1543.42,966.335 1544.45,961.914 1545.48,957.488 1546.52,953.1 
  1547.55,948.829 1548.59,944.727 1549.62,940.757 1550.65,936.838 1551.69,932.916 1552.72,929.014 1553.75,925.223 1554.79,921.651 1555.82,918.372 1556.86,915.394 
  1557.89,912.696 1558.92,910.252 1559.96,908.048 1560.99,906.078 1562.02,904.327 1563.06,902.776 1564.09,901.403 1565.12,900.171 1566.16,899.041 1567.19,897.972 
  1568.23,896.923 1569.26,895.874 1570.29,894.836 1571.33,893.842 1572.36,892.928 1573.39,892.125 1574.43,891.446 1575.46,890.906 1576.49,890.525 1577.53,890.321 
  1578.56,890.288 1579.6,890.41 1580.63,890.67 1581.66,891.058 1582.7,891.58 1583.73,892.245 1584.76,893.072 1585.8,894.078 1586.83,895.276 1587.87,896.663 
  1588.9,898.222 1589.93,899.934 1590.97,901.796 1592,903.825 1593.03,906.057 1594.07,908.513 1595.1,911.183 1596.13,914.037 1597.17,917.075 1598.2,920.333 
  1599.24,923.879 1600.27,927.791 1601.3,932.089 1602.34,936.707 1603.37,941.542 1604.4,946.504 1605.44,951.579 1606.47,956.831 1607.51,962.346 1608.54,968.201 
  1609.57,974.479 1610.61,981.248 1611.64,988.539 1612.67,996.375 1613.71,1004.77 1614.74,1013.73 1615.77,1023.28 1616.81,1033.52 1617.84,1044.56 1618.88,1056.42 
  1619.91,1069.02 1620.94,1082.24 1621.98,1095.91 1623.01,1109.94 1624.04,1124.26 1625.08,1138.77 1626.11,1153.26 1627.15,1167.49 1628.18,1181.09 1629.21,1193.67 
  1630.25,1204.85 1631.28,1214.28 1632.31,1221.79 1633.35,1227.27 1634.38,1230.5 1635.41,1231.02 1636.45,1228.38 1637.48,1222.63 1638.52,1214.18 1639.55,1203.49 
  1640.58,1191.07 1641.62,1177.62 1642.65,1163.89 1643.68,1150.31 1644.72,1136.96 1645.75,1123.73 1646.78,1110.55 1647.82,1097.45 1648.85,1084.6 1649.89,1072.24 
  1650.92,1060.44 1651.95,1049.07 1652.99,1037.91 1654.02,1026.89 1655.05,1016.09 1656.09,1005.67 1657.12,995.742 1658.16,986.351 1659.19,977.454 1660.22,968.99 
  1661.26,960.893 1662.29,953.105 1663.32,945.592 1664.36,938.338 1665.39,931.338 1666.42,924.597 1667.46,918.129 1668.49,911.939 1669.53,906.016 1670.56,900.347 
  1671.59,894.925 1672.63,889.757 1673.66,884.859 1674.69,880.224 1675.73,875.838 1676.76,871.683 1677.8,867.732 1678.83,863.954 1679.86,860.331 1680.9,856.86 
  1681.93,853.55 1682.96,850.416 1684,847.483 1685.03,844.753 1686.06,842.202 1687.1,839.796 1688.13,837.516 1689.17,835.356 1690.2,833.33 1691.23,831.457 
  1692.27,829.744 1693.3,828.187 1694.33,826.783 1695.37,825.536 1696.4,824.444 1697.44,823.499 1698.47,822.688 1699.5,822 1700.54,821.44 1701.57,821.029 
  1702.6,820.792 1703.64,820.745 1704.67,820.89 1705.7,821.217 1706.74,821.713 1707.77,822.355 1708.81,823.128 1709.84,824.03 1710.87,825.057 1711.91,826.195 
  1712.94,827.444 1713.97,828.804 1715.01,830.275 1716.04,831.858 1717.08,833.57 1718.11,835.433 1719.14,837.459 1720.18,839.645 1721.21,841.981 1722.24,844.446 
  1723.28,846.999 1724.31,849.619 1725.34,852.314 1726.38,855.133 1727.41,858.155 1728.45,861.461 1729.48,865.075 1730.51,868.967 1731.55,873.09 1732.58,877.411 
  1733.61,881.917 1734.65,886.6 1735.68,891.454 1736.71,896.457 1737.75,901.589 1738.78,906.855 1739.82,912.298 1740.85,917.998 1741.88,924.027 1742.92,930.403 
  1743.95,937.112 1744.98,944.126 1746.02,951.429 1747.05,959.035 1748.09,966.974 1749.12,975.261 1750.15,983.881 1751.19,992.794 1752.22,1001.99 1753.25,1011.54 
  1754.29,1021.54 1755.32,1032.11 1756.35,1043.31 1757.39,1055.18 1758.42,1067.64 1759.46,1080.63 1760.49,1094.07 1761.52,1107.99 1762.56,1122.39 1763.59,1137.26 
  1764.62,1152.55 1765.66,1168.14 1766.69,1183.76 1767.73,1198.97 1768.76,1213.22 1769.79,1225.89 1770.83,1236.35 1771.86,1244.01 1772.89,1248.24 1773.93,1248.75 
  1774.96,1245.58 1775.99,1238.91 1777.03,1229.17 1778.06,1217.25 1779.1,1204.19 1780.13,1190.84 1781.16,1177.72 1782.2,1164.9 1783.23,1152.2 1784.26,1139.48 
  1785.3,1126.74 1786.33,1114.15 1787.37,1101.75 1788.4,1089.49 1789.43,1077.28 1790.47,1065.19 1791.5,1053.43 1792.53,1042.29 1793.57,1031.86 1794.6,1022.13 
  1795.63,1012.97 1796.67,1004.22 1797.7,995.782 1798.74,987.627 1799.77,979.769 1800.8,972.211 1801.84,964.961 1802.87,957.998 1803.9,951.306 1804.94,944.903 
  1805.97,938.778 1807.01,932.891 1808.04,927.194 1809.07,921.632 1810.11,916.182 1811.14,910.859 1812.17,905.699 1813.21,900.736 1814.24,895.974 1815.27,891.388 
  1816.31,886.949 1817.34,882.644 1818.38,878.485 1819.41,874.505 1820.44,870.735 1821.48,867.188 1822.51,863.852 1823.54,860.701 1824.58,857.702 1825.61,854.827 
  1826.64,852.06 1827.68,849.407 1828.71,846.893 1829.75,844.548 1830.78,842.378 1831.81,840.378 1832.85,838.538 1833.88,836.84 1834.91,835.276 1835.95,833.845 
  1836.98,832.545 1838.02,831.383 1839.05,830.371 1840.08,829.523 1841.12,828.847 1842.15,828.339 1843.18,827.991 1844.22,827.797 1845.25,827.746 1846.28,827.829 
  1847.32,828.04 1848.35,828.374 1849.39,828.826 1850.42,829.403 1851.45,830.109 1852.49,830.955 1853.52,831.96 1854.55,833.133 1855.59,834.469 1856.62,835.952 
  1857.66,837.569 1858.69,839.328 1859.72,841.246 1860.76,843.35 1861.79,845.652 1862.82,848.155 1863.86,850.845 1864.89,853.695 1865.92,856.691 1866.96,859.839 
  1867.99,863.154 1869.03,866.653 1870.06,870.356 1871.09,874.274 1872.13,878.422 1873.16,882.801 1874.19,887.403 1875.23,892.205 1876.26,897.195 1877.3,902.389 
  1878.33,907.839 1879.36,913.629 1880.4,919.817 1881.43,926.411 1882.46,933.366 1883.5,940.606 1884.53,948.074 1885.56,955.742 1886.6,963.619 1887.63,971.714 
  1888.67,980.044 1889.7,988.663 1890.73,997.687 1891.77,1007.26 1892.8,1017.45 1893.83,1028.22 1894.87,1039.38 1895.9,1050.65 1896.94,1061.72 1897.97,1072.37 
  1899,1082.49 1900.04,1091.89 1901.07,1100.18 1902.1,1106.84 1903.14,1111.45 1904.17,1113.86 1905.2,1114.25 1906.24,1112.82 1907.27,1109.71 1908.31,1104.93 
  1909.34,1098.5 1910.37,1090.5 1911.41,1081.1 1912.44,1070.52 1913.47,1058.94 1914.51,1046.62 1915.54,1033.89 1916.57,1021.01 1917.61,1008.18 1918.64,995.491 
  1919.68,983.021 1920.71,970.808 1921.74,958.933 1922.78,947.48 1923.81,936.455 1924.84,925.814 1925.88,915.516 1926.91,905.53 1927.95,895.845 1928.98,886.461 
  1930.01,877.372 1931.05,868.573 1932.08,860.064 1933.11,851.854 1934.15,843.957 1935.18,836.39 1936.21,829.149 1937.25,822.215 1938.28,815.562 1939.32,809.167 
  1940.35,803.015 1941.38,797.096 1942.42,791.409 1943.45,785.955 1944.48,780.735 1945.52,775.753 1946.55,771.006 1947.59,766.497 1948.62,762.218 1949.65,758.161 
  1950.69,754.318 1951.72,750.681 1952.75,747.236 1953.79,743.971 1954.82,740.876 1955.85,737.945 1956.89,735.174 1957.92,732.553 1958.96,730.073 1959.99,727.725 
  1961.02,725.503 1962.06,723.409 1963.09,721.444 1964.12,719.607 1965.16,717.898 1966.19,716.32 1967.23,714.877 1968.26,713.57 1969.29,712.398 1970.33,711.362 
  1971.36,710.462 1972.39,709.702 1973.43,709.091 1974.46,708.636 1975.49,708.34 1976.53,708.199 1977.56,708.209 1978.6,708.362 1979.63,708.651 1980.66,709.071 
  1981.7,709.614 1982.73,710.278 1983.76,711.064 1984.8,711.974 1985.83,713.019 1986.86,714.209 1987.9,715.561 1988.93,717.084 1989.97,718.782 1991,720.658 
  1992.03,722.718 1993.07,724.972 1994.1,727.426 1995.13,730.083 1996.17,732.94 1997.2,735.99 1998.24,739.223 1999.27,742.637 2000.3,746.245 2001.34,750.059 
  2002.37,754.094 2003.4,758.359 2004.44,762.859 2005.47,767.597 2006.5,772.577 2007.54,777.809 2008.57,783.306 2009.61,789.074 2010.64,795.127 2011.67,801.489 
  2012.71,808.2 2013.74,815.293 2014.77,822.782 2015.81,830.672 2016.84,838.968 2017.88,847.688 2018.91,856.866 2019.94,866.545 2020.98,876.77 2022.01,887.569 
  2023.04,898.956 2024.08,910.945 2025.11,923.564 2026.14,936.858 2027.18,950.884 2028.21,965.729 2029.25,981.5 2030.28,998.266 2031.31,1016.03 2032.35,1034.79 
  2033.38,1054.52 2034.41,1075.23 2035.45,1096.87 2036.48,1119.23 2037.52,1141.78 2038.55,1163.64 2039.58,1183.54 2040.62,1199.82 2041.65,1210.62 2042.68,1214.42 
  2043.72,1210.62 2044.75,1199.78 2045.78,1183.38 2046.82,1163.29 2047.85,1141.26 2048.89,1118.62 2049.92,1096.16 2050.95,1074.26 2051.99,1053.08 2053.02,1032.74 
  2054.05,1013.37 2055.09,995.072 2056.12,977.827 2057.16,961.575 2058.19,946.224 2059.22,931.718 2060.26,918.038 2061.29,905.166 2062.32,893.065 2063.36,881.667 
  2064.39,870.881 2065.42,860.618 2066.46,850.814 2067.49,841.421 2068.53,832.414 2069.56,823.773 2070.59,815.478 2071.63,807.51 2072.66,799.854 2073.69,792.496 
  2074.73,785.437 2075.76,778.674 2076.79,772.198 2077.83,766.002 2078.86,760.072 2079.9,754.388 2080.93,748.929 2081.96,743.685 2083,738.652 2084.03,733.827 
  2085.06,729.212 2086.1,724.809 2087.13,720.618 2088.17,716.631 2089.2,712.842 2090.23,709.241 2091.27,705.819 2092.3,702.571 2093.33,699.501 2094.37,696.612 
  2095.4,693.904 2096.43,691.376 2097.47,689.027 2098.5,686.856 2099.54,684.865 2100.57,683.057 2101.6,681.431 2102.64,679.985 2103.67,678.715 2104.7,677.615 
  2105.74,676.678 2106.77,675.892 2107.81,675.252 2108.84,674.757 2109.87,674.412 2110.91,674.227 2111.94,674.208 2112.97,674.355 2114.01,674.663 2115.04,675.127 
  2116.07,675.744 2117.11,676.52 2118.14,677.462 2119.18,678.579 2120.21,679.879 2121.24,681.364 2122.28,683.033 2123.31,684.884 2124.34,686.912 2125.38,689.114 
  2126.41,691.489 2127.45,694.04 2128.48,696.784 2129.51,699.737 2130.55,702.919 2131.58,706.344 2132.61,710.011 2133.65,713.911 2134.68,718.035 2135.71,722.381 
  2136.75,726.95 2137.78,731.752 2138.82,736.796 2139.85,742.089 2140.88,747.639 2141.92,753.452 2142.95,759.542 2143.98,765.922 2145.02,772.609 2146.05,779.621 
  2147.09,786.981 2148.12,794.714 2149.15,802.842 2150.19,811.389 2151.22,820.383 2152.25,829.848 2153.29,839.809 2154.32,850.286 2155.35,861.301 2156.39,872.866 
  2157.42,885.003 2158.46,897.758 2159.49,911.189 2160.52,925.366 2161.56,940.344 2162.59,956.149 2163.62,972.763 2164.66,990.127 2165.69,1008.1 2166.72,1026.47 
  2167.76,1044.88 2168.79,1062.87 2169.83,1079.81 2170.86,1094.83 2171.89,1106.83 2172.93,1114.67 2173.96,1117.38 2174.99,1114.61 2176.03,1106.71 2177.06,1094.55 
  2178.1,1079.24 2179.13,1061.81 2180.16,1043.16 2181.2,1024.02 2182.23,1004.94 2183.26,986.304 2184.3,968.339 2185.33,951.145 2186.36,934.763 2187.4,919.179 
  2188.43,904.35 2189.47,890.232 2190.5,876.776 2191.53,863.926 2192.57,851.65 2193.6,839.944 2194.63,828.801 2195.67,818.203 2196.7,808.12 2197.74,798.514 
  2198.77,789.344 2199.8,780.578 2200.84,772.204 2201.87,764.209 2202.9,756.577 2203.94,749.288 2204.97,742.329 2206,735.682 2207.04,729.326 2208.07,723.233 
  2209.11,717.378 2210.14,711.743 2211.17,706.319 2212.21,701.1 2213.24,696.075 2214.27,691.233 2215.31,686.562 2216.34,682.054 2217.38,677.706 2218.41,673.509 
  2219.44,669.453 2220.48,665.525 2221.51,661.717 2222.54,658.023 2223.58,654.442 2224.61,650.975 2225.64,647.619 2226.68,644.372 2227.71,641.23 2228.75,638.192 
  2229.78,635.256 2230.81,632.425 2231.85,629.702 2232.88,627.088 2233.91,624.58 2234.95,622.177 2235.98,619.876 2237.02,617.68 2238.05,615.596 2239.08,613.629 
  2240.12,611.78 2241.15,610.046 2242.18,608.426 2243.22,606.922 2244.25,605.54 2245.28,604.284 2246.32,603.161 2247.35,602.173 2248.39,601.326 2249.42,600.626 
  2250.45,600.076 2251.49,599.679 2252.52,599.436 2253.55,599.352 2254.59,599.429 2255.62,599.67 2256.65,600.072 2257.69,600.628 2258.72,601.335 2259.76,602.19 
  2260.79,603.198 2261.82,604.359 2262.86,605.678 2263.89,607.153 2264.92,608.784 2265.96,610.572 2266.99,612.515 2268.03,614.616 2269.06,616.877 2270.09,619.298 
  2271.13,621.88 2272.16,624.622 2273.19,627.519 2274.23,630.565 2275.26,633.759 2276.29,637.105 2277.33,640.615 2278.36,644.295 2279.4,648.15 2280.43,652.178 
  2281.46,656.373 2282.5,660.735 2283.53,665.265 2284.56,669.97 2285.6,674.857 2286.63,679.934 2287.67,685.208 2288.7,690.686 2289.73,696.381 2290.77,702.305 
  
  "/>
<path clip-path="url(#clip7300)" d="
M1989.74 251.724 L2280.76 251.724 L2280.76 130.764 L1989.74 130.764  Z
  " fill="#ffffff" fill-rule="evenodd" fill-opacity="1"/>
<polyline clip-path="url(#clip7300)" style="stroke:#000000; stroke-width:4; stroke-opacity:1; fill:none" points="
  1989.74,251.724 2280.76,251.724 2280.76,130.764 1989.74,130.764 1989.74,251.724 
  "/>
<polyline clip-path="url(#clip7300)" style="stroke:#009af9; stroke-width:4; stroke-opacity:1; fill:none" points="
  2013.74,191.244 2157.74,191.244 
  "/>
<path clip-path="url(#clip7300)" d="M 0 0 M2195.58 210.931 Q2193.77 215.561 2192.06 216.973 Q2190.35 218.385 2187.48 218.385 L2184.08 218.385 L2184.08 214.82 L2186.58 214.82 Q2188.33 214.82 2189.31 213.987 Q2190.28 213.154 2191.46 210.052 L2192.22 208.107 L2181.74 182.598 L2186.25 182.598 L2194.35 202.876 L2202.46 182.598 L2206.97 182.598 L2195.58 210.931 Z" fill="#000000" fill-rule="evenodd" fill-opacity="1" /><path clip-path="url(#clip7300)" d="M 0 0 M2212.85 204.589 L2220.49 204.589 L2220.49 178.223 L2212.18 179.89 L2212.18 175.631 L2220.44 173.964 L2225.12 173.964 L2225.12 204.589 L2232.76 204.589 L2232.76 208.524 L2212.85 208.524 L2212.85 204.589 Z" fill="#000000" fill-rule="evenodd" fill-opacity="1" /></svg>
