<?xml version="1.0" encoding="utf-8"?>
<svg xmlns="http://www.w3.org/2000/svg" xmlns:xlink="http://www.w3.org/1999/xlink" width="600" height="400" viewBox="0 0 2400 1600">
<defs>
  <clipPath id="clip080">
    <rect x="0" y="0" width="2400" height="1600"/>
  </clipPath>
</defs>
<path clip-path="url(#clip080)" d="
M0 1600 L2400 1600 L2400 0 L0 0  Z
  " fill="#ffffff" fill-rule="evenodd" fill-opacity="1"/>
<defs>
  <clipPath id="clip081">
    <rect x="480" y="0" width="1681" height="1600"/>
  </clipPath>
</defs>
<path clip-path="url(#clip080)" d="
M179.654 1486.45 L2352.76 1486.45 L2352.76 47.2441 L179.654 47.2441  Z
  " fill="#ffffff" fill-rule="evenodd" fill-opacity="1"/>
<defs>
  <clipPath id="clip082">
    <rect x="179" y="47" width="2174" height="1440"/>
  </clipPath>
</defs>
<polyline clip-path="url(#clip082)" style="stroke:#000000; stroke-width:2; stroke-opacity:0.1; fill:none" points="
  240.131,1486.45 240.131,47.2441 
  "/>
<polyline clip-path="url(#clip082)" style="stroke:#000000; stroke-width:2; stroke-opacity:0.1; fill:none" points="
  752.912,1486.45 752.912,47.2441 
  "/>
<polyline clip-path="url(#clip082)" style="stroke:#000000; stroke-width:2; stroke-opacity:0.1; fill:none" points="
  1265.69,1486.45 1265.69,47.2441 
  "/>
<polyline clip-path="url(#clip082)" style="stroke:#000000; stroke-width:2; stroke-opacity:0.1; fill:none" points="
  1778.47,1486.45 1778.47,47.2441 
  "/>
<polyline clip-path="url(#clip082)" style="stroke:#000000; stroke-width:2; stroke-opacity:0.1; fill:none" points="
  2291.25,1486.45 2291.25,47.2441 
  "/>
<polyline clip-path="url(#clip082)" style="stroke:#000000; stroke-width:2; stroke-opacity:0.1; fill:none" points="
  179.654,1383.87 2352.76,1383.87 
  "/>
<polyline clip-path="url(#clip082)" style="stroke:#000000; stroke-width:2; stroke-opacity:0.1; fill:none" points="
  179.654,1036.86 2352.76,1036.86 
  "/>
<polyline clip-path="url(#clip082)" style="stroke:#000000; stroke-width:2; stroke-opacity:0.1; fill:none" points="
  179.654,689.846 2352.76,689.846 
  "/>
<polyline clip-path="url(#clip082)" style="stroke:#000000; stroke-width:2; stroke-opacity:0.1; fill:none" points="
  179.654,342.835 2352.76,342.835 
  "/>
<polyline clip-path="url(#clip080)" style="stroke:#000000; stroke-width:4; stroke-opacity:1; fill:none" points="
  179.654,1486.45 2352.76,1486.45 
  "/>
<polyline clip-path="url(#clip080)" style="stroke:#000000; stroke-width:4; stroke-opacity:1; fill:none" points="
  179.654,1486.45 179.654,47.2441 
  "/>
<polyline clip-path="url(#clip080)" style="stroke:#000000; stroke-width:4; stroke-opacity:1; fill:none" points="
  240.131,1486.45 240.131,1469.18 
  "/>
<polyline clip-path="url(#clip080)" style="stroke:#000000; stroke-width:4; stroke-opacity:1; fill:none" points="
  752.912,1486.45 752.912,1469.18 
  "/>
<polyline clip-path="url(#clip080)" style="stroke:#000000; stroke-width:4; stroke-opacity:1; fill:none" points="
  1265.69,1486.45 1265.69,1469.18 
  "/>
<polyline clip-path="url(#clip080)" style="stroke:#000000; stroke-width:4; stroke-opacity:1; fill:none" points="
  1778.47,1486.45 1778.47,1469.18 
  "/>
<polyline clip-path="url(#clip080)" style="stroke:#000000; stroke-width:4; stroke-opacity:1; fill:none" points="
  2291.25,1486.45 2291.25,1469.18 
  "/>
<polyline clip-path="url(#clip080)" style="stroke:#000000; stroke-width:4; stroke-opacity:1; fill:none" points="
  179.654,1383.87 205.731,1383.87 
  "/>
<polyline clip-path="url(#clip080)" style="stroke:#000000; stroke-width:4; stroke-opacity:1; fill:none" points="
  179.654,1036.86 205.731,1036.86 
  "/>
<polyline clip-path="url(#clip080)" style="stroke:#000000; stroke-width:4; stroke-opacity:1; fill:none" points="
  179.654,689.846 205.731,689.846 
  "/>
<polyline clip-path="url(#clip080)" style="stroke:#000000; stroke-width:4; stroke-opacity:1; fill:none" points="
  179.654,342.835 205.731,342.835 
  "/>
<path clip-path="url(#clip080)" d="M 0 0 M240.131 1508.44 Q236.52 1508.44 234.691 1512 Q232.886 1515.55 232.886 1522.67 Q232.886 1529.78 234.691 1533.35 Q236.52 1536.89 240.131 1536.89 Q243.765 1536.89 245.571 1533.35 Q247.399 1529.78 247.399 1522.67 Q247.399 1515.55 245.571 1512 Q243.765 1508.44 240.131 1508.44 M240.131 1504.73 Q245.941 1504.73 248.997 1509.34 Q252.075 1513.92 252.075 1522.67 Q252.075 1531.4 248.997 1536.01 Q245.941 1540.59 240.131 1540.59 Q234.321 1540.59 231.242 1536.01 Q228.187 1531.4 228.187 1522.67 Q228.187 1513.92 231.242 1509.34 Q234.321 1504.73 240.131 1504.73 Z" fill="#000000" fill-rule="evenodd" fill-opacity="1" /><path clip-path="url(#clip080)" d="M 0 0 M729.787 1535.98 L737.425 1535.98 L737.425 1509.62 L729.115 1511.29 L729.115 1507.03 L737.379 1505.36 L742.055 1505.36 L742.055 1535.98 L749.694 1535.98 L749.694 1539.92 L729.787 1539.92 L729.787 1535.98 Z" fill="#000000" fill-rule="evenodd" fill-opacity="1" /><path clip-path="url(#clip080)" d="M 0 0 M764.763 1508.44 Q761.152 1508.44 759.324 1512 Q757.518 1515.55 757.518 1522.67 Q757.518 1529.78 759.324 1533.35 Q761.152 1536.89 764.763 1536.89 Q768.398 1536.89 770.203 1533.35 Q772.032 1529.78 772.032 1522.67 Q772.032 1515.55 770.203 1512 Q768.398 1508.44 764.763 1508.44 M764.763 1504.73 Q770.573 1504.73 773.629 1509.34 Q776.708 1513.92 776.708 1522.67 Q776.708 1531.4 773.629 1536.01 Q770.573 1540.59 764.763 1540.59 Q758.953 1540.59 755.874 1536.01 Q752.819 1531.4 752.819 1522.67 Q752.819 1513.92 755.874 1509.34 Q758.953 1504.73 764.763 1504.73 Z" fill="#000000" fill-rule="evenodd" fill-opacity="1" /><path clip-path="url(#clip080)" d="M 0 0 M1246.84 1535.98 L1263.16 1535.98 L1263.16 1539.92 L1241.21 1539.92 L1241.21 1535.98 Q1243.87 1533.23 1248.46 1528.6 Q1253.06 1523.95 1254.25 1522.61 Q1256.49 1520.08 1257.37 1518.35 Q1258.27 1516.59 1258.27 1514.9 Q1258.27 1512.14 1256.33 1510.41 Q1254.41 1508.67 1251.31 1508.67 Q1249.11 1508.67 1246.65 1509.43 Q1244.22 1510.2 1241.44 1511.75 L1241.44 1507.03 Q1244.27 1505.89 1246.72 1505.31 Q1249.18 1504.73 1251.21 1504.73 Q1256.58 1504.73 1259.78 1507.42 Q1262.97 1510.11 1262.97 1514.6 Q1262.97 1516.73 1262.16 1518.65 Q1261.37 1520.54 1259.27 1523.14 Q1258.69 1523.81 1255.59 1527.03 Q1252.49 1530.22 1246.84 1535.98 Z" fill="#000000" fill-rule="evenodd" fill-opacity="1" /><path clip-path="url(#clip080)" d="M 0 0 M1278.23 1508.44 Q1274.62 1508.44 1272.79 1512 Q1270.98 1515.55 1270.98 1522.67 Q1270.98 1529.78 1272.79 1533.35 Q1274.62 1536.89 1278.23 1536.89 Q1281.86 1536.89 1283.67 1533.35 Q1285.5 1529.78 1285.5 1522.67 Q1285.5 1515.55 1283.67 1512 Q1281.86 1508.44 1278.23 1508.44 M1278.23 1504.73 Q1284.04 1504.73 1287.09 1509.34 Q1290.17 1513.92 1290.17 1522.67 Q1290.17 1531.4 1287.09 1536.01 Q1284.04 1540.59 1278.23 1540.59 Q1272.42 1540.59 1269.34 1536.01 Q1266.28 1531.4 1266.28 1522.67 Q1266.28 1513.92 1269.34 1509.34 Q1272.42 1504.73 1278.23 1504.73 Z" fill="#000000" fill-rule="evenodd" fill-opacity="1" /><path clip-path="url(#clip080)" d="M 0 0 M1769.21 1521.29 Q1772.57 1522 1774.44 1524.27 Q1776.34 1526.54 1776.34 1529.87 Q1776.34 1534.99 1772.82 1537.79 Q1769.31 1540.59 1762.82 1540.59 Q1760.65 1540.59 1758.33 1540.15 Q1756.04 1539.73 1753.59 1538.88 L1753.59 1534.36 Q1755.53 1535.5 1757.85 1536.08 Q1760.16 1536.66 1762.69 1536.66 Q1767.08 1536.66 1769.38 1534.92 Q1771.69 1533.18 1771.69 1529.87 Q1771.69 1526.82 1769.54 1525.11 Q1767.41 1523.37 1763.59 1523.37 L1759.56 1523.37 L1759.56 1519.53 L1763.77 1519.53 Q1767.22 1519.53 1769.05 1518.16 Q1770.88 1516.77 1770.88 1514.18 Q1770.88 1511.52 1768.98 1510.11 Q1767.11 1508.67 1763.59 1508.67 Q1761.67 1508.67 1759.47 1509.09 Q1757.27 1509.5 1754.63 1510.38 L1754.63 1506.22 Q1757.29 1505.48 1759.61 1505.11 Q1761.94 1504.73 1764 1504.73 Q1769.33 1504.73 1772.43 1507.17 Q1775.53 1509.57 1775.53 1513.69 Q1775.53 1516.56 1773.89 1518.55 Q1772.25 1520.52 1769.21 1521.29 Z" fill="#000000" fill-rule="evenodd" fill-opacity="1" /><path clip-path="url(#clip080)" d="M 0 0 M1791.41 1508.44 Q1787.8 1508.44 1785.97 1512 Q1784.17 1515.55 1784.17 1522.67 Q1784.17 1529.78 1785.97 1533.35 Q1787.8 1536.89 1791.41 1536.89 Q1795.05 1536.89 1796.85 1533.35 Q1798.68 1529.78 1798.68 1522.67 Q1798.68 1515.55 1796.85 1512 Q1795.05 1508.44 1791.41 1508.44 M1791.41 1504.73 Q1797.22 1504.73 1800.28 1509.34 Q1803.36 1513.92 1803.36 1522.67 Q1803.36 1531.4 1800.28 1536.01 Q1797.22 1540.59 1791.41 1540.59 Q1785.6 1540.59 1782.52 1536.01 Q1779.47 1531.4 1779.47 1522.67 Q1779.47 1513.92 1782.52 1509.34 Q1785.6 1504.73 1791.41 1504.73 Z" fill="#000000" fill-rule="evenodd" fill-opacity="1" /><path clip-path="url(#clip080)" d="M 0 0 M2280.76 1509.43 L2268.95 1527.88 L2280.76 1527.88 L2280.76 1509.43 M2279.53 1505.36 L2285.41 1505.36 L2285.41 1527.88 L2290.34 1527.88 L2290.34 1531.77 L2285.41 1531.77 L2285.41 1539.92 L2280.76 1539.92 L2280.76 1531.77 L2265.15 1531.77 L2265.15 1527.26 L2279.53 1505.36 Z" fill="#000000" fill-rule="evenodd" fill-opacity="1" /><path clip-path="url(#clip080)" d="M 0 0 M2305.41 1508.44 Q2301.8 1508.44 2299.97 1512 Q2298.16 1515.55 2298.16 1522.67 Q2298.16 1529.78 2299.97 1533.35 Q2301.8 1536.89 2305.41 1536.89 Q2309.04 1536.89 2310.85 1533.35 Q2312.68 1529.78 2312.68 1522.67 Q2312.68 1515.55 2310.85 1512 Q2309.04 1508.44 2305.41 1508.44 M2305.41 1504.73 Q2311.22 1504.73 2314.27 1509.34 Q2317.35 1513.92 2317.35 1522.67 Q2317.35 1531.4 2314.27 1536.01 Q2311.22 1540.59 2305.41 1540.59 Q2299.6 1540.59 2296.52 1536.01 Q2293.46 1531.4 2293.46 1522.67 Q2293.46 1513.92 2296.52 1509.34 Q2299.6 1504.73 2305.41 1504.73 Z" fill="#000000" fill-rule="evenodd" fill-opacity="1" /><path clip-path="url(#clip080)" d="M 0 0 M63.8949 1384.32 L93.5707 1384.32 L93.5707 1388.26 L63.8949 1388.26 L63.8949 1384.32 Z" fill="#000000" fill-rule="evenodd" fill-opacity="1" /><path clip-path="url(#clip080)" d="M 0 0 M97.4595 1366.59 L119.682 1366.59 L119.682 1368.58 L107.135 1401.15 L102.251 1401.15 L114.057 1370.52 L97.4595 1370.52 L97.4595 1366.59 Z" fill="#000000" fill-rule="evenodd" fill-opacity="1" /><path clip-path="url(#clip080)" d="M 0 0 M124.751 1395.27 L129.635 1395.27 L129.635 1401.15 L124.751 1401.15 L124.751 1395.27 Z" fill="#000000" fill-rule="evenodd" fill-opacity="1" /><path clip-path="url(#clip080)" d="M 0 0 M134.751 1366.59 L153.107 1366.59 L153.107 1370.52 L139.033 1370.52 L139.033 1379 Q140.052 1378.65 141.07 1378.49 Q142.089 1378.3 143.107 1378.3 Q148.894 1378.3 152.274 1381.47 Q155.654 1384.64 155.654 1390.06 Q155.654 1395.64 152.181 1398.74 Q148.709 1401.82 142.39 1401.82 Q140.214 1401.82 137.945 1401.45 Q135.7 1401.08 133.293 1400.34 L133.293 1395.64 Q135.376 1396.77 137.598 1397.33 Q139.82 1397.89 142.297 1397.89 Q146.302 1397.89 148.64 1395.78 Q150.978 1393.67 150.978 1390.06 Q150.978 1386.45 148.64 1384.34 Q146.302 1382.24 142.297 1382.24 Q140.422 1382.24 138.547 1382.65 Q136.695 1383.07 134.751 1383.95 L134.751 1366.59 Z" fill="#000000" fill-rule="evenodd" fill-opacity="1" /><path clip-path="url(#clip080)" d="M 0 0 M62.9921 1037.31 L92.6679 1037.31 L92.6679 1041.24 L62.9921 1041.24 L62.9921 1037.31 Z" fill="#000000" fill-rule="evenodd" fill-opacity="1" /><path clip-path="url(#clip080)" d="M 0 0 M97.7836 1019.58 L116.14 1019.58 L116.14 1023.51 L102.066 1023.51 L102.066 1031.98 Q103.085 1031.64 104.103 1031.48 Q105.122 1031.29 106.14 1031.29 Q111.927 1031.29 115.307 1034.46 Q118.686 1037.63 118.686 1043.05 Q118.686 1048.63 115.214 1051.73 Q111.742 1054.81 105.422 1054.81 Q103.247 1054.81 100.978 1054.44 Q98.7327 1054.07 96.3253 1053.33 L96.3253 1048.63 Q98.4086 1049.76 100.631 1050.32 Q102.853 1050.87 105.33 1050.87 Q109.334 1050.87 111.672 1048.77 Q114.01 1046.66 114.01 1043.05 Q114.01 1039.44 111.672 1037.33 Q109.334 1035.23 105.33 1035.23 Q103.455 1035.23 101.58 1035.64 Q99.728 1036.06 97.7836 1036.94 L97.7836 1019.58 Z" fill="#000000" fill-rule="evenodd" fill-opacity="1" /><path clip-path="url(#clip080)" d="M 0 0 M123.756 1048.26 L128.64 1048.26 L128.64 1054.14 L123.756 1054.14 L123.756 1048.26 Z" fill="#000000" fill-rule="evenodd" fill-opacity="1" /><path clip-path="url(#clip080)" d="M 0 0 M143.709 1022.66 Q140.098 1022.66 138.27 1026.22 Q136.464 1029.76 136.464 1036.89 Q136.464 1044 138.27 1047.56 Q140.098 1051.11 143.709 1051.11 Q147.344 1051.11 149.149 1047.56 Q150.978 1044 150.978 1036.89 Q150.978 1029.76 149.149 1026.22 Q147.344 1022.66 143.709 1022.66 M143.709 1018.95 Q149.519 1018.95 152.575 1023.56 Q155.654 1028.14 155.654 1036.89 Q155.654 1045.62 152.575 1050.23 Q149.519 1054.81 143.709 1054.81 Q137.899 1054.81 134.82 1050.23 Q131.765 1045.62 131.765 1036.89 Q131.765 1028.14 134.82 1023.56 Q137.899 1018.95 143.709 1018.95 Z" fill="#000000" fill-rule="evenodd" fill-opacity="1" /><path clip-path="url(#clip080)" d="M 0 0 M64.5893 690.298 L94.2651 690.298 L94.2651 694.233 L64.5893 694.233 L64.5893 690.298 Z" fill="#000000" fill-rule="evenodd" fill-opacity="1" /><path clip-path="url(#clip080)" d="M 0 0 M103.362 703.191 L119.682 703.191 L119.682 707.126 L97.7373 707.126 L97.7373 703.191 Q100.399 700.436 104.983 695.807 Q109.589 691.154 110.77 689.811 Q113.015 687.288 113.895 685.552 Q114.797 683.793 114.797 682.103 Q114.797 679.348 112.853 677.612 Q110.932 675.876 107.83 675.876 Q105.631 675.876 103.177 676.64 Q100.747 677.404 97.9688 678.955 L97.9688 674.233 Q100.793 673.099 103.247 672.52 Q105.7 671.941 107.737 671.941 Q113.108 671.941 116.302 674.626 Q119.496 677.311 119.496 681.802 Q119.496 683.932 118.686 685.853 Q117.899 687.751 115.793 690.344 Q115.214 691.015 112.112 694.233 Q109.01 697.427 103.362 703.191 Z" fill="#000000" fill-rule="evenodd" fill-opacity="1" /><path clip-path="url(#clip080)" d="M 0 0 M124.751 701.247 L129.635 701.247 L129.635 707.126 L124.751 707.126 L124.751 701.247 Z" fill="#000000" fill-rule="evenodd" fill-opacity="1" /><path clip-path="url(#clip080)" d="M 0 0 M134.751 672.566 L153.107 672.566 L153.107 676.501 L139.033 676.501 L139.033 684.973 Q140.052 684.626 141.07 684.464 Q142.089 684.279 143.107 684.279 Q148.894 684.279 152.274 687.45 Q155.654 690.622 155.654 696.038 Q155.654 701.617 152.181 704.719 Q148.709 707.797 142.39 707.797 Q140.214 707.797 137.945 707.427 Q135.7 707.057 133.293 706.316 L133.293 701.617 Q135.376 702.751 137.598 703.307 Q139.82 703.862 142.297 703.862 Q146.302 703.862 148.64 701.756 Q150.978 699.649 150.978 696.038 Q150.978 692.427 148.64 690.321 Q146.302 688.214 142.297 688.214 Q140.422 688.214 138.547 688.631 Q136.695 689.048 134.751 689.927 L134.751 672.566 Z" fill="#000000" fill-rule="evenodd" fill-opacity="1" /><path clip-path="url(#clip080)" d="M 0 0 M106.742 328.633 Q103.131 328.633 101.302 332.198 Q99.4966 335.74 99.4966 342.869 Q99.4966 349.976 101.302 353.541 Q103.131 357.082 106.742 357.082 Q110.376 357.082 112.182 353.541 Q114.01 349.976 114.01 342.869 Q114.01 335.74 112.182 332.198 Q110.376 328.633 106.742 328.633 M106.742 324.93 Q112.552 324.93 115.608 329.536 Q118.686 334.119 118.686 342.869 Q118.686 351.596 115.608 356.203 Q112.552 360.786 106.742 360.786 Q100.932 360.786 97.8531 356.203 Q94.7975 351.596 94.7975 342.869 Q94.7975 334.119 97.8531 329.536 Q100.932 324.93 106.742 324.93 Z" fill="#000000" fill-rule="evenodd" fill-opacity="1" /><path clip-path="url(#clip080)" d="M 0 0 M123.756 354.235 L128.64 354.235 L128.64 360.115 L123.756 360.115 L123.756 354.235 Z" fill="#000000" fill-rule="evenodd" fill-opacity="1" /><path clip-path="url(#clip080)" d="M 0 0 M143.709 328.633 Q140.098 328.633 138.27 332.198 Q136.464 335.74 136.464 342.869 Q136.464 349.976 138.27 353.541 Q140.098 357.082 143.709 357.082 Q147.344 357.082 149.149 353.541 Q150.978 349.976 150.978 342.869 Q150.978 335.74 149.149 332.198 Q147.344 328.633 143.709 328.633 M143.709 324.93 Q149.519 324.93 152.575 329.536 Q155.654 334.119 155.654 342.869 Q155.654 351.596 152.575 356.203 Q149.519 360.786 143.709 360.786 Q137.899 360.786 134.82 356.203 Q131.765 351.596 131.765 342.869 Q131.765 334.119 134.82 329.536 Q137.899 324.93 143.709 324.93 Z" fill="#000000" fill-rule="evenodd" fill-opacity="1" /><polyline clip-path="url(#clip082)" style="stroke:#009af9; stroke-width:4; stroke-opacity:1; fill:none" points="
  241.157,87.9763 242.182,88.1857 243.208,88.535 244.233,89.0242 245.259,89.6539 246.284,90.4244 247.31,91.3364 248.335,92.3908 249.361,93.5885 250.387,94.9306 
  251.412,96.4183 252.438,98.0528 253.463,99.8356 254.489,101.768 255.514,103.852 256.54,106.09 257.566,108.483 258.591,111.033 259.617,113.743 260.642,116.615 
  261.668,119.652 262.693,122.858 263.719,126.235 264.744,129.787 265.77,133.517 266.796,137.431 267.821,141.531 268.847,145.823 269.872,150.312 270.898,155.004 
  271.923,159.904 272.949,165.019 273.975,170.355 275,175.92 276.026,181.723 277.051,187.77 278.077,194.073 279.102,200.64 280.128,207.483 281.153,214.614 
  282.179,222.046 283.205,229.794 284.23,237.873 285.256,246.301 286.281,255.095 287.307,264.277 288.332,273.871 289.358,283.901 290.383,294.396 291.409,305.389 
  292.435,316.916 293.46,329.016 294.486,341.738 295.511,355.135 296.537,369.267 297.562,384.207 298.588,400.036 299.614,416.853 300.639,434.771 301.665,453.93 
  302.69,474.497 303.716,496.68 304.741,520.736 305.767,546.995 306.792,575.882 307.818,607.964 308.844,644.016 309.869,685.139 310.895,732.969 311.92,790.081 
  312.946,860.822 313.971,953.195 314.997,1082.57 316.023,1250.67 317.048,1207.21 318.074,1046.11 319.099,932.564 320.125,850.702 321.15,787.639 322.176,736.707 
  323.201,694.192 324.227,657.848 325.253,626.224 326.278,598.329 327.304,573.454 328.329,551.081 329.355,530.815 330.38,512.351 331.406,495.447 332.431,479.912 
  333.457,465.586 334.483,452.34 335.508,440.066 336.534,428.671 337.559,418.08 338.585,408.225 339.61,399.05 340.636,390.503 341.662,382.542 342.687,375.126 
  343.713,368.221 344.738,361.796 345.764,355.825 346.789,350.282 347.815,345.145 348.84,340.395 349.866,336.014 350.892,331.985 351.917,328.294 352.943,324.929 
  353.968,321.879 354.994,319.134 356.019,316.685 357.045,314.524 358.071,312.643 359.096,311.034 360.122,309.692 361.147,308.611 362.173,307.786 363.198,307.212 
  364.224,306.885 365.249,306.803 366.275,306.963 367.301,307.361 368.326,307.997 369.352,308.869 370.377,309.975 371.403,311.314 372.428,312.887 373.454,314.694 
  374.479,316.736 375.505,319.012 376.531,321.525 377.556,324.277 378.582,327.269 379.607,330.505 380.633,333.988 381.658,337.722 382.684,341.709 383.71,345.956 
  384.735,350.467 385.761,355.248 386.786,360.306 387.812,365.65 388.837,371.287 389.863,377.227 390.888,383.478 391.914,390.05 392.94,396.956 393.965,404.207 
  394.991,411.818 396.016,419.806 397.042,428.189 398.067,436.989 399.093,446.227 400.119,455.929 401.144,466.122 402.17,476.836 403.195,488.104 404.221,499.965 
  405.246,512.465 406.272,525.657 407.297,539.6 408.323,554.367 409.349,570.042 410.374,586.724 411.4,604.528 412.425,623.591 413.451,644.079 414.476,666.187 
  415.502,690.163 416.527,716.32 417.553,745.068 418.579,776.948 419.604,812.689 420.63,853.298 421.655,900.202 422.681,955.498 423.706,1022.33 424.732,1105.1 
  425.758,1206.28 426.783,1296.13 427.809,1272.44 428.834,1173.19 429.86,1082.2 430.885,1009.65 431.911,951.251 432.936,903.04 433.962,862.309 434.988,827.237 
  436.013,796.585 437.039,769.473 438.064,745.258 439.09,723.462 440.115,703.72 441.141,685.747 442.167,669.313 443.192,654.234 444.218,640.357 445.243,627.556 
  446.269,615.726 447.294,604.778 448.32,594.636 449.345,585.236 450.371,576.522 451.397,568.441 452.422,560.95 453.448,554.006 454.473,547.575 455.499,541.625 
  456.524,536.13 457.55,531.07 458.575,526.424 459.601,522.175 460.627,518.306 461.652,514.802 462.678,511.647 463.703,508.831 464.729,506.34 465.754,504.166 
  466.78,502.301 467.806,500.735 468.831,499.462 469.857,498.475 470.882,497.768 471.908,497.337 472.933,497.178 473.959,497.288 474.984,497.665 476.01,498.307 
  477.036,499.212 478.061,500.379 479.087,501.807 480.112,503.494 481.138,505.435 482.163,507.629 483.189,510.075 484.215,512.772 485.24,515.725 486.266,518.938 
  487.291,522.413 488.317,526.152 489.342,530.156 490.368,534.425 491.393,538.963 492.419,543.773 493.445,548.862 494.47,554.238 495.496,559.909 496.521,565.883 
  497.547,572.168 498.572,578.773 499.598,585.705 500.623,592.974 501.649,600.592 502.675,608.573 503.7,616.93 504.726,625.68 505.751,634.839 506.777,644.431 
  507.802,654.479 508.828,665.011 509.854,676.055 510.879,687.644 511.905,699.816 512.93,712.61 513.956,726.065 514.981,740.225 516.007,755.151 517.032,770.925 
  518.058,787.65 519.084,805.428 520.109,824.357 521.135,844.541 522.16,866.112 523.186,889.25 524.211,914.189 525.237,941.209 526.263,970.634 527.288,1002.86 
  528.314,1038.36 529.339,1077.79 530.365,1121.79 531.39,1170.65 532.416,1223.29 533.441,1274.63 534.467,1311.86 535.493,1318.27 536.518,1291.96 537.544,1248.09 
  538.569,1200.59 539.595,1155.72 540.62,1115.27 541.646,1079.32 542.671,1047.46 543.697,1019.09 544.723,993.666 545.748,970.745 546.774,949.963 547.799,931.04 
  548.825,913.784 549.85,898.034 550.876,883.65 551.902,870.502 552.927,858.461 553.953,847.391 554.978,837.17 556.004,827.711 557.029,818.947 558.055,810.828 
  559.08,803.309 560.106,796.351 561.132,789.916 562.157,783.967 563.183,778.467 564.208,773.379 565.234,768.673 566.259,764.329 567.285,760.335 568.311,756.684 
  569.336,753.366 570.362,750.372 571.387,747.692 572.413,745.32 573.438,743.243 574.464,741.455 575.489,739.946 576.515,738.709 577.541,737.731 578.566,737.004 
  579.592,736.517 580.617,736.261 581.643,736.227 582.668,736.409 583.694,736.799 584.719,737.397 585.745,738.204 586.771,739.221 587.796,740.447 588.822,741.875 
  589.847,743.495 590.873,745.293 591.898,747.261 592.924,749.394 593.95,751.695 594.975,754.163 596.001,756.794 597.026,759.582 598.052,762.521 599.077,765.612 
  600.103,768.859 601.128,772.267 602.154,775.845 603.18,779.601 604.205,783.538 605.231,787.659 606.256,791.963 607.282,796.449 608.307,801.119 609.333,805.977 
  610.359,811.025 611.384,816.266 612.41,821.691 613.435,827.287 614.461,833.038 615.486,838.93 616.512,844.954 617.537,851.102 618.563,857.38 619.589,863.796 
  620.614,870.359 621.64,877.069 622.665,883.922 623.691,890.909 624.716,898.009 625.742,905.204 626.767,912.487 627.793,919.864 628.819,927.345 629.844,934.94 
  630.87,942.646 631.895,950.449 632.921,958.333 633.946,966.284 634.972,974.279 635.998,982.287 637.023,990.284 638.049,998.254 639.074,1006.22 640.1,1014.28 
  641.125,1022.49 642.151,1030.87 643.176,1039.37 644.202,1047.97 645.228,1056.64 646.253,1065.42 647.279,1074.4 648.304,1083.65 649.33,1093.15 650.355,1102.89 
  651.381,1112.79 652.407,1122.75 653.432,1132.71 654.458,1142.68 655.483,1152.59 656.509,1162.41 657.534,1172.1 658.56,1181.65 659.585,1191.07 660.611,1200.41 
  661.637,1209.7 662.662,1218.9 663.688,1227.86 664.713,1236.47 665.739,1244.72 666.764,1252.61 667.79,1260.2 668.815,1267.66 669.841,1274.87 670.867,1281.48 
  671.892,1287.06 672.918,1291.35 673.943,1294.36 674.969,1296.44 675.994,1298.15 677.02,1299.97 678.046,1301.94 679.071,1303.6 680.097,1304.24 681.122,1303.4 
  682.148,1301.06 683.173,1297.76 684.199,1294.29 685.224,1291.14 686.25,1288.44 687.276,1286.15 688.301,1283.95 689.327,1281.55 690.352,1278.91 691.378,1276.19 
  692.403,1273.71 693.429,1271.73 694.455,1270.1 695.48,1268.36 696.506,1266.05 697.531,1262.93 698.557,1259.01 699.582,1254.45 700.608,1249.4 701.633,1243.89 
  702.659,1238.08 703.685,1232.22 704.71,1226.44 705.736,1220.66 706.761,1214.52 707.787,1207.65 708.812,1199.85 709.838,1191.31 710.864,1182.47 711.889,1173.79 
  712.915,1165.55 713.94,1157.72 714.966,1150.13 715.991,1142.59 717.017,1134.98 718.042,1127.3 719.068,1119.63 720.094,1112.05 721.119,1104.63 722.145,1097.41 
  723.17,1090.38 724.196,1083.52 725.221,1076.83 726.247,1070.35 727.272,1064.14 728.298,1058.16 729.324,1052.36 730.349,1046.7 731.375,1041.19 732.4,1035.92 
  733.426,1030.92 734.451,1026.16 735.477,1021.57 736.503,1017.06 737.528,1012.62 738.554,1008.28 739.579,1004.11 740.605,1000.15 741.63,996.401 742.656,992.814 
  743.681,989.317 744.707,985.858 745.733,982.417 746.758,979.008 747.784,975.66 748.809,972.404 749.835,969.293 750.86,966.388 751.886,963.759 752.912,961.442 
  753.937,959.411 754.963,957.591 755.988,955.925 757.014,954.407 758.039,953.045 759.065,951.82 760.09,950.701 761.116,949.673 762.142,948.755 763.167,947.978 
  764.193,947.37 765.218,946.943 766.244,946.711 767.269,946.681 768.295,946.865 769.32,947.269 770.346,947.871 771.372,948.63 772.397,949.528 773.423,950.581 
  774.448,951.823 775.474,953.292 776.499,955.006 777.525,956.978 778.551,959.205 779.576,961.678 780.602,964.388 781.627,967.342 782.653,970.552 783.678,974.023 
  784.704,977.767 785.729,981.811 786.755,986.203 787.781,990.995 788.806,996.234 789.832,1001.96 790.857,1008.2 791.883,1014.97 792.908,1022.27 793.934,1030.09 
  794.96,1038.36 795.985,1047.02 797.011,1056.02 798.036,1065.36 799.062,1075.1 800.087,1085.33 801.113,1096.21 802.138,1107.88 803.164,1120.43 804.19,1133.89 
  805.215,1148.3 806.241,1163.67 807.266,1179.99 808.292,1197.28 809.317,1215.55 810.343,1234.82 811.368,1255.17 812.394,1276.78 813.42,1299.77 814.445,1324.19 
  815.471,1349.64 816.496,1375.07 817.522,1398.88 818.547,1419.56 819.573,1435.47 820.599,1444.63 821.624,1445.72 822.65,1438.7 823.675,1424.49 824.701,1404.84 
  825.726,1381.96 826.752,1357.95 827.777,1334.13 828.803,1311.24 829.829,1289.49 830.854,1268.75 831.88,1248.86 832.905,1229.74 833.931,1211.44 834.956,1193.87 
  835.982,1176.94 837.008,1160.63 838.033,1144.99 839.059,1130.07 840.084,1115.86 841.11,1102.31 842.135,1089.31 843.161,1076.82 844.186,1064.84 845.212,1053.39 
  846.238,1042.5 847.263,1032.2 848.289,1022.5 849.314,1013.39 850.34,1004.82 851.365,996.748 852.391,989.133 853.416,981.934 854.442,975.112 855.468,968.633 
  856.493,962.467 857.519,956.594 858.544,951.018 859.57,945.746 860.595,940.758 861.621,936.017 862.647,931.497 863.672,927.173 864.698,923.037 865.723,919.1 
  866.749,915.383 867.774,911.927 868.8,908.757 869.825,905.867 870.851,903.236 871.877,900.834 872.902,898.631 873.928,896.602 874.953,894.731 875.979,893.023 
  877.004,891.503 878.03,890.194 879.056,889.099 880.081,888.21 881.107,887.52 882.132,887.015 883.158,886.675 884.183,886.489 885.209,886.452 886.234,886.564 
  887.26,886.829 888.286,887.255 889.311,887.84 890.337,888.574 891.362,889.447 892.388,890.459 893.413,891.605 894.439,892.875 895.464,894.266 896.49,895.78 
  897.516,897.429 898.541,899.231 899.567,901.212 900.592,903.383 901.618,905.749 902.643,908.302 903.669,911.015 904.695,913.854 905.72,916.802 906.746,919.874 
  907.771,923.109 908.797,926.558 909.822,930.262 910.848,934.237 911.873,938.477 912.899,942.957 913.925,947.66 914.95,952.578 915.976,957.73 917.001,963.154 
  918.027,968.888 919.052,974.958 920.078,981.362 921.104,988.079 922.129,995.1 923.155,1002.44 924.18,1010.09 925.206,1018.08 926.231,1026.39 927.257,1035.04 
  928.282,1044.05 929.308,1053.45 930.334,1063.31 931.359,1073.68 932.385,1084.57 933.41,1095.89 934.436,1107.5 935.461,1119.24 936.487,1130.99 937.512,1142.8 
  938.538,1154.98 939.564,1167.98 940.589,1182.1 941.615,1197.36 942.64,1213.51 943.666,1230.08 944.691,1246.46 945.717,1262.31 946.743,1277.76 947.768,1293.39 
  948.794,1309.76 949.819,1327 950.845,1344.58 951.87,1360.98 952.896,1374.15 953.921,1382.74 954.947,1386.87 955.973,1387.48 956.998,1384.89 958.024,1378.56 
  959.049,1367.97 960.075,1353.27 961.1,1335.32 962.126,1315.54 963.152,1295.34 964.177,1275.48 965.203,1256.31 966.228,1238.11 967.254,1221.01 968.279,1205.08 
  969.305,1190.25 970.33,1176.48 971.356,1163.71 972.382,1151.83 973.407,1140.73 974.433,1130.25 975.458,1120.25 976.484,1110.57 977.509,1101.18 978.535,1092.14 
  979.56,1083.65 980.586,1075.92 981.612,1068.98 982.637,1062.74 983.663,1056.97 984.688,1051.4 985.714,1045.86 986.739,1040.26 987.765,1034.64 988.791,1029.11 
  989.816,1023.77 990.842,1018.71 991.867,1013.95 992.893,1009.48 993.918,1005.31 994.944,1001.44 995.969,997.847 996.995,994.539 998.021,991.529 999.046,988.804 
  1000.07,986.334 1001.1,984.053 1002.12,981.866 1003.15,979.706 1004.17,977.571 1005.2,975.515 1006.23,973.612 1007.25,971.89 1008.28,970.312 1009.3,968.826 
  1010.33,967.42 1011.35,966.12 1012.38,964.976 1013.4,964.028 1014.43,963.266 1015.46,962.631 1016.48,962.066 1017.51,961.54 1018.53,961.05 1019.56,960.615 
  1020.58,960.269 1021.61,960.045 1022.63,959.967 1023.66,960.051 1024.69,960.289 1025.71,960.657 1026.74,961.142 1027.76,961.733 1028.79,962.427 1029.81,963.224 
  1030.84,964.117 1031.86,965.128 1032.89,966.29 1033.92,967.606 1034.94,969.03 1035.97,970.519 1036.99,972.078 1038.02,973.764 1039.04,975.661 1040.07,977.808 
  1041.09,980.178 1042.12,982.717 1043.15,985.387 1044.17,988.183 1045.2,991.15 1046.22,994.34 1047.25,997.771 1048.27,1001.44 1049.3,1005.34 1050.32,1009.48 
  1051.35,1013.84 1052.38,1018.41 1053.4,1023.19 1054.43,1028.21 1055.45,1033.54 1056.48,1039.25 1057.5,1045.4 1058.53,1051.99 1059.55,1058.99 1060.58,1066.34 
  1061.61,1073.97 1062.63,1081.84 1063.66,1089.9 1064.68,1098.21 1065.71,1106.87 1066.73,1115.94 1067.76,1125.46 1068.78,1135.33 1069.81,1145.44 1070.84,1155.72 
  1071.86,1166.38 1072.89,1177.75 1073.91,1190.16 1074.94,1203.74 1075.96,1218.4 1076.99,1233.9 1078.01,1249.74 1079.04,1265.4 1080.07,1280.4 1081.09,1294.61 
  1082.12,1308.46 1083.14,1322.8 1084.17,1338.43 1085.19,1355.58 1086.22,1373.67 1087.24,1391.24 1088.27,1406.38 1089.3,1417.03 1090.32,1421.79 1091.35,1420.79 
  1092.37,1415.34 1093.4,1406.57 1094.42,1395.12 1095.45,1381.21 1096.47,1364.98 1097.5,1346.77 1098.53,1327.3 1099.55,1307.34 1100.58,1287.55 1101.6,1268.32 
  1102.63,1249.88 1103.65,1232.36 1104.68,1215.77 1105.7,1200.14 1106.73,1185.59 1107.76,1172.18 1108.78,1159.8 1109.81,1148.26 1110.83,1137.31 1111.86,1126.7 
  1112.88,1116.25 1113.91,1105.97 1114.93,1095.98 1115.96,1086.34 1116.99,1077.04 1118.01,1068.01 1119.04,1059.21 1120.06,1050.69 1121.09,1042.57 1122.11,1034.99 
  1123.14,1028 1124.16,1021.52 1125.19,1015.43 1126.22,1009.62 1127.24,1004.02 1128.27,998.618 1129.29,993.418 1130.32,988.42 1131.34,983.616 1132.37,978.991 
  1133.39,974.547 1134.42,970.312 1135.45,966.3 1136.47,962.493 1137.5,958.865 1138.52,955.41 1139.55,952.162 1140.57,949.174 1141.6,946.479 1142.62,944.055 
  1143.65,941.853 1144.68,939.838 1145.7,938.008 1146.73,936.387 1147.75,935.01 1148.78,933.898 1149.8,933.061 1150.83,932.499 1151.85,932.203 1152.88,932.156 
  1153.91,932.34 1154.93,932.74 1155.96,933.335 1156.98,934.107 1158.01,935.051 1159.03,936.18 1160.06,937.527 1161.08,939.115 1162.11,940.94 1163.14,942.962 
  1164.16,945.129 1165.19,947.401 1166.21,949.773 1167.24,952.265 1168.26,954.897 1169.29,957.704 1170.31,960.727 1171.34,964.008 1172.37,967.558 1173.39,971.358 
  1174.42,975.376 1175.44,979.582 1176.47,983.975 1177.49,988.58 1178.52,993.439 1179.54,998.598 1180.57,1004.08 1181.6,1009.89 1182.62,1015.99 1183.65,1022.39 
  1184.67,1029.07 1185.7,1036.09 1186.72,1043.49 1187.75,1051.28 1188.77,1059.45 1189.8,1067.95 1190.83,1076.73 1191.85,1085.72 1192.88,1094.88 1193.9,1104.22 
  1194.93,1113.82 1195.95,1123.81 1196.98,1134.32 1198,1145.5 1199.03,1157.38 1200.06,1169.94 1201.08,1183.06 1202.11,1196.59 1203.13,1210.34 1204.16,1224 
  1205.18,1237.29 1206.21,1249.83 1207.24,1261.19 1208.26,1270.96 1209.29,1278.8 1210.31,1284.5 1211.34,1287.94 1212.36,1289.06 1213.39,1287.67 1214.41,1283.41 
  1215.44,1276.08 1216.47,1265.99 1217.49,1253.85 1218.52,1240.55 1219.54,1226.82 1220.57,1213.03 1221.59,1199.34 1222.62,1185.93 1223.64,1172.93 1224.67,1160.5 
  1225.7,1148.62 1226.72,1137.12 1227.75,1125.87 1228.77,1114.78 1229.8,1103.82 1230.82,1093.06 1231.85,1082.56 1232.87,1072.33 1233.9,1062.37 1234.93,1052.65 
  1235.95,1043.15 1236.98,1033.86 1238,1024.81 1239.03,1016.04 1240.05,1007.59 1241.08,999.561 1242.1,992.001 1243.13,984.908 1244.16,978.259 1245.18,972.025 
  1246.21,966.17 1247.23,960.64 1248.26,955.372 1249.28,950.31 1250.31,945.409 1251.33,940.647 1252.36,936.041 1253.39,931.627 1254.41,927.426 1255.44,923.431 
  1256.46,919.615 1257.49,915.96 1258.51,912.458 1259.54,909.104 1260.56,905.889 1261.59,902.803 1262.62,899.84 1263.64,896.997 1264.67,894.289 1265.69,891.743 
  1266.72,889.383 1267.74,887.21 1268.77,885.218 1269.79,883.412 1270.82,881.802 1271.85,880.404 1272.87,879.229 1273.9,878.262 1274.92,877.48 1275.95,876.868 
  1276.97,876.418 1278,876.131 1279.02,876.004 1280.05,876.031 1281.08,876.208 1282.1,876.542 1283.13,877.028 1284.15,877.657 1285.18,878.411 1286.2,879.275 
  1287.23,880.248 1288.25,881.34 1289.28,882.564 1290.31,883.931 1291.33,885.451 1292.36,887.153 1293.38,889.071 1294.41,891.24 1295.43,893.688 1296.46,896.423 
  1297.48,899.421 1298.51,902.667 1299.54,906.139 1300.56,909.823 1301.59,913.718 1302.61,917.822 1303.64,922.134 1304.66,926.645 1305.69,931.359 1306.71,936.281 
  1307.74,941.411 1308.77,946.76 1309.79,952.351 1310.82,958.225 1311.84,964.44 1312.87,971.064 1313.89,978.142 1314.92,985.691 1315.94,993.694 1316.97,1002.13 
  1318,1011.01 1319.02,1020.35 1320.05,1030.21 1321.07,1040.61 1322.1,1051.59 1323.12,1063.21 1324.15,1075.5 1325.17,1088.46 1326.2,1102.12 1327.23,1116.44 
  1328.25,1131.34 1329.28,1146.77 1330.3,1162.74 1331.33,1179.35 1332.35,1196.7 1333.38,1214.86 1334.4,1233.91 1335.43,1254 1336.46,1275.39 1337.48,1298.3 
  1338.51,1322.57 1339.53,1347.17 1340.56,1369.57 1341.58,1386.21 1342.61,1394.12 1343.63,1392.8 1344.66,1384.22 1345.69,1370.94 1346.71,1354.69 1347.74,1336.53 
  1348.76,1317.44 1349.79,1298.01 1350.81,1278.41 1351.84,1258.59 1352.86,1238.47 1353.89,1218.34 1354.92,1198.65 1355.94,1179.75 1356.97,1161.74 1357.99,1144.59 
  1359.02,1128.29 1360.04,1112.8 1361.07,1098.09 1362.09,1084.16 1363.12,1070.99 1364.15,1058.53 1365.17,1046.74 1366.2,1035.53 1367.22,1024.76 1368.25,1014.37 
  1369.27,1004.31 1370.3,994.535 1371.32,985.024 1372.35,975.783 1373.38,966.84 1374.4,958.242 1375.43,950.029 1376.45,942.209 1377.48,934.778 1378.5,927.728 
  1379.53,921.032 1380.55,914.661 1381.58,908.596 1382.61,902.81 1383.63,897.26 1384.66,891.913 1385.68,886.764 1386.71,881.819 1387.73,877.106 1388.76,872.661 
  1389.78,868.507 1390.81,864.647 1391.84,861.07 1392.86,857.754 1393.89,854.664 1394.91,851.776 1395.94,849.08 1396.96,846.571 1397.99,844.243 1399.01,842.087 
  1400.04,840.094 1401.07,838.257 1402.09,836.575 1403.12,835.056 1404.14,833.723 1405.17,832.606 1406.19,831.715 1407.22,831.03 1408.24,830.518 1409.27,830.143 
  1410.3,829.889 1411.32,829.753 1412.35,829.743 1413.37,829.86 1414.4,830.105 1415.42,830.471 1416.45,830.951 1417.48,831.544 1418.5,832.261 1419.53,833.12 
  1420.55,834.149 1421.58,835.374 1422.6,836.814 1423.63,838.469 1424.65,840.318 1425.68,842.337 1426.71,844.517 1427.73,846.863 1428.76,849.395 1429.78,852.127 
  1430.81,855.065 1431.83,858.21 1432.86,861.556 1433.88,865.102 1434.91,868.854 1435.94,872.82 1436.96,877.014 1437.99,881.467 1439.01,886.207 1440.04,891.24 
  1441.06,896.555 1442.09,902.13 1443.11,907.934 1444.14,913.942 1445.17,920.153 1446.19,926.591 1447.22,933.304 1448.24,940.348 1449.27,947.754 1450.29,955.507 
  1451.32,963.567 1452.34,971.9 1453.37,980.503 1454.4,989.395 1455.42,998.584 1456.45,1008.06 1457.47,1017.77 1458.5,1027.73 1459.52,1037.99 1460.55,1048.63 
  1461.57,1059.75 1462.6,1071.42 1463.63,1083.6 1464.65,1096.23 1465.68,1109.24 1466.7,1122.55 1467.73,1136.05 1468.75,1149.51 1469.78,1162.51 1470.8,1174.6 
  1471.83,1185.32 1472.86,1194.16 1473.88,1200.53 1474.91,1203.94 1475.93,1204.03 1476.96,1200.75 1477.98,1194.39 1479.01,1185.44 1480.03,1174.37 1481.06,1161.67 
  1482.09,1147.86 1483.11,1133.47 1484.14,1118.99 1485.16,1104.7 1486.19,1090.72 1487.21,1077.08 1488.24,1063.73 1489.26,1050.64 1490.29,1037.83 1491.32,1025.3 
  1492.34,1013.08 1493.37,1001.21 1494.39,989.738 1495.42,978.714 1496.44,968.152 1497.47,958.02 1498.49,948.259 1499.52,938.828 1500.55,929.731 1501.57,921.023 
  1502.6,912.769 1503.62,904.985 1504.65,897.62 1505.67,890.602 1506.7,883.882 1507.72,877.436 1508.75,871.26 1509.78,865.353 1510.8,859.706 1511.83,854.299 
  1512.85,849.116 1513.88,844.155 1514.9,839.424 1515.93,834.93 1516.95,830.67 1517.98,826.632 1519.01,822.801 1520.03,819.174 1521.06,815.75 1522.08,812.53 
  1523.11,809.504 1524.13,806.657 1525.16,803.979 1526.18,801.469 1527.21,799.127 1528.24,796.953 1529.26,794.947 1530.29,793.115 1531.31,791.462 1532.34,789.992 
  1533.36,788.711 1534.39,787.62 1535.41,786.712 1536.44,785.969 1537.47,785.372 1538.49,784.908 1539.52,784.577 1540.54,784.388 1541.57,784.367 1542.59,784.526 
  1543.62,784.868 1544.64,785.387 1545.67,786.082 1546.7,786.959 1547.72,788.021 1548.75,789.263 1549.77,790.675 1550.8,792.252 1551.82,793.993 1552.85,795.902 
  1553.87,797.985 1554.9,800.256 1555.93,802.724 1556.95,805.399 1557.98,808.288 1559,811.385 1560.03,814.682 1561.05,818.171 1562.08,821.862 1563.1,825.767 
  1564.13,829.89 1565.16,834.233 1566.18,838.794 1567.21,843.576 1568.23,848.594 1569.26,853.868 1570.28,859.423 1571.31,865.278 1572.33,871.432 1573.36,877.881 
  1574.39,884.636 1575.41,891.71 1576.44,899.118 1577.46,906.875 1578.49,914.989 1579.51,923.455 1580.54,932.271 1581.56,941.434 1582.59,950.948 1583.62,960.832 
  1584.64,971.131 1585.67,981.912 1586.69,993.245 1587.72,1005.17 1588.74,1017.69 1589.77,1030.8 1590.79,1044.48 1591.82,1058.75 1592.85,1073.65 1593.87,1089.2 
  1594.9,1105.33 1595.92,1121.95 1596.95,1138.94 1597.97,1156.14 1599,1173.3 1600.02,1190.07 1601.05,1205.97 1602.08,1220.44 1603.1,1232.85 1604.13,1242.56 
  1605.15,1248.9 1606.18,1251.31 1607.2,1249.56 1608.23,1243.75 1609.25,1234.29 1610.28,1221.89 1611.31,1207.4 1612.33,1191.61 1613.36,1175.16 1614.38,1158.45 
  1615.41,1141.67 1616.43,1124.83 1617.46,1108.02 1618.48,1091.38 1619.51,1075.16 1620.54,1059.59 1621.56,1044.81 1622.59,1030.87 1623.61,1017.67 1624.64,1005.07 
  1625.66,992.972 1626.69,981.328 1627.72,970.132 1628.74,959.383 1629.77,949.065 1630.79,939.165 1631.82,929.672 1632.84,920.585 1633.87,911.919 1634.89,903.676 
  1635.92,895.832 1636.95,888.356 1637.97,881.227 1639,874.436 1640.02,867.98 1641.05,861.85 1642.07,856.028 1643.1,850.496 1644.12,845.23 1645.15,840.213 
  1646.18,835.435 1647.2,830.888 1648.23,826.561 1649.25,822.447 1650.28,818.54 1651.3,814.844 1652.33,811.376 1653.35,808.147 1654.38,805.155 1655.41,802.387 
  1656.43,799.815 1657.46,797.418 1658.48,795.192 1659.51,793.137 1660.53,791.25 1661.56,789.528 1662.58,787.968 1663.61,786.568 1664.64,785.33 1665.66,784.256 
  1666.69,783.352 1667.71,782.623 1668.74,782.074 1669.76,781.705 1670.79,781.515 1671.81,781.503 1672.84,781.671 1673.87,782.022 1674.89,782.559 1675.92,783.281 
  1676.94,784.18 1677.97,785.256 1678.99,786.517 1680.02,787.97 1681.04,789.612 1682.07,791.434 1683.1,793.439 1684.12,795.649 1685.15,798.088 1686.17,800.773 
  1687.2,803.709 1688.22,806.886 1689.25,810.293 1690.27,813.922 1691.3,817.776 1692.33,821.86 1693.35,826.173 1694.38,830.714 1695.4,835.482 1696.43,840.473 
  1697.45,845.686 1698.48,851.12 1699.5,856.779 1700.53,862.671 1701.56,868.808 1702.58,875.207 1703.61,881.889 1704.63,888.881 1705.66,896.202 1706.68,903.869 
  1707.71,911.9 1708.73,920.324 1709.76,929.171 1710.79,938.472 1711.81,948.247 1712.84,958.508 1713.86,969.261 1714.89,980.506 1715.91,992.226 1716.94,1004.39 
  1717.96,1016.96 1718.99,1029.96 1720.02,1043.38 1721.04,1057.26 1722.07,1071.57 1723.09,1086.2 1724.12,1101 1725.14,1115.75 1726.17,1130.11 1727.19,1143.54 
  1728.22,1155.23 1729.25,1164.23 1730.27,1169.8 1731.3,1171.57 1732.32,1169.55 1733.35,1163.97 1734.37,1155.2 1735.4,1143.73 1736.42,1130.15 1737.45,1115.06 
  1738.48,1098.97 1739.5,1082.28 1740.53,1065.33 1741.55,1048.41 1742.58,1031.74 1743.6,1015.49 1744.63,999.728 1745.65,984.475 1746.68,969.76 1747.71,955.628 
  1748.73,942.101 1749.76,929.178 1750.78,916.827 1751.81,904.985 1752.83,893.595 1753.86,882.631 1754.88,872.089 1755.91,861.963 1756.94,852.246 1757.96,842.922 
  1758.99,833.976 1760.01,825.389 1761.04,817.141 1762.06,809.213 1763.09,801.579 1764.11,794.215 1765.14,787.099 1766.17,780.214 1767.19,773.547 1768.22,767.091 
  1769.24,760.844 1770.27,754.804 1771.29,748.968 1772.32,743.332 1773.34,737.892 1774.37,732.64 1775.4,727.564 1776.42,722.659 1777.45,717.92 1778.47,713.346 
  1779.5,708.931 1780.52,704.675 1781.55,700.577 1782.57,696.639 1783.6,692.862 1784.63,689.247 1785.65,685.792 1786.68,682.493 1787.7,679.345 1788.73,676.348 
  1789.75,673.503 1790.78,670.812 1791.8,668.277 1792.83,665.902 1793.86,663.685 1794.88,661.626 1795.91,659.721 1796.93,657.97 1797.96,656.368 1798.98,654.913 
  1800.01,653.604 1801.03,652.445 1802.06,651.443 1803.09,650.607 1804.11,649.942 1805.14,649.448 1806.16,649.12 1807.19,648.95 1808.21,648.933 1809.24,649.072 
  1810.26,649.371 1811.29,649.835 1812.32,650.467 1813.34,651.271 1814.37,652.249 1815.39,653.408 1816.42,654.747 1817.44,656.268 1818.47,657.971 1819.49,659.864 
  1820.52,661.952 1821.55,664.239 1822.57,666.728 1823.6,669.422 1824.62,672.329 1825.65,675.452 1826.67,678.793 1827.7,682.351 1828.72,686.125 1829.75,690.115 
  1830.78,694.329 1831.8,698.778 1832.83,703.472 1833.85,708.425 1834.88,713.644 1835.9,719.137 1836.93,724.91 1837.96,730.968 1838.98,737.319 1840.01,743.977 
  1841.03,750.96 1842.06,758.291 1843.08,765.993 1844.11,774.081 1845.13,782.562 1846.16,791.436 1847.19,800.71 1848.21,810.401 1849.24,820.541 1850.26,831.16 
  1851.29,842.28 1852.31,853.905 1853.34,866.032 1854.36,878.651 1855.39,891.759 1856.42,905.358 1857.44,919.44 1858.47,933.976 1859.49,948.901 1860.52,964.121 
  1861.54,979.519 1862.57,994.947 1863.59,1010.2 1864.62,1024.96 1865.65,1038.8 1866.67,1051.19 1867.7,1061.51 1868.72,1069.16 1869.75,1073.62 1870.77,1074.59 
  1871.8,1072.01 1872.82,1066.12 1873.85,1057.3 1874.88,1046.07 1875.9,1033.02 1876.93,1018.73 1877.95,1003.72 1878.98,988.373 1880,972.977 1881.03,957.74 
  1882.05,942.789 1883.08,928.194 1884.11,914.003 1885.13,900.243 1886.16,886.929 1887.18,874.071 1888.21,861.671 1889.23,849.718 1890.26,838.19 1891.28,827.07 
  1892.31,816.343 1893.34,805.987 1894.36,795.973 1895.39,786.276 1896.41,776.887 1897.44,767.812 1898.46,759.058 1899.49,750.623 1900.51,742.497 1901.54,734.657 
  1902.57,727.086 1903.59,719.768 1904.62,712.694 1905.64,705.858 1906.67,699.257 1907.69,692.892 1908.72,686.761 1909.74,680.864 1910.77,675.194 1911.8,669.746 
  1912.82,664.513 1913.85,659.492 1914.87,654.68 1915.9,650.076 1916.92,645.674 1917.95,641.471 1918.97,637.465 1920,633.653 1921.03,630.034 1922.05,626.606 
  1923.08,623.366 1924.1,620.313 1925.13,617.443 1926.15,614.75 1927.18,612.233 1928.2,609.888 1929.23,607.716 1930.26,605.715 1931.28,603.885 1932.31,602.226 
  1933.33,600.737 1934.36,599.415 1935.38,598.26 1936.41,597.269 1937.43,596.443 1938.46,595.787 1939.49,595.304 1940.51,595.001 1941.54,594.878 1942.56,594.935 
  1943.59,595.168 1944.61,595.577 1945.64,596.164 1946.66,596.93 1947.69,597.88 1948.72,599.017 1949.74,600.344 1950.77,601.864 1951.79,603.583 1952.82,605.503 
  1953.84,607.625 1954.87,609.951 1955.89,612.476 1956.92,615.199 1957.95,618.115 1958.97,621.222 1960,624.518 1961.02,628.008 1962.05,631.698 1963.07,635.592 
  1964.1,639.694 1965.12,644.008 1966.15,648.536 1967.18,653.277 1968.2,658.23 1969.23,663.391 1970.25,668.758 1971.28,674.329 1972.3,680.101 1973.33,686.071 
  1974.35,692.233 1975.38,698.581 1976.41,705.118 1977.43,711.848 1978.46,718.774 1979.48,725.901 1980.51,733.228 1981.53,740.744 1982.56,748.435 1983.58,756.29 
  1984.61,764.289 1985.64,772.405 1986.66,780.606 1987.69,788.855 1988.71,797.112 1989.74,805.334 1990.76,813.473 1991.79,821.473 1992.81,829.264 1993.84,836.76 
  1994.87,843.867 1995.89,850.496 1996.92,856.577 1997.94,862.058 1998.97,866.902 1999.99,871.072 2001.02,874.517 2002.04,877.196 2003.07,879.089 2004.1,880.194 
  2005.12,880.531 2006.15,880.128 2007.17,879.01 2008.2,877.202 2009.22,874.736 2010.25,871.652 2011.27,868.005 2012.3,863.848 2013.33,859.225 2014.35,854.186 
  2015.38,848.799 2016.4,843.131 2017.43,837.241 2018.45,831.169 2019.48,824.929 2020.5,818.532 2021.53,811.993 2022.56,805.332 2023.58,798.574 2024.61,791.745 
  2025.63,784.874 2026.66,777.983 2027.68,771.087 2028.71,764.204 2029.73,757.352 2030.76,750.556 2031.79,743.84 2032.81,737.22 2033.84,730.701 2034.86,724.276 
  2035.89,717.934 2036.91,711.675 2037.94,705.502 2038.97,699.424 2039.99,693.445 2041.02,687.568 2042.04,681.791 2043.07,676.115 2044.09,670.544 2045.12,665.085 
  2046.14,659.746 2047.17,654.53 2048.2,649.443 2049.22,644.489 2050.25,639.673 2051.27,635.001 2052.3,630.481 2053.32,626.12 2054.35,621.925 2055.37,617.898 
  2056.4,614.042 2057.43,610.362 2058.45,606.862 2059.48,603.546 2060.5,600.419 2061.53,597.485 2062.55,594.745 2063.58,592.202 2064.6,589.863 2065.63,587.732 
  2066.66,585.815 2067.68,584.121 2068.71,582.654 2069.73,581.419 2070.76,580.418 2071.78,579.651 2072.81,579.12 2073.83,578.825 2074.86,578.771 2075.89,578.965 
  2076.91,579.413 2077.94,580.12 2078.96,581.088 2079.99,582.323 2081.01,583.829 2082.04,585.616 2083.06,587.693 2084.09,590.07 2085.12,592.752 2086.14,595.742 
  2087.17,599.045 2088.19,602.67 2089.22,606.631 2090.24,610.946 2091.27,615.629 2092.29,620.69 2093.32,626.133 2094.35,631.964 2095.37,638.194 2096.4,644.835 
  2097.42,651.903 2098.45,659.411 2099.47,667.368 2100.5,675.782 2101.52,684.662 2102.55,694.028 2103.58,703.903 2104.6,714.317 2105.63,725.305 2106.65,736.909 
  2107.68,749.184 2108.7,762.185 2109.73,775.971 2110.75,790.603 2111.78,806.131 2112.81,822.592 2113.83,840.025 2114.86,858.476 2115.88,878.009 2116.91,898.704 
  2117.93,920.644 2118.96,943.886 2119.98,968.433 2121.01,994.179 2122.04,1020.81 2123.06,1047.63 2124.09,1073.39 2125.11,1096.07 2126.14,1113.05 2127.16,1121.8 
  2128.19,1120.91 2129.21,1110.79 2130.24,1093.43 2131.27,1071.3 2132.29,1046.68 2133.32,1021.28 2134.34,996.239 2135.37,972.256 2136.39,949.652 2137.42,928.502 
  2138.44,908.744 2139.47,890.245 2140.5,872.867 2141.52,856.512 2142.55,841.125 2143.57,826.693 2144.6,813.207 2145.62,800.618 2146.65,788.831 2147.67,777.734 
  2148.7,767.215 2149.73,757.189 2150.75,747.607 2151.78,738.438 2152.8,729.652 2153.83,721.224 2154.85,713.122 2155.88,705.307 2156.9,697.741 2157.93,690.395 
  2158.96,683.253 2159.98,676.314 2161.01,669.589 2162.03,663.088 2163.06,656.815 2164.08,650.764 2165.11,644.922 2166.13,639.278 2167.16,633.822 2168.19,628.543 
  2169.21,623.441 2170.24,618.512 2171.26,613.758 2172.29,609.177 2173.31,604.771 2174.34,600.543 2175.36,596.489 2176.39,592.603 2177.42,588.875 2178.44,585.295 
  2179.47,581.856 2180.49,578.551 2181.52,575.379 2182.54,572.341 2183.57,569.438 2184.59,566.672 2185.62,564.047 2186.65,561.567 2187.67,559.239 2188.7,557.068 
  2189.72,555.062 2190.75,553.227 2191.77,551.57 2192.8,550.094 2193.82,548.805 2194.85,547.709 2195.88,546.815 2196.9,546.133 2197.93,545.678 2198.95,545.461 
  2199.98,545.493 2201,545.774 2202.03,546.3 2203.05,547.06 2204.08,548.049 2205.11,549.259 2206.13,550.691 2207.16,552.343 2208.18,554.214 2209.21,556.303 
  2210.23,558.609 2211.26,561.129 2212.28,563.864 2213.31,566.813 2214.34,569.979 2215.36,573.363 2216.39,576.972 2217.41,580.814 2218.44,584.903 2219.46,589.257 
  2220.49,593.893 2221.51,598.828 2222.54,604.071 2223.57,609.629 2224.59,615.509 2225.62,621.726 2226.64,628.304 2227.67,635.27 2228.69,642.65 2229.72,650.463 
  2230.74,658.723 2231.77,667.447 2232.8,676.656 2233.82,686.376 2234.85,696.628 2235.87,707.436 2236.9,718.822 2237.92,730.817 2238.95,743.463 2239.97,756.815 
  2241,770.937 2242.03,785.899 2243.05,801.779 2244.08,818.657 2245.1,836.63 2246.13,855.823 2247.15,876.404 2248.18,898.588 2249.21,922.625 2250.23,948.767 
  2251.26,977.222 2252.28,1008.08 2253.31,1041.24 2254.33,1076.16 2255.36,1111.46 2256.38,1144.08 2257.41,1168.65 2258.44,1178.69 2259.46,1171.07 2260.49,1149.11 
  2261.51,1119.34 2262.54,1087.01 2263.56,1055.06 2264.59,1024.71 2265.61,996.339 2266.64,969.994 2267.67,945.632 2268.69,923.122 2269.72,902.288 2270.74,882.956 
  2271.77,864.967 2272.79,848.185 2273.82,832.504 2274.84,817.842 2275.87,804.134 2276.9,791.322 2277.92,779.362 2278.95,768.214 2279.97,757.838 2281,748.184 
  2282.02,739.195 2283.05,730.807 2284.07,722.955 2285.1,715.58 2286.13,708.628 2287.15,702.058 2288.18,695.835 2289.2,689.938 2290.23,684.353 2291.25,679.066 
  
  "/>
<path clip-path="url(#clip080)" d="
M1987.85 216.178 L2280.32 216.178 L2280.32 95.2176 L1987.85 95.2176  Z
  " fill="#ffffff" fill-rule="evenodd" fill-opacity="1"/>
<polyline clip-path="url(#clip080)" style="stroke:#000000; stroke-width:4; stroke-opacity:1; fill:none" points="
  1987.85,216.178 2280.32,216.178 2280.32,95.2176 1987.85,95.2176 1987.85,216.178 
  "/>
<polyline clip-path="url(#clip080)" style="stroke:#009af9; stroke-width:4; stroke-opacity:1; fill:none" points="
  2011.99,155.698 2156.86,155.698 
  "/>
<path clip-path="url(#clip080)" d="M 0 0 M2194.85 175.385 Q2193.05 180.015 2191.33 181.427 Q2189.62 182.839 2186.75 182.839 L2183.35 182.839 L2183.35 179.274 L2185.85 179.274 Q2187.61 179.274 2188.58 178.44 Q2189.55 177.607 2190.73 174.505 L2191.5 172.561 L2181.01 147.052 L2185.52 147.052 L2193.63 167.329 L2201.73 147.052 L2206.24 147.052 L2194.85 175.385 Z" fill="#000000" fill-rule="evenodd" fill-opacity="1" /><path clip-path="url(#clip080)" d="M 0 0 M2212.12 169.042 L2219.76 169.042 L2219.76 142.677 L2211.45 144.343 L2211.45 140.084 L2219.71 138.418 L2224.39 138.418 L2224.39 169.042 L2232.03 169.042 L2232.03 172.978 L2212.12 172.978 L2212.12 169.042 Z" fill="#000000" fill-rule="evenodd" fill-opacity="1" /></svg>
