<?xml version="1.0" encoding="utf-8"?>
<svg xmlns="http://www.w3.org/2000/svg" xmlns:xlink="http://www.w3.org/1999/xlink" width="600" height="400" viewBox="0 0 2400 1600">
<defs>
  <clipPath id="clip880">
    <rect x="0" y="0" width="2400" height="1600"/>
  </clipPath>
</defs>
<path clip-path="url(#clip880)" d="
M0 1600 L2400 1600 L2400 0 L0 0  Z
  " fill="#ffffff" fill-rule="evenodd" fill-opacity="1"/>
<defs>
  <clipPath id="clip881">
    <rect x="480" y="0" width="1681" height="1600"/>
  </clipPath>
</defs>
<path clip-path="url(#clip880)" d="
M144.168 1486.45 L2352.76 1486.45 L2352.76 47.2441 L144.168 47.2441  Z
  " fill="#ffffff" fill-rule="evenodd" fill-opacity="1"/>
<defs>
  <clipPath id="clip882">
    <rect x="144" y="47" width="2210" height="1440"/>
  </clipPath>
</defs>
<polyline clip-path="url(#clip882)" style="stroke:#000000; stroke-width:2; stroke-opacity:0.1; fill:none" points="
  205.633,1486.45 205.633,47.2441 
  "/>
<polyline clip-path="url(#clip882)" style="stroke:#000000; stroke-width:2; stroke-opacity:0.1; fill:none" points="
  726.787,1486.45 726.787,47.2441 
  "/>
<polyline clip-path="url(#clip882)" style="stroke:#000000; stroke-width:2; stroke-opacity:0.1; fill:none" points="
  1247.94,1486.45 1247.94,47.2441 
  "/>
<polyline clip-path="url(#clip882)" style="stroke:#000000; stroke-width:2; stroke-opacity:0.1; fill:none" points="
  1769.09,1486.45 1769.09,47.2441 
  "/>
<polyline clip-path="url(#clip882)" style="stroke:#000000; stroke-width:2; stroke-opacity:0.1; fill:none" points="
  2290.25,1486.45 2290.25,47.2441 
  "/>
<polyline clip-path="url(#clip880)" style="stroke:#000000; stroke-width:4; stroke-opacity:1; fill:none" points="
  144.168,1486.45 2352.76,1486.45 
  "/>
<polyline clip-path="url(#clip880)" style="stroke:#000000; stroke-width:4; stroke-opacity:1; fill:none" points="
  205.633,1486.45 205.633,1469.18 
  "/>
<polyline clip-path="url(#clip880)" style="stroke:#000000; stroke-width:4; stroke-opacity:1; fill:none" points="
  726.787,1486.45 726.787,1469.18 
  "/>
<polyline clip-path="url(#clip880)" style="stroke:#000000; stroke-width:4; stroke-opacity:1; fill:none" points="
  1247.94,1486.45 1247.94,1469.18 
  "/>
<polyline clip-path="url(#clip880)" style="stroke:#000000; stroke-width:4; stroke-opacity:1; fill:none" points="
  1769.09,1486.45 1769.09,1469.18 
  "/>
<polyline clip-path="url(#clip880)" style="stroke:#000000; stroke-width:4; stroke-opacity:1; fill:none" points="
  2290.25,1486.45 2290.25,1469.18 
  "/>
<path clip-path="url(#clip880)" d="M 0 0 M205.633 1515.64 Q202.022 1515.64 200.193 1519.2 Q198.387 1522.75 198.387 1529.87 Q198.387 1536.98 200.193 1540.55 Q202.022 1544.09 205.633 1544.09 Q209.267 1544.09 211.072 1540.55 Q212.901 1536.98 212.901 1529.87 Q212.901 1522.75 211.072 1519.2 Q209.267 1515.64 205.633 1515.64 M205.633 1511.93 Q211.443 1511.93 214.498 1516.54 Q217.577 1521.12 217.577 1529.87 Q217.577 1538.6 214.498 1543.21 Q211.443 1547.79 205.633 1547.79 Q199.822 1547.79 196.744 1543.21 Q193.688 1538.6 193.688 1529.87 Q193.688 1521.12 196.744 1516.54 Q199.822 1511.93 205.633 1511.93 Z" fill="#000000" fill-rule="evenodd" fill-opacity="1" /><path clip-path="url(#clip880)" d="M 0 0 M703.662 1543.18 L711.301 1543.18 L711.301 1516.82 L702.99 1518.49 L702.99 1514.23 L711.254 1512.56 L715.93 1512.56 L715.93 1543.18 L723.569 1543.18 L723.569 1547.12 L703.662 1547.12 L703.662 1543.18 Z" fill="#000000" fill-rule="evenodd" fill-opacity="1" /><path clip-path="url(#clip880)" d="M 0 0 M738.638 1515.64 Q735.027 1515.64 733.199 1519.2 Q731.393 1522.75 731.393 1529.87 Q731.393 1536.98 733.199 1540.55 Q735.027 1544.09 738.638 1544.09 Q742.273 1544.09 744.078 1540.55 Q745.907 1536.98 745.907 1529.87 Q745.907 1522.75 744.078 1519.2 Q742.273 1515.64 738.638 1515.64 M738.638 1511.93 Q744.449 1511.93 747.504 1516.54 Q750.583 1521.12 750.583 1529.87 Q750.583 1538.6 747.504 1543.21 Q744.449 1547.79 738.638 1547.79 Q732.828 1547.79 729.75 1543.21 Q726.694 1538.6 726.694 1529.87 Q726.694 1521.12 729.75 1516.54 Q732.828 1511.93 738.638 1511.93 Z" fill="#000000" fill-rule="evenodd" fill-opacity="1" /><path clip-path="url(#clip880)" d="M 0 0 M1229.09 1543.18 L1245.41 1543.18 L1245.41 1547.12 L1223.46 1547.12 L1223.46 1543.18 Q1226.12 1540.43 1230.71 1535.8 Q1235.31 1531.15 1236.49 1529.81 Q1238.74 1527.28 1239.62 1525.55 Q1240.52 1523.79 1240.52 1522.1 Q1240.52 1519.34 1238.58 1517.61 Q1236.66 1515.87 1233.55 1515.87 Q1231.36 1515.87 1228.9 1516.63 Q1226.47 1517.4 1223.69 1518.95 L1223.69 1514.23 Q1226.52 1513.09 1228.97 1512.51 Q1231.42 1511.93 1233.46 1511.93 Q1238.83 1511.93 1242.03 1514.62 Q1245.22 1517.31 1245.22 1521.8 Q1245.22 1523.93 1244.41 1525.85 Q1243.62 1527.74 1241.52 1530.34 Q1240.94 1531.01 1237.84 1534.23 Q1234.73 1537.42 1229.09 1543.18 Z" fill="#000000" fill-rule="evenodd" fill-opacity="1" /><path clip-path="url(#clip880)" d="M 0 0 M1260.48 1515.64 Q1256.86 1515.64 1255.04 1519.2 Q1253.23 1522.75 1253.23 1529.87 Q1253.23 1536.98 1255.04 1540.55 Q1256.86 1544.09 1260.48 1544.09 Q1264.11 1544.09 1265.92 1540.55 Q1267.74 1536.98 1267.74 1529.87 Q1267.74 1522.75 1265.92 1519.2 Q1264.11 1515.64 1260.48 1515.64 M1260.48 1511.93 Q1266.29 1511.93 1269.34 1516.54 Q1272.42 1521.12 1272.42 1529.87 Q1272.42 1538.6 1269.34 1543.21 Q1266.29 1547.79 1260.48 1547.79 Q1254.67 1547.79 1251.59 1543.21 Q1248.53 1538.6 1248.53 1529.87 Q1248.53 1521.12 1251.59 1516.54 Q1254.67 1511.93 1260.48 1511.93 Z" fill="#000000" fill-rule="evenodd" fill-opacity="1" /><path clip-path="url(#clip880)" d="M 0 0 M1759.84 1528.49 Q1763.19 1529.2 1765.07 1531.47 Q1766.97 1533.74 1766.97 1537.07 Q1766.97 1542.19 1763.45 1544.99 Q1759.93 1547.79 1753.45 1547.79 Q1751.27 1547.79 1748.96 1547.35 Q1746.66 1546.93 1744.21 1546.08 L1744.21 1541.56 Q1746.15 1542.7 1748.47 1543.28 Q1750.78 1543.86 1753.31 1543.86 Q1757.71 1543.86 1760 1542.12 Q1762.31 1540.38 1762.31 1537.07 Q1762.31 1534.02 1760.16 1532.31 Q1758.03 1530.57 1754.21 1530.57 L1750.18 1530.57 L1750.18 1526.73 L1754.4 1526.73 Q1757.84 1526.73 1759.67 1525.36 Q1761.5 1523.97 1761.5 1521.38 Q1761.5 1518.72 1759.6 1517.31 Q1757.73 1515.87 1754.21 1515.87 Q1752.29 1515.87 1750.09 1516.29 Q1747.89 1516.7 1745.25 1517.58 L1745.25 1513.42 Q1747.91 1512.68 1750.23 1512.31 Q1752.57 1511.93 1754.63 1511.93 Q1759.95 1511.93 1763.05 1514.37 Q1766.15 1516.77 1766.15 1520.89 Q1766.15 1523.76 1764.51 1525.75 Q1762.87 1527.72 1759.84 1528.49 Z" fill="#000000" fill-rule="evenodd" fill-opacity="1" /><path clip-path="url(#clip880)" d="M 0 0 M1782.03 1515.64 Q1778.42 1515.64 1776.59 1519.2 Q1774.79 1522.75 1774.79 1529.87 Q1774.79 1536.98 1776.59 1540.55 Q1778.42 1544.09 1782.03 1544.09 Q1785.67 1544.09 1787.47 1540.55 Q1789.3 1536.98 1789.3 1529.87 Q1789.3 1522.75 1787.47 1519.2 Q1785.67 1515.64 1782.03 1515.64 M1782.03 1511.93 Q1787.84 1511.93 1790.9 1516.54 Q1793.98 1521.12 1793.98 1529.87 Q1793.98 1538.6 1790.9 1543.21 Q1787.84 1547.79 1782.03 1547.79 Q1776.22 1547.79 1773.15 1543.21 Q1770.09 1538.6 1770.09 1529.87 Q1770.09 1521.12 1773.15 1516.54 Q1776.22 1511.93 1782.03 1511.93 Z" fill="#000000" fill-rule="evenodd" fill-opacity="1" /><path clip-path="url(#clip880)" d="M 0 0 M2279.75 1516.63 L2267.95 1535.08 L2279.75 1535.08 L2279.75 1516.63 M2278.52 1512.56 L2284.4 1512.56 L2284.4 1535.08 L2289.33 1535.08 L2289.33 1538.97 L2284.4 1538.97 L2284.4 1547.12 L2279.75 1547.12 L2279.75 1538.97 L2264.15 1538.97 L2264.15 1534.46 L2278.52 1512.56 Z" fill="#000000" fill-rule="evenodd" fill-opacity="1" /><path clip-path="url(#clip880)" d="M 0 0 M2304.4 1515.64 Q2300.79 1515.64 2298.96 1519.2 Q2297.16 1522.75 2297.16 1529.87 Q2297.16 1536.98 2298.96 1540.55 Q2300.79 1544.09 2304.4 1544.09 Q2308.04 1544.09 2309.84 1540.55 Q2311.67 1536.98 2311.67 1529.87 Q2311.67 1522.75 2309.84 1519.2 Q2308.04 1515.64 2304.4 1515.64 M2304.4 1511.93 Q2310.21 1511.93 2313.27 1516.54 Q2316.35 1521.12 2316.35 1529.87 Q2316.35 1538.6 2313.27 1543.21 Q2310.21 1547.79 2304.4 1547.79 Q2298.59 1547.79 2295.51 1543.21 Q2292.46 1538.6 2292.46 1529.87 Q2292.46 1521.12 2295.51 1516.54 Q2298.59 1511.93 2304.4 1511.93 Z" fill="#000000" fill-rule="evenodd" fill-opacity="1" /><polyline clip-path="url(#clip882)" style="stroke:#000000; stroke-width:2; stroke-opacity:0.1; fill:none" points="
  144.168,1236.62 2352.76,1236.62 
  "/>
<polyline clip-path="url(#clip882)" style="stroke:#000000; stroke-width:2; stroke-opacity:0.1; fill:none" points="
  144.168,943.454 2352.76,943.454 
  "/>
<polyline clip-path="url(#clip882)" style="stroke:#000000; stroke-width:2; stroke-opacity:0.1; fill:none" points="
  144.168,650.286 2352.76,650.286 
  "/>
<polyline clip-path="url(#clip882)" style="stroke:#000000; stroke-width:2; stroke-opacity:0.1; fill:none" points="
  144.168,357.119 2352.76,357.119 
  "/>
<polyline clip-path="url(#clip882)" style="stroke:#000000; stroke-width:2; stroke-opacity:0.1; fill:none" points="
  144.168,63.9511 2352.76,63.9511 
  "/>
<polyline clip-path="url(#clip880)" style="stroke:#000000; stroke-width:4; stroke-opacity:1; fill:none" points="
  144.168,1486.45 144.168,47.2441 
  "/>
<polyline clip-path="url(#clip880)" style="stroke:#000000; stroke-width:4; stroke-opacity:1; fill:none" points="
  144.168,1236.62 170.671,1236.62 
  "/>
<polyline clip-path="url(#clip880)" style="stroke:#000000; stroke-width:4; stroke-opacity:1; fill:none" points="
  144.168,943.454 170.671,943.454 
  "/>
<polyline clip-path="url(#clip880)" style="stroke:#000000; stroke-width:4; stroke-opacity:1; fill:none" points="
  144.168,650.286 170.671,650.286 
  "/>
<polyline clip-path="url(#clip880)" style="stroke:#000000; stroke-width:4; stroke-opacity:1; fill:none" points="
  144.168,357.119 170.671,357.119 
  "/>
<polyline clip-path="url(#clip880)" style="stroke:#000000; stroke-width:4; stroke-opacity:1; fill:none" points="
  144.168,63.9511 170.671,63.9511 
  "/>
<path clip-path="url(#clip880)" d="M 0 0 M51.3162 1237.07 L80.992 1237.07 L80.992 1241.01 L51.3162 1241.01 L51.3162 1237.07 Z" fill="#000000" fill-rule="evenodd" fill-opacity="1" /><path clip-path="url(#clip880)" d="M 0 0 M96.64 1234.76 Q93.4919 1234.76 91.6401 1236.91 Q89.8114 1239.06 89.8114 1242.81 Q89.8114 1246.54 91.6401 1248.72 Q93.4919 1250.87 96.64 1250.87 Q99.7882 1250.87 101.617 1248.72 Q103.469 1246.54 103.469 1242.81 Q103.469 1239.06 101.617 1236.91 Q99.7882 1234.76 96.64 1234.76 M105.922 1220.11 L105.922 1224.36 Q104.163 1223.53 102.358 1223.09 Q100.575 1222.65 98.8159 1222.65 Q94.1863 1222.65 91.7326 1225.78 Q89.3021 1228.9 88.9549 1235.22 Q90.3206 1233.21 92.3808 1232.14 Q94.441 1231.05 96.9178 1231.05 Q102.126 1231.05 105.135 1234.23 Q108.168 1237.37 108.168 1242.81 Q108.168 1248.14 105.02 1251.36 Q101.871 1254.57 96.64 1254.57 Q90.6447 1254.57 87.4734 1249.99 Q84.3021 1245.38 84.3021 1236.66 Q84.3021 1228.46 88.191 1223.6 Q92.0799 1218.72 98.6308 1218.72 Q100.39 1218.72 102.172 1219.06 Q103.978 1219.41 105.922 1220.11 Z" fill="#000000" fill-rule="evenodd" fill-opacity="1" /><path clip-path="url(#clip880)" d="M 0 0 M50.9921 943.905 L80.6679 943.905 L80.6679 947.84 L50.9921 947.84 L50.9921 943.905 Z" fill="#000000" fill-rule="evenodd" fill-opacity="1" /><path clip-path="url(#clip880)" d="M 0 0 M98.5845 930.248 L86.779 948.697 L98.5845 948.697 L98.5845 930.248 M97.3576 926.174 L103.237 926.174 L103.237 948.697 L108.168 948.697 L108.168 952.586 L103.237 952.586 L103.237 960.734 L98.5845 960.734 L98.5845 952.586 L82.9827 952.586 L82.9827 948.072 L97.3576 926.174 Z" fill="#000000" fill-rule="evenodd" fill-opacity="1" /><path clip-path="url(#clip880)" d="M 0 0 M53.0754 650.738 L82.7512 650.738 L82.7512 654.673 L53.0754 654.673 L53.0754 650.738 Z" fill="#000000" fill-rule="evenodd" fill-opacity="1" /><path clip-path="url(#clip880)" d="M 0 0 M91.8484 663.631 L108.168 663.631 L108.168 667.566 L86.2234 667.566 L86.2234 663.631 Q88.8854 660.877 93.4688 656.247 Q98.0752 651.594 99.2558 650.252 Q101.501 647.728 102.381 645.992 Q103.284 644.233 103.284 642.543 Q103.284 639.789 101.339 638.053 Q99.4178 636.316 96.316 636.316 Q94.1169 636.316 91.6632 637.08 Q89.2327 637.844 86.4549 639.395 L86.4549 634.673 Q89.279 633.539 91.7326 632.96 Q94.1863 632.381 96.2234 632.381 Q101.594 632.381 104.788 635.066 Q107.983 637.752 107.983 642.242 Q107.983 644.372 107.172 646.293 Q106.385 648.191 104.279 650.784 Q103.7 651.455 100.598 654.673 Q97.4965 657.867 91.8484 663.631 Z" fill="#000000" fill-rule="evenodd" fill-opacity="1" /><path clip-path="url(#clip880)" d="M 0 0 M96.2234 342.917 Q92.6123 342.917 90.7836 346.482 Q88.978 350.024 88.978 357.153 Q88.978 364.26 90.7836 367.825 Q92.6123 371.366 96.2234 371.366 Q99.8576 371.366 101.663 367.825 Q103.492 364.26 103.492 357.153 Q103.492 350.024 101.663 346.482 Q99.8576 342.917 96.2234 342.917 M96.2234 339.214 Q102.034 339.214 105.089 343.82 Q108.168 348.403 108.168 357.153 Q108.168 365.88 105.089 370.487 Q102.034 375.07 96.2234 375.07 Q90.4132 375.07 87.3345 370.487 Q84.279 365.88 84.279 357.153 Q84.279 348.403 87.3345 343.82 Q90.4132 339.214 96.2234 339.214 Z" fill="#000000" fill-rule="evenodd" fill-opacity="1" /><path clip-path="url(#clip880)" d="M 0 0 M91.8484 77.296 L108.168 77.296 L108.168 81.2311 L86.2234 81.2311 L86.2234 77.296 Q88.8854 74.5414 93.4688 69.9118 Q98.0752 65.259 99.2558 63.9164 Q101.501 61.3933 102.381 59.6572 Q103.284 57.8979 103.284 56.2081 Q103.284 53.4535 101.339 51.7174 Q99.4178 49.9813 96.316 49.9813 Q94.1169 49.9813 91.6632 50.7452 Q89.2327 51.5091 86.4549 53.06 L86.4549 48.3378 Q89.279 47.2036 91.7326 46.6249 Q94.1863 46.0462 96.2234 46.0462 Q101.594 46.0462 104.788 48.7313 Q107.983 51.4165 107.983 55.9072 Q107.983 58.0368 107.172 59.9581 Q106.385 61.8563 104.279 64.4488 Q103.7 65.1201 100.598 68.3377 Q97.4965 71.5321 91.8484 77.296 Z" fill="#000000" fill-rule="evenodd" fill-opacity="1" /><polyline clip-path="url(#clip882)" style="stroke:#009af9; stroke-width:4; stroke-opacity:1; fill:none" points="
  206.675,87.9763 207.717,88.195 208.76,88.5598 209.802,89.0709 210.844,89.7286 211.886,90.5335 212.929,91.4862 213.971,92.5875 215.013,93.8382 216.056,95.2395 
  217.098,96.7926 218.14,98.4988 219.183,100.36 220.225,102.377 221.267,104.552 222.31,106.887 223.352,109.383 224.394,112.044 225.437,114.872 226.479,117.868 
  227.521,121.037 228.563,124.381 229.606,127.904 230.648,131.609 231.69,135.501 232.733,139.582 233.775,143.859 234.817,148.335 235.86,153.016 236.902,157.907 
  237.944,163.015 238.987,168.345 240.029,173.906 241.071,179.704 242.113,185.748 243.156,192.046 244.198,198.609 245.24,205.445 246.283,212.568 247.325,219.987 
  248.367,227.718 249.41,235.775 250.452,244.173 251.494,252.929 252.537,262.063 253.579,271.596 254.621,281.551 255.663,291.954 256.706,302.834 257.748,314.224 
  258.79,326.159 259.833,338.68 260.875,351.834 261.917,365.672 262.96,380.254 264.002,395.65 265.044,411.941 266.087,429.22 267.129,447.598 268.171,467.209 
  269.213,488.212 270.256,510.802 271.298,535.22 272.34,561.771 273.383,590.843 274.425,622.949 275.467,658.774 276.51,699.272 277.552,745.81 278.594,800.437 
  279.637,866.393 280.679,949.068 281.721,1057.39 282.763,1197.33 283.806,1270.72 284.848,1150.82 285.89,1024.25 286.933,929.654 287.975,857.145 289.017,799.129 
  290.06,751.117 291.102,710.373 292.144,675.136 293.187,644.214 294.229,616.762 295.271,592.166 296.313,569.96 297.356,549.786 298.398,531.362 299.44,514.461 
  300.483,498.903 301.525,484.538 302.567,471.245 303.61,458.919 304.652,447.471 305.694,436.825 306.737,426.916 307.779,417.687 308.821,409.088 309.863,401.076 
  310.906,393.613 311.948,386.665 312.99,380.203 314.033,374.201 315.075,368.635 316.117,363.484 317.16,358.73 318.202,354.355 319.244,350.346 320.287,346.687 
  321.329,343.368 322.371,340.376 323.413,337.701 324.456,335.334 325.498,333.265 326.54,331.488 327.583,329.995 328.625,328.78 329.667,327.837 330.71,327.161 
  331.752,326.748 332.794,326.595 333.837,326.7 334.879,327.059 335.921,327.671 336.963,328.535 338.006,329.65 339.048,331.017 340.09,332.635 341.133,334.504 
  342.175,336.626 343.217,339.001 344.26,341.63 345.302,344.516 346.344,347.661 347.387,351.068 348.429,354.741 349.471,358.684 350.513,362.903 351.556,367.404 
  352.598,372.192 353.64,377.275 354.683,382.661 355.725,388.359 356.767,394.379 357.81,400.73 358.852,407.423 359.894,414.471 360.937,421.889 361.979,429.691 
  363.021,437.895 364.063,446.521 365.106,455.587 366.148,465.117 367.19,475.137 368.233,485.677 369.275,496.77 370.317,508.452 371.36,520.765 372.402,533.757 
  373.444,547.479 374.487,561.995 375.529,577.376 376.571,593.704 377.613,611.076 378.656,629.608 379.698,649.438 380.74,670.743 381.783,693.74 382.825,718.705 
  383.867,745.985 384.91,776.018 385.952,809.37 386.994,846.8 388.037,889.363 389.079,938.581 390.121,996.73 391.163,1067.3 392.206,1155.44 393.248,1265.28 
  394.29,1367.78 395.333,1343.02 396.375,1232.04 397.417,1132.52 398.46,1054.15 399.502,991.502 400.544,939.987 401.587,896.576 402.629,859.262 403.671,826.677 
  404.713,797.858 405.756,772.111 406.798,748.925 407.84,727.916 408.883,708.786 409.925,691.294 410.967,675.245 412.01,660.472 413.052,646.838 414.094,634.225 
  415.137,622.537 416.179,611.694 417.221,601.623 418.263,592.266 419.306,583.568 420.348,575.485 421.39,567.976 422.433,561.005 423.475,554.541 424.517,548.557 
  425.56,543.029 426.602,537.934 427.644,533.253 428.687,528.969 429.729,525.067 430.771,521.533 431.813,518.354 432.856,515.518 433.898,513.011 434.94,510.824 
  435.983,508.946 437.025,507.367 438.067,506.078 439.11,505.074 440.152,504.348 441.194,503.897 442.237,503.715 443.279,503.8 444.321,504.146 445.363,504.751 
  446.406,505.612 447.448,506.726 448.49,508.091 449.533,509.706 450.575,511.57 451.617,513.682 452.66,516.044 453.702,518.656 454.744,521.517 455.787,524.63 
  456.829,527.995 457.871,531.614 458.913,535.493 459.956,539.634 460.998,544.038 462.04,548.709 463.083,553.645 464.125,558.848 465.167,564.323 466.21,570.077 
  467.252,576.117 468.294,582.453 469.337,589.09 470.379,596.033 471.421,603.291 472.464,610.873 473.506,618.788 474.548,627.045 475.59,635.653 476.633,644.623 
  477.675,653.969 478.717,663.714 479.76,673.886 480.802,684.517 481.844,695.632 482.887,707.253 483.929,719.4 484.971,732.091 486.014,745.356 487.056,759.23 
  488.098,773.753 489.14,788.964 490.183,804.913 491.225,821.665 492.267,839.306 493.31,857.943 494.352,877.697 495.394,898.7 496.437,921.11 497.479,945.114 
  498.521,970.907 499.564,998.709 500.606,1028.77 501.648,1061.37 502.69,1096.84 503.733,1135.53 504.775,1177.76 505.817,1223.47 506.86,1271.59 507.902,1318.67 
  508.944,1357.07 509.987,1375.33 511.029,1366.62 512.071,1336.58 513.114,1296.7 514.156,1255.25 515.198,1216.05 516.24,1180.22 517.283,1147.77 518.325,1118.39 
  519.367,1091.72 520.41,1067.48 521.452,1045.43 522.494,1025.36 523.537,1007.11 524.579,990.506 525.621,975.397 526.664,961.608 527.706,948.993 528.748,937.429 
  529.79,926.812 530.833,917.065 531.875,908.132 532.917,899.962 533.96,892.503 535.002,885.705 536.044,879.532 537.087,873.96 538.129,868.972 539.171,864.538 
  540.214,860.62 541.256,857.177 542.298,854.16 543.34,851.517 544.383,849.207 545.425,847.203 546.467,845.49 547.51,844.065 548.552,842.927 549.594,842.068 
  550.637,841.477 551.679,841.142 552.721,841.061 553.764,841.234 554.806,841.665 555.848,842.358 556.89,843.322 557.933,844.565 558.975,846.084 560.017,847.861 
  561.06,849.872 562.102,852.101 563.144,854.552 564.187,857.237 565.229,860.159 566.271,863.31 567.314,866.673 568.356,870.225 569.398,873.944 570.44,877.811 
  571.483,881.813 572.525,885.939 573.567,890.181 574.61,894.545 575.652,899.046 576.694,903.693 577.737,908.491 578.779,913.44 579.821,918.543 580.864,923.809 
  581.906,929.237 582.948,934.818 583.99,940.535 585.033,946.366 586.075,952.298 587.117,958.333 588.16,964.468 589.202,970.706 590.244,977.04 591.287,983.46 
  592.329,989.968 593.371,996.575 594.414,1003.29 595.456,1010.13 596.498,1017.1 597.54,1024.22 598.583,1031.51 599.625,1038.99 600.667,1046.63 601.71,1054.37 
  602.752,1062.08 603.794,1069.65 604.837,1076.99 605.879,1084.08 606.921,1090.94 607.964,1097.65 609.006,1104.26 610.048,1110.78 611.09,1117.2 612.133,1123.52 
  613.175,1129.74 614.217,1135.77 615.26,1141.51 616.302,1146.81 617.344,1151.56 618.387,1155.76 619.429,1159.57 620.471,1163.17 621.514,1166.73 622.556,1170.34 
  623.598,1173.99 624.64,1177.49 625.683,1180.61 626.725,1183.18 627.767,1185.12 628.81,1186.43 629.852,1187.24 630.894,1187.73 631.937,1188.07 632.979,1188.41 
  634.021,1188.86 635.064,1189.52 636.106,1190.42 637.148,1191.5 638.19,1192.64 639.233,1193.66 640.275,1194.56 641.317,1195.41 642.36,1196.35 643.402,1197.47 
  644.444,1198.79 645.487,1200.37 646.529,1202.33 647.571,1204.88 648.614,1208.18 649.656,1212.3 650.698,1217.12 651.74,1222.48 652.783,1228.26 653.825,1234.38 
  654.867,1240.72 655.91,1247.07 656.952,1253.19 657.994,1258.9 659.037,1264.24 660.079,1269.45 661.121,1274.87 662.164,1280.65 663.206,1286.8 664.248,1293.25 
  665.29,1300.14 666.333,1307.79 667.375,1316.52 668.417,1326.44 669.46,1337.31 670.502,1348.48 671.544,1359.08 672.587,1368.45 673.629,1376.41 674.671,1382.89 
  675.714,1387.81 676.756,1390.65 677.798,1390.73 678.84,1387.88 679.883,1382.89 680.925,1376.94 681.967,1371.02 683.01,1365.75 684.052,1361.09 685.094,1356.55 
  686.137,1351.43 687.179,1344.9 688.221,1336.44 689.264,1325.91 690.306,1313.52 691.348,1299.91 692.39,1286.04 693.433,1272.53 694.475,1259.56 695.517,1247.14 
  696.56,1235.24 697.602,1223.74 698.644,1212.53 699.687,1201.55 700.729,1190.76 701.771,1180.15 702.814,1169.68 703.856,1159.3 704.898,1148.9 705.941,1138.46 
  706.983,1128.05 708.025,1117.81 709.067,1107.87 710.11,1098.3 711.152,1089.1 712.194,1080.22 713.237,1071.66 714.279,1063.51 715.321,1055.84 716.364,1048.7 
  717.406,1042.02 718.448,1035.72 719.491,1029.7 720.533,1023.93 721.575,1018.38 722.617,1013.05 723.66,1007.93 724.702,1003.02 725.744,998.317 726.787,993.813 
  727.829,989.499 728.871,985.367 729.914,981.39 730.956,977.554 731.998,973.874 733.041,970.374 734.083,967.079 735.125,964.01 736.167,961.174 737.21,958.564 
  738.252,956.166 739.294,953.974 740.337,951.98 741.379,950.185 742.421,948.582 743.464,947.158 744.506,945.896 745.548,944.78 746.591,943.795 747.633,942.944 
  748.675,942.239 749.717,941.705 750.76,941.368 751.802,941.247 752.844,941.352 753.887,941.68 754.929,942.22 755.971,942.963 757.014,943.918 758.056,945.104 
  759.098,946.538 760.141,948.228 761.183,950.165 762.225,952.334 763.267,954.719 764.31,957.322 765.352,960.16 766.394,963.258 767.437,966.629 768.479,970.271 
  769.521,974.179 770.564,978.352 771.606,982.799 772.648,987.543 773.691,992.608 774.733,998 775.775,1003.71 776.817,1009.73 777.86,1016.05 778.902,1022.69 
  779.944,1029.66 780.987,1036.95 782.029,1044.57 783.071,1052.49 784.114,1060.75 785.156,1069.43 786.198,1078.65 787.241,1088.53 788.283,1099.18 789.325,1110.63 
  790.367,1122.9 791.41,1135.97 792.452,1149.82 793.494,1164.44 794.537,1179.86 795.579,1196.15 796.621,1213.44 797.664,1231.85 798.706,1251.42 799.748,1272.04 
  800.791,1293.33 801.833,1314.62 802.875,1335.17 803.917,1354.48 804.96,1372.35 806.002,1388.72 807.044,1402.92 808.087,1413.43 809.129,1418.48 810.171,1416.9 
  811.214,1408.83 812.256,1395.84 813.298,1379.85 814.341,1362.39 815.383,1344.46 816.425,1326.52 817.467,1308.84 818.51,1291.61 819.552,1274.85 820.594,1258.38 
  821.637,1242.12 822.679,1226.17 823.721,1210.72 824.764,1195.9 825.806,1181.86 826.848,1168.65 827.891,1156.24 828.933,1144.51 829.975,1133.37 831.017,1122.73 
  832.06,1112.53 833.102,1102.72 834.144,1093.31 835.187,1084.3 836.229,1075.72 837.271,1067.61 838.314,1060 839.356,1052.86 840.398,1046.15 841.441,1039.83 
  842.483,1033.89 843.525,1028.32 844.567,1023.13 845.61,1018.29 846.652,1013.79 847.694,1009.62 848.737,1005.78 849.779,1002.28 850.821,999.122 851.864,996.275 
  852.906,993.7 853.948,991.355 854.991,989.221 856.033,987.293 857.075,985.583 858.117,984.103 859.16,982.849 860.202,981.798 861.244,980.929 862.287,980.233 
  863.329,979.704 864.371,979.342 865.414,979.163 866.456,979.202 867.498,979.501 868.541,980.097 869.583,981.012 870.625,982.247 871.667,983.771 872.71,985.532 
  873.752,987.472 874.794,989.539 875.837,991.688 876.879,993.889 877.921,996.142 878.964,998.479 880.006,1000.96 881.048,1003.65 882.091,1006.6 883.133,1009.87 
  884.175,1013.54 885.217,1017.62 886.26,1022.13 887.302,1027.03 888.344,1032.2 889.387,1037.54 890.429,1042.94 891.471,1048.39 892.514,1053.94 893.556,1059.61 
  894.598,1065.45 895.641,1071.51 896.683,1077.77 897.725,1084.22 898.767,1090.84 899.81,1097.6 900.852,1104.49 901.894,1111.52 902.937,1118.61 903.979,1125.71 
  905.021,1132.78 906.064,1139.87 907.106,1147.04 908.148,1154.4 909.191,1162.13 910.233,1170.33 911.275,1179.03 912.317,1188.16 913.36,1197.63 914.402,1207.38 
  915.444,1217.42 916.487,1227.84 917.529,1238.57 918.571,1249.3 919.614,1259.57 920.656,1268.91 921.698,1277.03 922.741,1283.9 923.783,1289.63 924.825,1294.32 
  925.867,1297.96 926.91,1300.53 927.952,1302 928.994,1302.25 930.037,1301.19 931.079,1298.87 932.121,1295.35 933.164,1290.78 934.206,1285.41 935.248,1279.49 
  936.291,1273.27 937.333,1266.89 938.375,1260.39 939.417,1253.78 940.46,1247.1 941.502,1240.34 942.544,1233.57 943.587,1226.94 944.629,1220.5 945.671,1214.29 
  946.714,1208.27 947.756,1202.4 948.798,1196.73 949.841,1191.34 950.883,1186.19 951.925,1181.16 952.968,1176.18 954.01,1171.3 955.052,1166.62 956.094,1162.2 
  957.137,1158.02 958.179,1153.97 959.221,1149.96 960.264,1145.98 961.306,1142.12 962.348,1138.42 963.391,1134.89 964.433,1131.48 965.475,1128.14 966.518,1124.81 
  967.56,1121.43 968.602,1118.01 969.644,1114.6 970.687,1111.25 971.729,1107.94 972.771,1104.66 973.814,1101.43 974.856,1098.26 975.898,1095.2 976.941,1092.31 
  977.983,1089.66 979.025,1087.24 980.068,1085.01 981.11,1082.92 982.152,1080.94 983.194,1079.04 984.237,1077.17 985.279,1075.33 986.321,1073.49 987.364,1071.62 
  988.406,1069.68 989.448,1067.64 990.491,1065.52 991.533,1063.4 992.575,1061.35 993.618,1059.45 994.66,1057.74 995.702,1056.23 996.744,1054.87 997.787,1053.67 
  998.829,1052.63 999.871,1051.75 1000.91,1051 1001.96,1050.33 1003,1049.68 1004.04,1049.02 1005.08,1048.34 1006.13,1047.64 1007.17,1046.96 1008.21,1046.35 
  1009.25,1045.85 1010.29,1045.46 1011.34,1045.14 1012.38,1044.83 1013.42,1044.52 1014.46,1044.15 1015.51,1043.76 1016.55,1043.34 1017.59,1042.88 1018.63,1042.34 
  1019.68,1041.64 1020.72,1040.75 1021.76,1039.65 1022.8,1038.44 1023.84,1037.25 1024.89,1036.25 1025.93,1035.53 1026.97,1035.15 1028.01,1035.06 1029.06,1035.19 
  1030.1,1035.52 1031.14,1036.05 1032.18,1036.8 1033.23,1037.76 1034.27,1038.89 1035.31,1040.11 1036.35,1041.39 1037.39,1042.7 1038.44,1044.08 1039.48,1045.56 
  1040.52,1047.19 1041.56,1049.01 1042.61,1051.04 1043.65,1053.33 1044.69,1055.94 1045.73,1058.95 1046.78,1062.31 1047.82,1065.88 1048.86,1069.49 1049.9,1072.99 
  1050.94,1076.27 1051.99,1079.37 1053.03,1082.39 1054.07,1085.44 1055.11,1088.67 1056.16,1092.23 1057.2,1096.24 1058.24,1100.8 1059.28,1105.97 1060.33,1111.75 
  1061.37,1118.03 1062.41,1124.69 1063.45,1131.56 1064.49,1138.57 1065.54,1145.7 1066.58,1153.03 1067.62,1160.61 1068.66,1168.45 1069.71,1176.5 1070.75,1184.75 
  1071.79,1193.21 1072.83,1201.92 1073.88,1210.98 1074.92,1220.45 1075.96,1230.37 1077,1240.75 1078.04,1251.52 1079.09,1262.57 1080.13,1273.74 1081.17,1285 
  1082.21,1296.5 1083.26,1308.46 1084.3,1321.15 1085.34,1334.77 1086.38,1349.39 1087.43,1364.92 1088.47,1380.98 1089.51,1396.99 1090.55,1412.23 1091.59,1425.74 
  1092.64,1436.29 1093.68,1442.99 1094.72,1445.72 1095.76,1445.43 1096.81,1443.32 1097.85,1439.83 1098.89,1434.59 1099.93,1426.99 1100.98,1416.76 1102.02,1404.49 
  1103.06,1391.29 1104.1,1378.15 1105.14,1365.48 1106.19,1353.26 1107.23,1341.15 1108.27,1328.77 1109.31,1315.92 1110.36,1302.52 1111.4,1288.84 1112.44,1275.26 
  1113.48,1262.15 1114.53,1249.72 1115.57,1237.91 1116.61,1226.46 1117.65,1215.22 1118.69,1204.15 1119.74,1193.24 1120.78,1182.58 1121.82,1172.28 1122.86,1162.44 
  1123.91,1153.14 1124.95,1144.42 1125.99,1136.26 1127.03,1128.61 1128.08,1121.41 1129.12,1114.62 1130.16,1108.14 1131.2,1101.88 1132.24,1095.73 1133.29,1089.66 
  1134.33,1083.66 1135.37,1077.81 1136.41,1072.21 1137.46,1066.97 1138.5,1062.2 1139.54,1057.96 1140.58,1054.24 1141.63,1050.97 1142.67,1048.07 1143.71,1045.44 
  1144.75,1042.99 1145.79,1040.68 1146.84,1038.52 1147.88,1036.53 1148.92,1034.77 1149.96,1033.28 1151.01,1032.07 1152.05,1031.12 1153.09,1030.37 1154.13,1029.79 
  1155.18,1029.32 1156.22,1028.93 1157.26,1028.6 1158.3,1028.34 1159.34,1028.19 1160.39,1028.21 1161.43,1028.52 1162.47,1029.22 1163.51,1030.35 1164.56,1031.96 
  1165.6,1034.01 1166.64,1036.45 1167.68,1039.19 1168.73,1042.22 1169.77,1045.5 1170.81,1049 1171.85,1052.69 1172.89,1056.56 1173.94,1060.64 1174.98,1065.02 
  1176.02,1069.76 1177.06,1074.88 1178.11,1080.34 1179.15,1086.1 1180.19,1092.15 1181.23,1098.5 1182.28,1105.13 1183.32,1112.01 1184.36,1119.16 1185.4,1126.66 
  1186.44,1134.56 1187.49,1142.88 1188.53,1151.6 1189.57,1160.67 1190.61,1170.13 1191.66,1179.99 1192.7,1190.21 1193.74,1200.66 1194.78,1211.26 1195.83,1222.03 
  1196.87,1233.14 1197.91,1244.95 1198.95,1257.73 1199.99,1271.37 1201.04,1285.29 1202.08,1298.55 1203.12,1310.21 1204.16,1319.78 1205.21,1327.43 1206.25,1333.62 
  1207.29,1338.66 1208.33,1342.56 1209.38,1345.16 1210.42,1346.16 1211.46,1345.23 1212.5,1342.21 1213.54,1337.13 1214.59,1330.22 1215.63,1321.82 1216.67,1312.32 
  1217.71,1302.05 1218.76,1291.2 1219.8,1279.98 1220.84,1268.68 1221.88,1257.54 1222.93,1246.75 1223.97,1236.37 1225.01,1226.26 1226.05,1216.17 1227.09,1205.9 
  1228.14,1195.41 1229.18,1184.77 1230.22,1174.08 1231.26,1163.53 1232.31,1153.23 1233.35,1143.24 1234.39,1133.57 1235.43,1124.22 1236.48,1115.25 1237.52,1106.73 
  1238.56,1098.73 1239.6,1091.2 1240.64,1084.02 1241.69,1077.04 1242.73,1070.17 1243.77,1063.43 1244.81,1056.91 1245.86,1050.68 1246.9,1044.76 1247.94,1039.15 
  1248.98,1033.79 1250.03,1028.65 1251.07,1023.7 1252.11,1018.94 1253.15,1014.41 1254.19,1010.17 1255.24,1006.26 1256.28,1002.68 1257.32,999.393 1258.36,996.327 
  1259.41,993.433 1260.45,990.695 1261.49,988.121 1262.53,985.732 1263.58,983.531 1264.62,981.49 1265.66,979.571 1266.7,977.744 1267.74,975.999 1268.79,974.339 
  1269.83,972.784 1270.87,971.359 1271.91,970.075 1272.96,968.945 1274,967.985 1275.04,967.193 1276.08,966.543 1277.13,966.003 1278.17,965.57 1279.21,965.255 
  1280.25,965.077 1281.29,965.06 1282.34,965.248 1283.38,965.683 1284.42,966.386 1285.46,967.355 1286.51,968.565 1287.55,969.992 1288.59,971.603 1289.63,973.361 
  1290.68,975.243 1291.72,977.249 1292.76,979.384 1293.8,981.64 1294.84,984.002 1295.89,986.444 1296.93,988.937 1297.97,991.476 1299.01,994.086 1300.06,996.795 
  1301.1,999.621 1302.14,1002.57 1303.18,1005.63 1304.23,1008.8 1305.27,1012.09 1306.31,1015.52 1307.35,1019.09 1308.39,1022.8 1309.44,1026.62 1310.48,1030.55 
  1311.52,1034.59 1312.56,1038.74 1313.61,1042.95 1314.65,1047.15 1315.69,1051.29 1316.73,1055.35 1317.78,1059.34 1318.82,1063.27 1319.86,1067.1 1320.9,1070.8 
  1321.94,1074.36 1322.99,1077.79 1324.03,1081.25 1325.07,1084.92 1326.11,1089 1327.16,1093.57 1328.2,1098.67 1329.24,1104.23 1330.28,1110.2 1331.33,1116.51 
  1332.37,1123.16 1333.41,1130.16 1334.45,1137.53 1335.49,1145.29 1336.54,1153.46 1337.58,1162.05 1338.62,1171.02 1339.66,1180.35 1340.71,1190.05 1341.75,1200.15 
  1342.79,1210.64 1343.83,1221.5 1344.88,1232.6 1345.92,1243.74 1346.96,1254.76 1348,1265.63 1349.04,1276.54 1350.09,1287.8 1351.13,1299.58 1352.17,1311.9 
  1353.21,1324.58 1354.26,1337.01 1355.3,1348.38 1356.34,1357.86 1357.38,1364.65 1358.43,1368.44 1359.47,1369.36 1360.51,1367.85 1361.55,1364.68 1362.59,1360.67 
  1363.64,1356.58 1364.68,1352.74 1365.72,1348.92 1366.76,1344.66 1367.81,1339.71 1368.85,1334.12 1369.89,1328.07 1370.93,1321.85 1371.98,1315.66 1373.02,1309.68 
  1374.06,1304 1375.1,1298.47 1376.14,1292.75 1377.19,1286.48 1378.23,1279.57 1379.27,1272.27 1380.31,1265.05 1381.36,1258.21 1382.4,1251.62 1383.44,1244.94 
  1384.48,1237.88 1385.53,1230.45 1386.57,1222.92 1387.61,1215.56 1388.65,1208.47 1389.69,1201.6 1390.74,1194.88 1391.78,1188.3 1392.82,1181.94 1393.86,1176 
  1394.91,1170.6 1395.95,1165.76 1396.99,1161.34 1398.03,1157.15 1399.08,1153.01 1400.12,1148.79 1401.16,1144.51 1402.2,1140.2 1403.24,1135.93 1404.29,1131.67 
  1405.33,1127.39 1406.37,1123.07 1407.41,1118.77 1408.46,1114.6 1409.5,1110.67 1410.54,1107.03 1411.58,1103.68 1412.63,1100.59 1413.67,1097.73 1414.71,1095.14 
  1415.75,1092.84 1416.79,1090.85 1417.84,1089.19 1418.88,1087.87 1419.92,1086.84 1420.96,1086.02 1422.01,1085.31 1423.05,1084.64 1424.09,1083.98 1425.13,1083.33 
  1426.18,1082.77 1427.22,1082.38 1428.26,1082.21 1429.3,1082.31 1430.34,1082.73 1431.39,1083.48 1432.43,1084.53 1433.47,1085.78 1434.51,1087.1 1435.56,1088.39 
  1436.6,1089.63 1437.64,1090.87 1438.68,1092.29 1439.73,1094.01 1440.77,1096.14 1441.81,1098.62 1442.85,1101.36 1443.89,1104.23 1444.94,1107.21 1445.98,1110.31 
  1447.02,1113.6 1448.06,1117.04 1449.11,1120.53 1450.15,1124.02 1451.19,1127.61 1452.23,1131.47 1453.28,1135.72 1454.32,1140.32 1455.36,1145.09 1456.4,1149.89 
  1457.44,1154.75 1458.49,1159.78 1459.53,1165.07 1460.57,1170.58 1461.61,1176.14 1462.66,1181.59 1463.7,1186.89 1464.74,1192.12 1465.78,1197.43 1466.83,1202.95 
  1467.87,1208.77 1468.91,1214.99 1469.95,1221.63 1470.99,1228.67 1472.04,1235.88 1473.08,1242.83 1474.12,1249.06 1475.16,1254.22 1476.21,1258.19 1477.25,1261.25 
  1478.29,1264.01 1479.33,1267.06 1480.38,1270.68 1481.42,1274.93 1482.46,1279.34 1483.5,1283.08 1484.54,1285.55 1485.59,1286.66 1486.63,1286.76 1487.67,1286.22 
  1488.71,1285 1489.76,1282.64 1490.8,1278.56 1491.84,1272.48 1492.88,1264.48 1493.93,1254.82 1494.97,1243.86 1496.01,1231.91 1497.05,1219.23 1498.09,1206.05 
  1499.14,1192.63 1500.18,1179.2 1501.22,1165.89 1502.26,1152.84 1503.31,1140.13 1504.35,1127.82 1505.39,1115.9 1506.43,1104.31 1507.48,1093.01 1508.52,1081.96 
  1509.56,1071.14 1510.6,1060.58 1511.64,1050.34 1512.69,1040.45 1513.73,1030.94 1514.77,1021.78 1515.81,1012.94 1516.86,1004.42 1517.9,996.185 1518.94,988.25 
  1519.98,980.634 1521.03,973.347 1522.07,966.391 1523.11,959.742 1524.15,953.351 1525.19,947.16 1526.24,941.132 1527.28,935.259 1528.32,929.556 1529.36,924.051 
  1530.41,918.755 1531.45,913.645 1532.49,908.685 1533.53,903.86 1534.58,899.173 1535.62,894.644 1536.66,890.287 1537.7,886.106 1538.74,882.095 1539.79,878.257 
  1540.83,874.604 1541.87,871.144 1542.91,867.866 1543.96,864.746 1545,861.763 1546.04,858.91 1547.08,856.192 1548.13,853.619 1549.17,851.193 1550.21,848.915 
  1551.25,846.79 1552.29,844.829 1553.34,843.042 1554.38,841.431 1555.42,839.989 1556.46,838.7 1557.51,837.546 1558.55,836.522 1559.59,835.631 1560.63,834.876 
  1561.68,834.254 1562.72,833.759 1563.76,833.384 1564.8,833.135 1565.84,833.027 1566.89,833.082 1567.93,833.311 1568.97,833.711 1570.01,834.271 1571.06,834.981 
  1572.1,835.833 1573.14,836.821 1574.18,837.936 1575.23,839.173 1576.27,840.538 1577.31,842.04 1578.35,843.686 1579.39,845.484 1580.44,847.441 1581.48,849.554 
  1582.52,851.817 1583.56,854.228 1584.61,856.783 1585.65,859.482 1586.69,862.328 1587.73,865.33 1588.78,868.492 1589.82,871.815 1590.86,875.289 1591.9,878.901 
  1592.94,882.645 1593.99,886.526 1595.03,890.562 1596.07,894.776 1597.11,899.19 1598.16,903.811 1599.2,908.636 1600.24,913.656 1601.28,918.858 1602.33,924.233 
  1603.37,929.776 1604.41,935.504 1605.45,941.451 1606.49,947.659 1607.54,954.164 1608.58,961.005 1609.62,968.224 1610.66,975.849 1611.71,983.859 1612.75,992.198 
  1613.79,1000.78 1614.83,1009.54 1615.88,1018.49 1616.92,1027.68 1617.96,1037.17 1619,1046.96 1620.04,1056.99 1621.09,1067.25 1622.13,1077.78 1623.17,1088.75 
  1624.21,1100.35 1625.26,1112.69 1626.3,1125.76 1627.34,1139.48 1628.38,1153.8 1629.43,1168.7 1630.47,1184.23 1631.51,1200.42 1632.55,1217.22 1633.59,1234.45 
  1634.64,1251.71 1635.68,1268.53 1636.72,1284.41 1637.76,1298.96 1638.81,1312.1 1639.85,1323.78 1640.89,1333.82 1641.93,1341.99 1642.98,1347.8 1644.02,1350.62 
  1645.06,1350.18 1646.1,1346.61 1647.14,1340.04 1648.19,1330.45 1649.23,1318.04 1650.27,1303.23 1651.31,1286.68 1652.36,1269.19 1653.4,1251.58 1654.44,1234.45 
  1655.48,1218.24 1656.53,1203.08 1657.57,1188.93 1658.61,1175.59 1659.65,1162.86 1660.69,1150.6 1661.74,1138.85 1662.78,1127.68 1663.82,1117.12 1664.86,1107.11 
  1665.91,1097.5 1666.95,1088.18 1667.99,1079.13 1669.03,1070.44 1670.08,1062.23 1671.12,1054.55 1672.16,1047.38 1673.2,1040.65 1674.24,1034.29 1675.29,1028.25 
  1676.33,1022.52 1677.37,1017.1 1678.41,1011.98 1679.46,1007.14 1680.5,1002.56 1681.54,998.234 1682.58,994.167 1683.63,990.361 1684.67,986.813 1685.71,983.523 
  1686.75,980.508 1687.79,977.796 1688.84,975.397 1689.88,973.297 1690.92,971.457 1691.96,969.83 1693.01,968.377 1694.05,967.088 1695.09,965.981 1696.13,965.092 
  1697.18,964.45 1698.22,964.074 1699.26,963.965 1700.3,964.115 1701.34,964.518 1702.39,965.171 1703.43,966.077 1704.47,967.227 1705.51,968.599 1706.56,970.177 
  1707.6,971.974 1708.64,974.016 1709.68,976.321 1710.73,978.897 1711.77,981.744 1712.81,984.871 1713.85,988.305 1714.89,992.079 1715.94,996.208 1716.98,1000.69 
  1718.02,1005.53 1719.06,1010.73 1720.11,1016.35 1721.15,1022.44 1722.19,1029.06 1723.23,1036.29 1724.28,1044.15 1725.32,1052.64 1726.36,1061.78 1727.4,1071.59 
  1728.44,1082.13 1729.49,1093.48 1730.53,1105.77 1731.57,1119.09 1732.61,1133.46 1733.66,1148.85 1734.7,1165.25 1735.74,1182.76 1736.78,1201.45 1737.83,1221.27 
  1738.87,1241.94 1739.91,1263.01 1740.95,1284.05 1741.99,1304.74 1743.04,1324.98 1744.08,1344.61 1745.12,1363.01 1746.16,1379.02 1747.21,1391.26 1748.25,1398.19 
  1749.29,1398.78 1750.33,1392.9 1751.38,1381.26 1752.42,1365.2 1753.46,1346.14 1754.5,1325.16 1755.54,1303.04 1756.59,1280.34 1757.63,1257.54 1758.67,1234.86 
  1759.71,1212.53 1760.76,1190.64 1761.8,1169.18 1762.84,1148.22 1763.88,1127.92 1764.93,1108.44 1765.97,1089.84 1767.01,1072.15 1768.05,1055.32 1769.09,1039.33 
  1770.14,1024.11 1771.18,1009.58 1772.22,995.666 1773.26,982.329 1774.31,969.535 1775.35,957.268 1776.39,945.531 1777.43,934.321 1778.48,923.609 1779.52,913.346 
  1780.56,903.49 1781.6,894.002 1782.64,884.858 1783.69,876.048 1784.73,867.569 1785.77,859.419 1786.81,851.588 1787.86,844.069 1788.9,836.843 1789.94,829.88 
  1790.98,823.151 1792.03,816.633 1793.07,810.317 1794.11,804.207 1795.15,798.316 1796.19,792.653 1797.24,787.217 1798.28,782.006 1799.32,777.013 1800.36,772.233 
  1801.41,767.654 1802.45,763.264 1803.49,759.051 1804.53,755.006 1805.58,751.13 1806.62,747.427 1807.66,743.9 1808.7,740.551 1809.74,737.375 1810.79,734.372 
  1811.83,731.541 1812.87,728.875 1813.91,726.365 1814.96,724.007 1816,721.798 1817.04,719.74 1818.08,717.835 1819.13,716.089 1820.17,714.507 1821.21,713.087 
  1822.25,711.824 1823.29,710.714 1824.34,709.752 1825.38,708.933 1826.42,708.258 1827.46,707.73 1828.51,707.357 1829.55,707.145 1830.59,707.099 1831.63,707.221 
  1832.68,707.511 1833.72,707.965 1834.76,708.578 1835.8,709.346 1836.84,710.264 1837.89,711.329 1838.93,712.543 1839.97,713.906 1841.01,715.42 1842.06,717.08 
  1843.1,718.887 1844.14,720.844 1845.18,722.959 1846.23,725.243 1847.27,727.706 1848.31,730.351 1849.35,733.179 1850.39,736.187 1851.44,739.372 1852.48,742.738 
  1853.52,746.299 1854.56,750.071 1855.61,754.071 1856.65,758.304 1857.69,762.768 1858.73,767.455 1859.78,772.365 1860.82,777.507 1861.86,782.889 1862.9,788.524 
  1863.94,794.43 1864.99,800.62 1866.03,807.103 1867.07,813.88 1868.11,820.954 1869.16,828.334 1870.2,836.049 1871.24,844.15 1872.28,852.697 1873.33,861.728 
  1874.37,871.257 1875.41,881.292 1876.45,891.855 1877.49,902.978 1878.54,914.698 1879.58,927.053 1880.62,940.084 1881.66,953.837 1882.71,968.347 1883.75,983.653 
  1884.79,999.809 1885.83,1016.9 1886.88,1035.03 1887.92,1054.31 1888.96,1074.84 1890,1096.7 1891.04,1119.86 1892.09,1144.15 1893.13,1169.32 1894.17,1195 
  1895.21,1220.73 1896.26,1245.72 1897.3,1268.82 1898.34,1288.34 1899.38,1302.21 1900.43,1308.36 1901.47,1305.68 1902.51,1294.45 1903.55,1276.34 1904.59,1253.62 
  1905.64,1228.46 1906.68,1202.49 1907.72,1176.78 1908.76,1151.89 1909.81,1128.08 1910.85,1105.43 1911.89,1083.94 1912.93,1063.57 1913.98,1044.28 1915.02,1026.05 
  1916.06,1008.84 1917.1,992.572 1918.14,977.165 1919.19,962.552 1920.23,948.683 1921.27,935.514 1922.31,923 1923.36,911.098 1924.4,899.777 1925.44,889.009 
  1926.48,878.769 1927.53,869.024 1928.57,859.74 1929.61,850.877 1930.65,842.408 1931.69,834.317 1932.74,826.596 1933.78,819.232 1934.82,812.202 1935.86,805.476 
  1936.91,799.031 1937.95,792.849 1938.99,786.919 1940.03,781.241 1941.08,775.815 1942.12,770.642 1943.16,765.715 1944.2,761.035 1945.24,756.596 1946.29,752.392 
  1947.33,748.415 1948.37,744.651 1949.41,741.086 1950.46,737.711 1951.5,734.52 1952.54,731.514 1953.58,728.692 1954.63,726.048 1955.67,723.568 1956.71,721.237 
  1957.75,719.045 1958.79,716.993 1959.84,715.088 1960.88,713.343 1961.92,711.765 1962.96,710.362 1964.01,709.135 1965.05,708.085 1966.09,707.205 1967.13,706.486 
  1968.18,705.921 1969.22,705.511 1970.26,705.263 1971.3,705.189 1972.34,705.293 1973.39,705.575 1974.43,706.031 1975.47,706.662 1976.51,707.473 1977.56,708.478 
  1978.6,709.692 1979.64,711.122 1980.68,712.765 1981.73,714.613 1982.77,716.659 1983.81,718.904 1984.85,721.358 1985.89,724.03 1986.94,726.93 1987.98,730.061 
  1989.02,733.431 1990.06,737.05 1991.11,740.93 1992.15,745.083 1993.19,749.517 1994.23,754.24 1995.28,759.261 1996.32,764.589 1997.36,770.236 1998.4,776.218 
  1999.44,782.555 2000.49,789.272 2001.53,796.39 2002.57,803.928 2003.61,811.901 2004.66,820.328 2005.7,829.238 2006.74,838.665 2007.78,848.645 2008.83,859.216 
  2009.87,870.408 2010.91,882.244 2011.95,894.753 2012.99,907.976 2014.04,921.992 2015.08,936.91 2016.12,952.869 2017.16,970.012 2018.21,988.49 2019.25,1008.45 
  2020.29,1030.05 2021.33,1053.45 2022.38,1078.82 2023.42,1106.36 2024.46,1136.34 2025.5,1169.05 2026.54,1204.8 2027.59,1243.73 2028.63,1285.29 2029.67,1327.48 
  2030.71,1365.51 2031.76,1391.09 2032.8,1395.3 2033.84,1376.26 2034.88,1341.05 2035.93,1298.85 2036.97,1255.88 2038.01,1215.08 2039.05,1177.42 2040.09,1143.05 
  2041.14,1111.78 2042.18,1083.3 2043.22,1057.3 2044.26,1033.45 2045.31,1011.44 2046.35,991 2047.39,971.915 2048.43,954.05 2049.48,937.33 2050.52,921.697 
  2051.56,907.073 2052.6,893.359 2053.64,880.453 2054.69,868.259 2055.73,856.693 2056.77,845.685 2057.81,835.173 2058.86,825.113 2059.9,815.472 2060.94,806.225 
  2061.98,797.352 2063.03,788.834 2064.07,780.651 2065.11,772.783 2066.15,765.215 2067.19,757.934 2068.24,750.924 2069.28,744.171 2070.32,737.665 2071.36,731.394 
  2072.41,725.349 2073.45,719.525 2074.49,713.915 2075.53,708.516 2076.58,703.323 2077.62,698.338 2078.66,693.567 2079.7,689.016 2080.74,684.684 2081.79,680.564 
  2082.83,676.643 2083.87,672.91 2084.91,669.351 2085.96,665.962 2087,662.739 2088.04,659.681 2089.08,656.792 2090.13,654.074 2091.17,651.531 2092.21,649.164 
  2093.25,646.971 2094.29,644.949 2095.34,643.094 2096.38,641.406 2097.42,639.888 2098.46,638.542 2099.51,637.373 2100.55,636.38 2101.59,635.563 2102.63,634.918 
  2103.68,634.441 2104.72,634.131 2105.76,633.989 2106.8,634.017 2107.84,634.218 2108.89,634.594 2109.93,635.15 2110.97,635.888 2112.01,636.814 2113.06,637.935 
  2114.1,639.258 2115.14,640.791 2116.18,642.541 2117.23,644.516 2118.27,646.723 2119.31,649.166 2120.35,651.848 2121.39,654.774 2122.44,657.944 2123.48,661.362 
  2124.52,665.032 2125.56,668.955 2126.61,673.134 2127.65,677.57 2128.69,682.268 2129.73,687.236 2130.78,692.481 2131.82,698.008 2132.86,703.821 2133.9,709.923 
  2134.94,716.323 2135.99,723.031 2137.03,730.058 2138.07,737.417 2139.11,745.123 2140.16,753.195 2141.2,761.656 2142.24,770.536 2143.28,779.867 2144.33,789.681 
  2145.37,800.012 2146.41,810.899 2147.45,822.384 2148.49,834.51 2149.54,847.324 2150.58,860.87 2151.62,875.189 2152.66,890.324 2153.71,906.314 2154.75,923.19 
  2155.79,940.972 2156.83,959.659 2157.88,979.24 2158.92,999.694 2159.96,1021 2161,1043.07 2162.04,1065.73 2163.09,1088.59 2164.13,1110.98 2165.17,1131.92 
  2166.21,1150.01 2167.26,1163.64 2168.3,1171.25 2169.34,1171.86 2170.38,1165.49 2171.43,1153.15 2172.47,1136.33 2173.51,1116.62 2174.55,1095.36 2175.59,1073.61 
  2176.64,1052.1 2177.68,1031.27 2178.72,1011.32 2179.76,992.335 2180.81,974.311 2181.85,957.226 2182.89,941.066 2183.93,925.818 2184.98,911.465 2186.02,897.963 
  2187.06,885.25 2188.1,873.275 2189.14,862.003 2190.19,851.413 2191.23,841.492 2192.27,832.217 2193.31,823.553 2194.36,815.456 2195.4,807.874 2196.44,800.75 
  2197.48,794.036 2198.53,787.684 2199.57,781.656 2200.61,775.918 2201.65,770.443 2202.69,765.205 2203.74,760.185 2204.78,755.367 2205.82,750.742 2206.86,746.304 
  2207.91,742.048 2208.95,737.969 2209.99,734.056 2211.03,730.295 2212.08,726.672 2213.12,723.174 2214.16,719.79 2215.2,716.511 2216.24,713.329 2217.29,710.244 
  2218.33,707.264 2219.37,704.397 2220.41,701.647 2221.46,699.009 2222.5,696.474 2223.54,694.036 2224.58,691.695 2225.63,689.467 2226.67,687.363 2227.71,685.389 
  2228.75,683.54 2229.79,681.804 2230.84,680.173 2231.88,678.645 2232.92,677.226 2233.96,675.927 2235.01,674.758 2236.05,673.727 2237.09,672.842 2238.13,672.112 
  2239.18,671.544 2240.22,671.147 2241.26,670.933 2242.3,670.918 2243.34,671.119 2244.39,671.554 2245.43,672.236 2246.47,673.182 2247.51,674.404 2248.56,675.912 
  2249.6,677.711 2250.64,679.809 2251.68,682.209 2252.73,684.918 2253.77,687.939 2254.81,691.27 2255.85,694.912 2256.89,698.871 2257.94,703.157 2258.98,707.794 
  2260.02,712.803 2261.06,718.21 2262.11,724.03 2263.15,730.278 2264.19,736.968 2265.23,744.115 2266.28,751.736 2267.32,759.847 2268.36,768.467 2269.4,777.614 
  2270.44,787.295 2271.49,797.506 2272.53,808.222 2273.57,819.406 2274.61,831.008 2275.66,842.97 2276.7,855.225 2277.74,867.695 2278.78,880.282 2279.83,892.871 
  2280.87,905.316 2281.91,917.425 2282.95,928.948 2283.99,939.578 2285.04,948.976 2286.08,956.806 2287.12,962.763 2288.16,966.592 2289.21,968.096 2290.25,967.15 
  
  "/>
<path clip-path="url(#clip880)" d="
M1982.72 216.178 L2279.14 216.178 L2279.14 95.2176 L1982.72 95.2176  Z
  " fill="#ffffff" fill-rule="evenodd" fill-opacity="1"/>
<polyline clip-path="url(#clip880)" style="stroke:#000000; stroke-width:4; stroke-opacity:1; fill:none" points="
  1982.72,216.178 2279.14,216.178 2279.14,95.2176 1982.72,95.2176 1982.72,216.178 
  "/>
<polyline clip-path="url(#clip880)" style="stroke:#009af9; stroke-width:4; stroke-opacity:1; fill:none" points="
  2007.26,155.698 2154.5,155.698 
  "/>
<path clip-path="url(#clip880)" d="M 0 0 M2192.88 175.385 Q2191.08 180.015 2189.36 181.427 Q2187.65 182.839 2184.78 182.839 L2181.38 182.839 L2181.38 179.274 L2183.88 179.274 Q2185.64 179.274 2186.61 178.44 Q2187.58 177.607 2188.76 174.505 L2189.52 172.561 L2179.04 147.052 L2183.55 147.052 L2191.65 167.329 L2199.76 147.052 L2204.27 147.052 L2192.88 175.385 Z" fill="#000000" fill-rule="evenodd" fill-opacity="1" /><path clip-path="url(#clip880)" d="M 0 0 M2210.15 169.042 L2217.79 169.042 L2217.79 142.677 L2209.48 144.343 L2209.48 140.084 L2217.74 138.418 L2222.42 138.418 L2222.42 169.042 L2230.06 169.042 L2230.06 172.978 L2210.15 172.978 L2210.15 169.042 Z" fill="#000000" fill-rule="evenodd" fill-opacity="1" /></svg>
